# MagicaVoxel @ Ephtracy

# group
o 

# material
mtllib Flawor.mtl
usemtl palette

# normals
vn -1 0 0
vn 1 0 0
vn 0 0 1
vn 0 0 -1
vn 0 -1 0
vn 0 1 0

# texcoords
vt 0.0175781 0.5
vt 0.841797 0.5
vt 0.888672 0.5
vt 0.896484 0.5
vt 0.994141 0.5

# verts
v 1 2.3 -1.5
v 1 2.3 -1.6
v 1 2.6 -1.5
v 1 2.6 -1.6
v 1 3.5 -1.4
v 1 3.5 -1.5
v 1 3.8 -1.4
v 1 3.8 -1.5
v 1.1 2.2 -1.5
v 1.1 2.2 -1.6
v 1.1 2.3 -1.5
v 1.1 2.3 -1.6
v 1.1 2.6 -1.5
v 1.1 2.6 -1.6
v 1.1 2.7 -1.5
v 1.1 2.7 -1.6
v 1.1 3.4 -1.4
v 1.1 3.4 -1.5
v 1.1 3.5 -1.4
v 1.1 3.5 -1.5
v 1.1 3.8 -1.4
v 1.1 3.8 -1.5
v 1.1 3.9 -1.4
v 1.1 3.9 -1.5
v 1.2 2.1 -1.5
v 1.2 2.1 -1.6
v 1.2 2.2 -1.5
v 1.2 2.2 -1.6
v 1.2 2.7 -1.5
v 1.2 2.7 -1.6
v 1.2 2.8 -1.5
v 1.2 2.8 -1.6
v 1.2 3.3 -1.4
v 1.2 3.3 -1.5
v 1.2 3.4 -1.4
v 1.2 3.4 -1.5
v 1.2 3.9 -1.4
v 1.2 3.9 -1.5
v 1.2 4 -1.4
v 1.2 4 -1.5
v 1.3 2 -1.5
v 1.3 2 -1.6
v 1.3 2.1 -1.5
v 1.3 2.1 -1.6
v 1.3 3.2 -1.4
v 1.3 3.2 -1.5
v 1.3 3.3 -1.4
v 1.3 3.3 -1.5
v 1.3 4 -1.4
v 1.3 4 -1.5
v 1.3 4.2 -1.4
v 1.3 4.2 -1.5
v 1.4 3.1 -1.4
v 1.4 3.1 -1.5
v 1.4 3.2 -1.4
v 1.4 3.2 -1.5
v 1.4 4.2 -1.4
v 1.4 4.2 -1.5
v 1.4 4.3 -1.4
v 1.4 4.3 -1.5
v 2 2.3 -1.5
v 2 2.3 -1.6
v 2 3.3 -1.5
v 2 3.6 -1.5
v 2 3.6 -1.6
v 2.3 2.3 -1.5
v 2.3 2.3 -1.6
v 2.3 2.4 -1.5
v 2.3 2.4 -1.6
v 2.4 2.4 -1.5
v 2.4 2.4 -1.6
v 2.4 2.5 -1.5
v 2.4 2.5 -1.6
v 2.5 2.5 -1.5
v 2.5 2.5 -1.6
v 2.5 2.6 -1.5
v 2.5 2.6 -1.6
v 2.6 2.6 -1.5
v 2.6 2.6 -1.6
v 2.6 2.7 -1.5
v 2.6 2.7 -1.6
v 2.7 2.7 -1.5
v 2.7 2.7 -1.6
v 2.7 2.8 -1.5
v 2.7 2.8 -1.6
v 1.5 2.7 -1.5
v 1.5 2.7 -1.6
v 1.5 2.8 -1.5
v 1.5 2.8 -1.6
v 1.6 2.6 -1.5
v 1.6 2.6 -1.6
v 1.6 2.7 -1.5
v 1.6 2.7 -1.6
v 1.7 2.5 -1.5
v 1.7 2.5 -1.6
v 1.7 2.6 -1.5
v 1.7 2.6 -1.6
v 1.8 2.4 -1.5
v 1.8 2.4 -1.6
v 1.8 2.5 -1.5
v 1.8 2.5 -1.6
v 1.8 3.1 -1.4
v 1.8 3.1 -1.5
v 1.8 3.2 -1.4
v 1.8 3.2 -1.5
v 1.8 4.2 -1.4
v 1.8 4.2 -1.5
v 1.8 4.3 -1.4
v 1.8 4.3 -1.5
v 1.9 2.3 -1.5
v 1.9 2.3 -1.6
v 1.9 2.4 -1.5
v 1.9 2.4 -1.6
v 1.9 3.2 -1.4
v 1.9 3.2 -1.5
v 1.9 3.3 -1.4
v 1.9 3.3 -1.5
v 1.9 4 -1.4
v 1.9 4 -1.5
v 1.9 4.2 -1.4
v 1.9 4.2 -1.5
v 2 3.3 -1.4
v 2 3.3 -1.5
v 2 3.4 -1.4
v 2 3.4 -1.5
v 2 3.9 -1.4
v 2 3.9 -1.5
v 2 4 -1.4
v 2 4 -1.5
v 2.1 3.4 -1.4
v 2.1 3.4 -1.5
v 2.1 3.5 -1.4
v 2.1 3.5 -1.5
v 2.1 3.8 -1.4
v 2.1 3.8 -1.5
v 2.1 3.9 -1.4
v 2.1 3.9 -1.5
v 2.2 2.3 -1.5
v 2.2 2.3 -1.6
v 2.2 3.5 -1.4
v 2.2 3.5 -1.5
v 2.2 3.6 -1.5
v 2.2 3.6 -1.6
v 2.2 3.8 -1.4
v 2.2 3.8 -1.5
v 2.9 2 -1.5
v 2.9 2 -1.6
v 2.9 2.1 -1.5
v 2.9 2.1 -1.6
v 3 2.1 -1.5
v 3 2.1 -1.6
v 3 2.2 -1.5
v 3 2.2 -1.6
v 3 2.7 -1.5
v 3 2.7 -1.6
v 3 2.8 -1.5
v 3 2.8 -1.6
v 3.1 2.2 -1.5
v 3.1 2.2 -1.6
v 3.1 2.3 -1.5
v 3.1 2.3 -1.6
v 3.1 2.6 -1.5
v 3.1 2.6 -1.6
v 3.1 2.7 -1.5
v 3.1 2.7 -1.6
v 3.2 2.3 -1.5
v 3.2 2.3 -1.6
v 3.2 2.6 -1.5
v 3.2 2.6 -1.6
v 1 3.5 -1.4
v 1 3.8 -1.4
v 1.1 3.4 -1.4
v 1.1 3.5 -1.4
v 1.1 3.8 -1.4
v 1.1 3.9 -1.4
v 1.2 3.3 -1.4
v 1.2 3.4 -1.4
v 1.2 3.9 -1.4
v 1.2 4 -1.4
v 1.3 3.2 -1.4
v 1.3 3.3 -1.4
v 1.3 3.6 -1.4
v 1.3 3.8 -1.4
v 1.3 4 -1.4
v 1.3 4.2 -1.4
v 1.4 3.1 -1.4
v 1.4 3.2 -1.4
v 1.4 3.5 -1.4
v 1.4 3.6 -1.4
v 1.4 3.8 -1.4
v 1.4 3.9 -1.4
v 1.4 4.2 -1.4
v 1.4 4.3 -1.4
v 1.8 3.1 -1.4
v 1.8 3.2 -1.4
v 1.8 3.5 -1.4
v 1.8 3.6 -1.4
v 1.8 3.8 -1.4
v 1.8 3.9 -1.4
v 1.8 4.2 -1.4
v 1.8 4.3 -1.4
v 1.9 3.2 -1.4
v 1.9 3.3 -1.4
v 1.9 3.6 -1.4
v 1.9 3.8 -1.4
v 1.9 4 -1.4
v 1.9 4.2 -1.4
v 2 3.3 -1.4
v 2 3.4 -1.4
v 2 3.9 -1.4
v 2 4 -1.4
v 2.1 3.4 -1.4
v 2.1 3.5 -1.4
v 2.1 3.8 -1.4
v 2.1 3.9 -1.4
v 2.2 3.5 -1.4
v 2.2 3.8 -1.4
v 1 2.3 -1.5
v 1 2.6 -1.5
v 1.1 2.2 -1.5
v 1.1 2.3 -1.5
v 1.1 2.6 -1.5
v 1.1 2.7 -1.5
v 1.2 2.1 -1.5
v 1.2 2.2 -1.5
v 1.2 2.6 -1.5
v 1.2 2.7 -1.5
v 1.2 2.8 -1.5
v 1.3 2 -1.5
v 1.3 2.1 -1.5
v 1.3 2.5 -1.5
v 1.3 2.6 -1.5
v 1.3 2.7 -1.5
v 1.4 2.4 -1.5
v 1.4 2.5 -1.5
v 1.4 2.6 -1.5
v 1.5 2.3 -1.5
v 1.5 2.4 -1.5
v 1.5 2.5 -1.5
v 1.5 2.7 -1.5
v 1.5 2.8 -1.5
v 1.6 2.2 -1.5
v 1.6 2.3 -1.5
v 1.6 2.4 -1.5
v 1.6 2.6 -1.5
v 1.6 2.7 -1.5
v 1.7 2.1 -1.5
v 1.7 2.2 -1.5
v 1.7 2.3 -1.5
v 1.7 2.5 -1.5
v 1.7 2.6 -1.5
v 1.8 2.1 -1.5
v 1.8 2.2 -1.5
v 1.8 2.4 -1.5
v 1.8 2.5 -1.5
v 1.9 2.3 -1.5
v 1.9 2.4 -1.5
v 2 2.3 -1.5
v 2 3.3 -1.5
v 2 3.4 -1.5
v 2.1 3.4 -1.5
v 2.1 3.5 -1.5
v 2.2 2.3 -1.5
v 2.2 3.5 -1.5
v 2.3 2.3 -1.5
v 2.3 2.4 -1.5
v 2.4 2.1 -1.5
v 2.4 2.2 -1.5
v 2.4 2.4 -1.5
v 2.4 2.5 -1.5
v 2.5 2.1 -1.5
v 2.5 2.2 -1.5
v 2.5 2.3 -1.5
v 2.5 2.5 -1.5
v 2.5 2.6 -1.5
v 2.6 2.2 -1.5
v 2.6 2.3 -1.5
v 2.6 2.4 -1.5
v 2.6 2.6 -1.5
v 2.6 2.7 -1.5
v 2.7 2.3 -1.5
v 2.7 2.4 -1.5
v 2.7 2.5 -1.5
v 2.7 2.7 -1.5
v 2.7 2.8 -1.5
v 2.8 2.4 -1.5
v 2.8 2.5 -1.5
v 2.8 2.6 -1.5
v 2.9 2 -1.5
v 2.9 2.1 -1.5
v 2.9 2.5 -1.5
v 2.9 2.6 -1.5
v 2.9 2.7 -1.5
v 3 2.1 -1.5
v 3 2.2 -1.5
v 3 2.6 -1.5
v 3 2.7 -1.5
v 3 2.8 -1.5
v 3.1 2.2 -1.5
v 3.1 2.3 -1.5
v 3.1 2.6 -1.5
v 3.1 2.7 -1.5
v 3.2 2.3 -1.5
v 3.2 2.6 -1.5
v 1 3.5 -1.5
v 1 3.8 -1.5
v 1.1 3.4 -1.5
v 1.1 3.5 -1.5
v 1.1 3.8 -1.5
v 1.1 3.9 -1.5
v 1.2 3.3 -1.5
v 1.2 3.4 -1.5
v 1.2 3.9 -1.5
v 1.2 4 -1.5
v 1.3 3.2 -1.5
v 1.3 3.3 -1.5
v 1.3 3.6 -1.5
v 1.3 3.8 -1.5
v 1.3 4 -1.5
v 1.3 4.2 -1.5
v 1.4 3.1 -1.5
v 1.4 3.2 -1.5
v 1.4 3.5 -1.5
v 1.4 3.6 -1.5
v 1.4 3.8 -1.5
v 1.4 3.9 -1.5
v 1.4 4.2 -1.5
v 1.4 4.3 -1.5
v 1.8 3.1 -1.5
v 1.8 3.2 -1.5
v 1.8 3.5 -1.5
v 1.8 3.6 -1.5
v 1.8 3.8 -1.5
v 1.8 3.9 -1.5
v 1.8 4.2 -1.5
v 1.8 4.3 -1.5
v 1.9 3.2 -1.5
v 1.9 3.3 -1.5
v 1.9 3.6 -1.5
v 1.9 3.8 -1.5
v 1.9 4 -1.5
v 1.9 4.2 -1.5
v 2 3.3 -1.5
v 2 3.6 -1.5
v 2 3.9 -1.5
v 2 4 -1.5
v 2.1 3.8 -1.5
v 2.1 3.9 -1.5
v 2.2 3.6 -1.5
v 2.2 3.8 -1.5
v 1 2.3 -1.6
v 1 2.6 -1.6
v 1.1 2.2 -1.6
v 1.1 2.3 -1.6
v 1.1 2.6 -1.6
v 1.1 2.7 -1.6
v 1.2 2.1 -1.6
v 1.2 2.2 -1.6
v 1.2 2.6 -1.6
v 1.2 2.7 -1.6
v 1.2 2.8 -1.6
v 1.3 2 -1.6
v 1.3 2.1 -1.6
v 1.3 2.5 -1.6
v 1.3 2.6 -1.6
v 1.3 2.7 -1.6
v 1.4 2.4 -1.6
v 1.4 2.5 -1.6
v 1.4 2.6 -1.6
v 1.5 2.3 -1.6
v 1.5 2.4 -1.6
v 1.5 2.5 -1.6
v 1.5 2.7 -1.6
v 1.5 2.8 -1.6
v 1.6 2.2 -1.6
v 1.6 2.3 -1.6
v 1.6 2.4 -1.6
v 1.6 2.6 -1.6
v 1.6 2.7 -1.6
v 1.7 2.1 -1.6
v 1.7 2.2 -1.6
v 1.7 2.3 -1.6
v 1.7 2.5 -1.6
v 1.7 2.6 -1.6
v 1.8 2.1 -1.6
v 1.8 2.2 -1.6
v 1.8 2.4 -1.6
v 1.8 2.5 -1.6
v 1.9 2.3 -1.6
v 1.9 2.4 -1.6
v 2 2.3 -1.6
v 2 3.6 -1.6
v 2.2 2.3 -1.6
v 2.2 3.6 -1.6
v 2.3 2.3 -1.6
v 2.3 2.4 -1.6
v 2.4 2.1 -1.6
v 2.4 2.2 -1.6
v 2.4 2.4 -1.6
v 2.4 2.5 -1.6
v 2.5 2.1 -1.6
v 2.5 2.2 -1.6
v 2.5 2.3 -1.6
v 2.5 2.5 -1.6
v 2.5 2.6 -1.6
v 2.6 2.2 -1.6
v 2.6 2.3 -1.6
v 2.6 2.4 -1.6
v 2.6 2.6 -1.6
v 2.6 2.7 -1.6
v 2.7 2.3 -1.6
v 2.7 2.4 -1.6
v 2.7 2.5 -1.6
v 2.7 2.7 -1.6
v 2.7 2.8 -1.6
v 2.8 2.4 -1.6
v 2.8 2.5 -1.6
v 2.8 2.6 -1.6
v 2.9 2 -1.6
v 2.9 2.1 -1.6
v 2.9 2.5 -1.6
v 2.9 2.6 -1.6
v 2.9 2.7 -1.6
v 3 2.1 -1.6
v 3 2.2 -1.6
v 3 2.6 -1.6
v 3 2.7 -1.6
v 3 2.8 -1.6
v 3.1 2.2 -1.6
v 3.1 2.3 -1.6
v 3.1 2.6 -1.6
v 3.1 2.7 -1.6
v 3.2 2.3 -1.6
v 3.2 2.6 -1.6
v 1.3 2 -1.5
v 2.9 2 -1.5
v 1.3 2 -1.6
v 2.9 2 -1.6
v 1.2 2.1 -1.5
v 1.3 2.1 -1.5
v 2.9 2.1 -1.5
v 3 2.1 -1.5
v 1.2 2.1 -1.6
v 1.3 2.1 -1.6
v 2.9 2.1 -1.6
v 3 2.1 -1.6
v 1.1 2.2 -1.5
v 1.2 2.2 -1.5
v 3 2.2 -1.5
v 3.1 2.2 -1.5
v 1.1 2.2 -1.6
v 1.2 2.2 -1.6
v 3 2.2 -1.6
v 3.1 2.2 -1.6
v 1 2.3 -1.5
v 1.1 2.3 -1.5
v 3.1 2.3 -1.5
v 3.2 2.3 -1.5
v 1 2.3 -1.6
v 1.1 2.3 -1.6
v 3.1 2.3 -1.6
v 3.2 2.3 -1.6
v 1.4 3.1 -1.4
v 1.8 3.1 -1.4
v 1.4 3.1 -1.5
v 1.8 3.1 -1.5
v 1.3 3.2 -1.4
v 1.4 3.2 -1.4
v 1.8 3.2 -1.4
v 1.9 3.2 -1.4
v 1.3 3.2 -1.5
v 1.4 3.2 -1.5
v 1.8 3.2 -1.5
v 1.9 3.2 -1.5
v 1.2 3.3 -1.4
v 1.3 3.3 -1.4
v 1.9 3.3 -1.4
v 2 3.3 -1.4
v 1.2 3.3 -1.5
v 1.3 3.3 -1.5
v 1.9 3.3 -1.5
v 2 3.3 -1.5
v 1.1 3.4 -1.4
v 1.2 3.4 -1.4
v 2 3.4 -1.4
v 2.1 3.4 -1.4
v 1.1 3.4 -1.5
v 1.2 3.4 -1.5
v 2 3.4 -1.5
v 2.1 3.4 -1.5
v 1 3.5 -1.4
v 1.1 3.5 -1.4
v 2.1 3.5 -1.4
v 2.2 3.5 -1.4
v 1 3.5 -1.5
v 1.1 3.5 -1.5
v 2.1 3.5 -1.5
v 2.2 3.5 -1.5
v 1.9 2.3 -1.5
v 2 2.3 -1.5
v 2.2 2.3 -1.5
v 2.3 2.3 -1.5
v 1.9 2.3 -1.6
v 2 2.3 -1.6
v 2.2 2.3 -1.6
v 2.3 2.3 -1.6
v 1.8 2.4 -1.5
v 1.9 2.4 -1.5
v 2.3 2.4 -1.5
v 2.4 2.4 -1.5
v 1.8 2.4 -1.6
v 1.9 2.4 -1.6
v 2.3 2.4 -1.6
v 2.4 2.4 -1.6
v 1.7 2.5 -1.5
v 1.8 2.5 -1.5
v 2.4 2.5 -1.5
v 2.5 2.5 -1.5
v 1.7 2.5 -1.6
v 1.8 2.5 -1.6
v 2.4 2.5 -1.6
v 2.5 2.5 -1.6
v 1 2.6 -1.5
v 1.1 2.6 -1.5
v 1.6 2.6 -1.5
v 1.7 2.6 -1.5
v 2.5 2.6 -1.5
v 2.6 2.6 -1.5
v 3.1 2.6 -1.5
v 3.2 2.6 -1.5
v 1 2.6 -1.6
v 1.1 2.6 -1.6
v 1.6 2.6 -1.6
v 1.7 2.6 -1.6
v 2.5 2.6 -1.6
v 2.6 2.6 -1.6
v 3.1 2.6 -1.6
v 3.2 2.6 -1.6
v 1.1 2.7 -1.5
v 1.2 2.7 -1.5
v 1.5 2.7 -1.5
v 1.6 2.7 -1.5
v 2.6 2.7 -1.5
v 2.7 2.7 -1.5
v 3 2.7 -1.5
v 3.1 2.7 -1.5
v 1.1 2.7 -1.6
v 1.2 2.7 -1.6
v 1.5 2.7 -1.6
v 1.6 2.7 -1.6
v 2.6 2.7 -1.6
v 2.7 2.7 -1.6
v 3 2.7 -1.6
v 3.1 2.7 -1.6
v 1.2 2.8 -1.5
v 1.5 2.8 -1.5
v 2.7 2.8 -1.5
v 3 2.8 -1.5
v 1.2 2.8 -1.6
v 1.5 2.8 -1.6
v 2.7 2.8 -1.6
v 3 2.8 -1.6
v 2 3.6 -1.5
v 2.2 3.6 -1.5
v 2 3.6 -1.6
v 2.2 3.6 -1.6
v 1 3.8 -1.4
v 1.1 3.8 -1.4
v 2.1 3.8 -1.4
v 2.2 3.8 -1.4
v 1 3.8 -1.5
v 1.1 3.8 -1.5
v 2.1 3.8 -1.5
v 2.2 3.8 -1.5
v 1.1 3.9 -1.4
v 1.2 3.9 -1.4
v 2 3.9 -1.4
v 2.1 3.9 -1.4
v 1.1 3.9 -1.5
v 1.2 3.9 -1.5
v 2 3.9 -1.5
v 2.1 3.9 -1.5
v 1.2 4 -1.4
v 1.3 4 -1.4
v 1.9 4 -1.4
v 2 4 -1.4
v 1.2 4 -1.5
v 1.3 4 -1.5
v 1.9 4 -1.5
v 2 4 -1.5
v 1.3 4.2 -1.4
v 1.4 4.2 -1.4
v 1.8 4.2 -1.4
v 1.9 4.2 -1.4
v 1.3 4.2 -1.5
v 1.4 4.2 -1.5
v 1.8 4.2 -1.5
v 1.9 4.2 -1.5
v 1.4 4.3 -1.4
v 1.8 4.3 -1.4
v 1.4 4.3 -1.5
v 1.8 4.3 -1.5

# faces
f 3/3/1 2/3/1 1/3/1
f 4/3/1 2/3/1 3/3/1
f 7/2/1 6/2/1 5/2/1
f 8/2/1 6/2/1 7/2/1
f 11/3/1 10/3/1 9/3/1
f 12/3/1 10/3/1 11/3/1
f 15/3/1 14/3/1 13/3/1
f 16/3/1 14/3/1 15/3/1
f 19/2/1 18/2/1 17/2/1
f 20/2/1 18/2/1 19/2/1
f 23/2/1 22/2/1 21/2/1
f 24/2/1 22/2/1 23/2/1
f 27/3/1 26/3/1 25/3/1
f 28/3/1 26/3/1 27/3/1
f 31/3/1 30/3/1 29/3/1
f 32/3/1 30/3/1 31/3/1
f 35/2/1 34/2/1 33/2/1
f 36/2/1 34/2/1 35/2/1
f 39/2/1 38/2/1 37/2/1
f 40/2/1 38/2/1 39/2/1
f 43/3/1 42/3/1 41/3/1
f 44/3/1 42/3/1 43/3/1
f 47/2/1 46/2/1 45/2/1
f 48/2/1 46/2/1 47/2/1
f 51/2/1 50/2/1 49/2/1
f 52/2/1 50/2/1 51/2/1
f 55/2/1 54/2/1 53/2/1
f 56/2/1 54/2/1 55/2/1
f 59/2/1 58/2/1 57/2/1
f 60/2/1 58/2/1 59/2/1
f 63/4/1 62/4/1 61/4/1
f 64/4/1 62/4/1 63/4/1
f 65/4/1 62/4/1 64/4/1
f 68/3/1 67/3/1 66/3/1
f 69/3/1 67/3/1 68/3/1
f 72/3/1 71/3/1 70/3/1
f 73/3/1 71/3/1 72/3/1
f 76/3/1 75/3/1 74/3/1
f 77/3/1 75/3/1 76/3/1
f 80/3/1 79/3/1 78/3/1
f 81/3/1 79/3/1 80/3/1
f 84/3/1 83/3/1 82/3/1
f 85/3/1 83/3/1 84/3/1
f 86/3/2 87/3/2 88/3/2
f 88/3/2 87/3/2 89/3/2
f 90/3/2 91/3/2 92/3/2
f 92/3/2 91/3/2 93/3/2
f 94/3/2 95/3/2 96/3/2
f 96/3/2 95/3/2 97/3/2
f 98/3/2 99/3/2 100/3/2
f 100/3/2 99/3/2 101/3/2
f 102/2/2 103/2/2 104/2/2
f 104/2/2 103/2/2 105/2/2
f 106/2/2 107/2/2 108/2/2
f 108/2/2 107/2/2 109/2/2
f 110/3/2 111/3/2 112/3/2
f 112/3/2 111/3/2 113/3/2
f 114/2/2 115/2/2 116/2/2
f 116/2/2 115/2/2 117/2/2
f 118/2/2 119/2/2 120/2/2
f 120/2/2 119/2/2 121/2/2
f 122/2/2 123/2/2 124/2/2
f 124/2/2 123/2/2 125/2/2
f 126/2/2 127/2/2 128/2/2
f 128/2/2 127/2/2 129/2/2
f 130/2/2 131/2/2 132/2/2
f 132/2/2 131/2/2 133/2/2
f 134/2/2 135/2/2 136/2/2
f 136/2/2 135/2/2 137/2/2
f 138/4/2 139/4/2 141/4/2
f 141/4/2 139/4/2 142/4/2
f 140/2/2 141/2/2 142/2/2
f 142/4/2 139/4/2 143/4/2
f 140/2/2 142/2/2 144/2/2
f 144/2/2 142/2/2 145/2/2
f 146/3/2 147/3/2 148/3/2
f 148/3/2 147/3/2 149/3/2
f 150/3/2 151/3/2 152/3/2
f 152/3/2 151/3/2 153/3/2
f 154/3/2 155/3/2 156/3/2
f 156/3/2 155/3/2 157/3/2
f 158/3/2 159/3/2 160/3/2
f 160/3/2 159/3/2 161/3/2
f 162/3/2 163/3/2 164/3/2
f 164/3/2 163/3/2 165/3/2
f 166/3/2 167/3/2 168/3/2
f 168/3/2 167/3/2 169/3/2
f 173/2/3 171/2/3 170/2/3
f 174/2/3 171/2/3 173/2/3
f 177/2/3 173/2/3 172/2/3
f 177/2/3 175/2/3 174/2/3
f 177/2/3 174/2/3 173/2/3
f 178/2/3 175/2/3 177/2/3
f 181/2/3 177/2/3 176/2/3
f 181/2/3 179/2/3 178/2/3
f 181/2/3 178/2/3 177/2/3
f 182/2/3 179/2/3 181/2/3
f 183/2/3 179/2/3 182/2/3
f 184/2/3 179/2/3 183/2/3
f 187/2/3 181/2/3 180/2/3
f 187/2/3 182/2/3 181/2/3
f 188/2/3 182/2/3 187/2/3
f 189/1/3 183/1/3 182/1/3
f 189/2/3 182/2/3 188/2/3
f 190/2/3 185/2/3 184/2/3
f 190/1/3 183/1/3 189/1/3
f 190/2/3 184/2/3 183/2/3
f 191/2/3 185/2/3 190/2/3
f 192/2/3 185/2/3 191/2/3
f 194/2/3 187/2/3 186/2/3
f 194/2/3 188/2/3 187/2/3
f 195/2/3 188/2/3 194/2/3
f 196/1/3 189/1/3 188/1/3
f 196/2/3 188/2/3 195/2/3
f 196/1/3 190/1/3 189/1/3
f 196/1/3 191/1/3 190/1/3
f 197/1/3 191/1/3 196/1/3
f 198/1/3 191/1/3 197/1/3
f 199/2/3 193/2/3 192/2/3
f 199/1/3 191/1/3 198/1/3
f 199/2/3 192/2/3 191/2/3
f 200/2/3 193/2/3 199/2/3
f 201/2/3 193/2/3 200/2/3
f 202/2/3 197/2/3 196/2/3
f 202/2/3 196/2/3 195/2/3
f 203/2/3 197/2/3 202/2/3
f 204/1/3 198/1/3 197/1/3
f 204/2/3 197/2/3 203/2/3
f 205/2/3 200/2/3 199/2/3
f 205/1/3 198/1/3 204/1/3
f 205/2/3 199/2/3 198/2/3
f 206/2/3 200/2/3 205/2/3
f 207/2/3 200/2/3 206/2/3
f 208/2/3 204/2/3 203/2/3
f 208/2/3 206/2/3 205/2/3
f 208/2/3 205/2/3 204/2/3
f 209/2/3 206/2/3 208/2/3
f 210/2/3 206/2/3 209/2/3
f 211/2/3 206/2/3 210/2/3
f 212/2/3 210/2/3 209/2/3
f 213/2/3 210/2/3 212/2/3
f 214/2/3 210/2/3 213/2/3
f 215/2/3 210/2/3 214/2/3
f 216/2/3 214/2/3 213/2/3
f 217/2/3 214/2/3 216/2/3
f 221/3/3 219/3/3 218/3/3
f 222/3/3 219/3/3 221/3/3
f 225/3/3 221/3/3 220/3/3
f 225/3/3 223/3/3 222/3/3
f 225/3/3 222/3/3 221/3/3
f 226/3/3 223/3/3 225/3/3
f 227/3/3 223/3/3 226/3/3
f 230/3/3 225/3/3 224/3/3
f 230/3/3 226/3/3 225/3/3
f 231/3/3 226/3/3 230/3/3
f 232/5/3 227/5/3 226/5/3
f 232/3/3 226/3/3 231/3/3
f 233/3/3 228/3/3 227/3/3
f 233/5/3 227/5/3 232/5/3
f 234/3/3 231/3/3 230/3/3
f 234/3/3 230/3/3 229/3/3
f 235/5/3 232/5/3 231/5/3
f 235/3/3 231/3/3 234/3/3
f 236/3/3 233/3/3 232/3/3
f 236/5/3 232/5/3 235/5/3
f 237/3/3 234/3/3 229/3/3
f 238/5/3 235/5/3 234/5/3
f 238/3/3 234/3/3 237/3/3
f 239/3/3 236/3/3 235/3/3
f 239/5/3 235/5/3 238/5/3
f 240/3/3 233/3/3 236/3/3
f 240/3/3 236/3/3 239/3/3
f 240/3/3 228/3/3 233/3/3
f 241/3/3 228/3/3 240/3/3
f 242/3/3 237/3/3 229/3/3
f 243/5/3 238/5/3 237/5/3
f 243/3/3 237/3/3 242/3/3
f 244/3/3 239/3/3 238/3/3
f 244/5/3 238/5/3 243/5/3
f 244/3/3 240/3/3 239/3/3
f 245/3/3 240/3/3 244/3/3
f 246/3/3 240/3/3 245/3/3
f 247/3/3 242/3/3 229/3/3
f 248/5/3 243/5/3 242/5/3
f 248/3/3 242/3/3 247/3/3
f 249/3/3 244/3/3 243/3/3
f 249/5/3 243/5/3 248/5/3
f 249/3/3 245/3/3 244/3/3
f 250/3/3 245/3/3 249/3/3
f 251/3/3 245/3/3 250/3/3
f 252/3/3 247/3/3 229/3/3
f 252/5/3 248/5/3 247/5/3
f 253/3/3 250/3/3 249/3/3
f 253/5/3 248/5/3 252/5/3
f 253/3/3 249/3/3 248/3/3
f 254/3/3 250/3/3 253/3/3
f 255/3/3 250/3/3 254/3/3
f 256/3/3 253/3/3 252/3/3
f 256/3/3 254/3/3 253/3/3
f 257/3/3 254/3/3 256/3/3
f 258/3/3 256/3/3 252/3/3
f 261/4/3 259/4/3 258/4/3
f 261/4/3 260/4/3 259/4/3
f 263/3/3 258/3/3 252/3/3
f 263/4/3 262/4/3 261/4/3
f 263/4/3 261/4/3 258/4/3
f 264/4/3 262/4/3 263/4/3
f 265/3/3 263/3/3 252/3/3
f 267/3/3 252/3/3 229/3/3
f 267/3/3 266/3/3 265/3/3
f 267/3/3 265/3/3 252/3/3
f 268/3/3 266/3/3 267/3/3
f 269/3/3 266/3/3 268/3/3
f 271/3/3 267/3/3 229/3/3
f 271/5/3 268/5/3 267/5/3
f 272/3/3 270/3/3 269/3/3
f 272/5/3 268/5/3 271/5/3
f 272/3/3 269/3/3 268/3/3
f 273/3/3 270/3/3 272/3/3
f 274/3/3 270/3/3 273/3/3
f 276/3/3 272/3/3 271/3/3
f 276/5/3 273/5/3 272/5/3
f 277/3/3 275/3/3 274/3/3
f 277/5/3 273/5/3 276/5/3
f 277/3/3 274/3/3 273/3/3
f 278/3/3 275/3/3 277/3/3
f 279/3/3 275/3/3 278/3/3
f 281/3/3 277/3/3 276/3/3
f 281/5/3 278/5/3 277/5/3
f 282/3/3 280/3/3 279/3/3
f 282/5/3 278/5/3 281/5/3
f 282/3/3 279/3/3 278/3/3
f 283/3/3 280/3/3 282/3/3
f 284/3/3 280/3/3 283/3/3
f 286/3/3 282/3/3 281/3/3
f 286/5/3 283/5/3 282/5/3
f 287/3/3 285/3/3 284/3/3
f 287/5/3 283/5/3 286/5/3
f 287/3/3 284/3/3 283/3/3
f 288/3/3 285/3/3 287/3/3
f 289/3/3 271/3/3 229/3/3
f 289/3/3 276/3/3 271/3/3
f 289/3/3 281/3/3 276/3/3
f 289/3/3 287/3/3 286/3/3
f 289/3/3 286/3/3 281/3/3
f 290/3/3 287/3/3 289/3/3
f 291/5/3 288/5/3 287/5/3
f 291/3/3 287/3/3 290/3/3
f 292/3/3 285/3/3 288/3/3
f 292/5/3 288/5/3 291/5/3
f 293/3/3 285/3/3 292/3/3
f 294/3/3 291/3/3 290/3/3
f 294/3/3 292/3/3 291/3/3
f 295/3/3 292/3/3 294/3/3
f 296/5/3 293/5/3 292/5/3
f 296/3/3 292/3/3 295/3/3
f 297/3/3 285/3/3 293/3/3
f 297/5/3 293/5/3 296/5/3
f 298/3/3 285/3/3 297/3/3
f 299/3/3 296/3/3 295/3/3
f 299/3/3 297/3/3 296/3/3
f 300/3/3 297/3/3 299/3/3
f 301/3/3 297/3/3 300/3/3
f 302/3/3 297/3/3 301/3/3
f 303/3/3 301/3/3 300/3/3
f 304/3/3 301/3/3 303/3/3
f 305/2/4 306/2/4 308/2/4
f 308/2/4 306/2/4 309/2/4
f 307/2/4 308/2/4 312/2/4
f 309/2/4 310/2/4 312/2/4
f 308/2/4 309/2/4 312/2/4
f 312/2/4 310/2/4 313/2/4
f 311/2/4 312/2/4 316/2/4
f 313/2/4 314/2/4 316/2/4
f 312/2/4 313/2/4 316/2/4
f 316/2/4 314/2/4 317/2/4
f 317/2/4 314/2/4 318/2/4
f 318/2/4 314/2/4 319/2/4
f 315/2/4 316/2/4 322/2/4
f 316/2/4 317/2/4 322/2/4
f 322/2/4 317/2/4 323/2/4
f 317/1/4 318/1/4 324/1/4
f 323/2/4 317/2/4 324/2/4
f 319/2/4 320/2/4 325/2/4
f 324/1/4 318/1/4 325/1/4
f 318/2/4 319/2/4 325/2/4
f 325/2/4 320/2/4 326/2/4
f 326/2/4 320/2/4 327/2/4
f 321/2/4 322/2/4 329/2/4
f 322/2/4 323/2/4 329/2/4
f 329/2/4 323/2/4 330/2/4
f 323/1/4 324/1/4 331/1/4
f 330/2/4 323/2/4 331/2/4
f 324/1/4 325/1/4 331/1/4
f 325/1/4 326/1/4 331/1/4
f 331/1/4 326/1/4 332/1/4
f 332/1/4 326/1/4 333/1/4
f 327/2/4 328/2/4 334/2/4
f 333/1/4 326/1/4 334/1/4
f 326/2/4 327/2/4 334/2/4
f 334/2/4 328/2/4 335/2/4
f 335/2/4 328/2/4 336/2/4
f 331/2/4 332/2/4 337/2/4
f 330/2/4 331/2/4 337/2/4
f 337/2/4 332/2/4 338/2/4
f 332/1/4 333/1/4 339/1/4
f 338/2/4 332/2/4 339/2/4
f 334/2/4 335/2/4 340/2/4
f 339/1/4 333/1/4 340/1/4
f 333/2/4 334/2/4 340/2/4
f 340/2/4 335/2/4 341/2/4
f 341/2/4 335/2/4 342/2/4
f 338/2/4 339/2/4 343/2/4
f 340/2/4 341/2/4 343/2/4
f 339/2/4 340/2/4 343/2/4
f 343/2/4 341/2/4 344/2/4
f 344/2/4 341/2/4 345/2/4
f 345/2/4 341/2/4 346/2/4
f 344/2/4 345/2/4 347/2/4
f 347/2/4 345/2/4 348/2/4
f 344/2/4 347/2/4 349/2/4
f 349/2/4 347/2/4 350/2/4
f 351/3/4 352/3/4 354/3/4
f 354/3/4 352/3/4 355/3/4
f 353/3/4 354/3/4 358/3/4
f 355/3/4 356/3/4 358/3/4
f 354/3/4 355/3/4 358/3/4
f 358/3/4 356/3/4 359/3/4
f 359/3/4 356/3/4 360/3/4
f 357/3/4 358/3/4 363/3/4
f 358/3/4 359/3/4 363/3/4
f 363/3/4 359/3/4 364/3/4
f 359/5/4 360/5/4 365/5/4
f 364/3/4 359/3/4 365/3/4
f 360/3/4 361/3/4 366/3/4
f 365/5/4 360/5/4 366/5/4
f 363/3/4 364/3/4 367/3/4
f 362/3/4 363/3/4 367/3/4
f 364/5/4 365/5/4 368/5/4
f 367/3/4 364/3/4 368/3/4
f 365/3/4 366/3/4 369/3/4
f 368/5/4 365/5/4 369/5/4
f 362/3/4 367/3/4 370/3/4
f 367/5/4 368/5/4 371/5/4
f 370/3/4 367/3/4 371/3/4
f 368/3/4 369/3/4 372/3/4
f 371/5/4 368/5/4 372/5/4
f 369/3/4 366/3/4 373/3/4
f 372/3/4 369/3/4 373/3/4
f 366/3/4 361/3/4 373/3/4
f 373/3/4 361/3/4 374/3/4
f 362/3/4 370/3/4 375/3/4
f 370/5/4 371/5/4 376/5/4
f 375/3/4 370/3/4 376/3/4
f 371/3/4 372/3/4 377/3/4
f 376/5/4 371/5/4 377/5/4
f 372/3/4 373/3/4 377/3/4
f 377/3/4 373/3/4 378/3/4
f 378/3/4 373/3/4 379/3/4
f 362/3/4 375/3/4 380/3/4
f 375/5/4 376/5/4 381/5/4
f 380/3/4 375/3/4 381/3/4
f 376/3/4 377/3/4 382/3/4
f 381/5/4 376/5/4 382/5/4
f 377/3/4 378/3/4 382/3/4
f 382/3/4 378/3/4 383/3/4
f 383/3/4 378/3/4 384/3/4
f 362/3/4 380/3/4 385/3/4
f 380/5/4 381/5/4 385/5/4
f 382/3/4 383/3/4 386/3/4
f 385/5/4 381/5/4 386/5/4
f 381/3/4 382/3/4 386/3/4
f 386/3/4 383/3/4 387/3/4
f 387/3/4 383/3/4 388/3/4
f 385/3/4 386/3/4 389/3/4
f 386/3/4 387/3/4 389/3/4
f 389/3/4 387/3/4 390/3/4
f 385/3/4 389/3/4 391/3/4
f 385/3/4 391/3/4 393/3/4
f 391/4/4 392/4/4 393/4/4
f 393/4/4 392/4/4 394/4/4
f 385/3/4 393/3/4 395/3/4
f 362/3/4 385/3/4 397/3/4
f 395/3/4 396/3/4 397/3/4
f 385/3/4 395/3/4 397/3/4
f 397/3/4 396/3/4 398/3/4
f 398/3/4 396/3/4 399/3/4
f 362/3/4 397/3/4 401/3/4
f 397/5/4 398/5/4 401/5/4
f 399/3/4 400/3/4 402/3/4
f 401/5/4 398/5/4 402/5/4
f 398/3/4 399/3/4 402/3/4
f 402/3/4 400/3/4 403/3/4
f 403/3/4 400/3/4 404/3/4
f 401/3/4 402/3/4 406/3/4
f 402/5/4 403/5/4 406/5/4
f 404/3/4 405/3/4 407/3/4
f 406/5/4 403/5/4 407/5/4
f 403/3/4 404/3/4 407/3/4
f 407/3/4 405/3/4 408/3/4
f 408/3/4 405/3/4 409/3/4
f 406/3/4 407/3/4 411/3/4
f 407/5/4 408/5/4 411/5/4
f 409/3/4 410/3/4 412/3/4
f 411/5/4 408/5/4 412/5/4
f 408/3/4 409/3/4 412/3/4
f 412/3/4 410/3/4 413/3/4
f 413/3/4 410/3/4 414/3/4
f 411/3/4 412/3/4 416/3/4
f 412/5/4 413/5/4 416/5/4
f 414/3/4 415/3/4 417/3/4
f 416/5/4 413/5/4 417/5/4
f 413/3/4 414/3/4 417/3/4
f 417/3/4 415/3/4 418/3/4
f 362/3/4 401/3/4 419/3/4
f 401/3/4 406/3/4 419/3/4
f 406/3/4 411/3/4 419/3/4
f 416/3/4 417/3/4 419/3/4
f 411/3/4 416/3/4 419/3/4
f 419/3/4 417/3/4 420/3/4
f 417/5/4 418/5/4 421/5/4
f 420/3/4 417/3/4 421/3/4
f 418/3/4 415/3/4 422/3/4
f 421/5/4 418/5/4 422/5/4
f 422/3/4 415/3/4 423/3/4
f 420/3/4 421/3/4 424/3/4
f 421/3/4 422/3/4 424/3/4
f 424/3/4 422/3/4 425/3/4
f 422/5/4 423/5/4 426/5/4
f 425/3/4 422/3/4 426/3/4
f 423/3/4 415/3/4 427/3/4
f 426/5/4 423/5/4 427/5/4
f 427/3/4 415/3/4 428/3/4
f 425/3/4 426/3/4 429/3/4
f 426/3/4 427/3/4 429/3/4
f 429/3/4 427/3/4 430/3/4
f 430/3/4 427/3/4 431/3/4
f 431/3/4 427/3/4 432/3/4
f 430/3/4 431/3/4 433/3/4
f 433/3/4 431/3/4 434/3/4
f 437/3/5 436/3/5 435/3/5
f 438/3/5 436/3/5 437/3/5
f 443/3/5 440/3/5 439/3/5
f 444/3/5 440/3/5 443/3/5
f 445/3/5 442/3/5 441/3/5
f 446/3/5 442/3/5 445/3/5
f 451/3/5 448/3/5 447/3/5
f 452/3/5 448/3/5 451/3/5
f 453/3/5 450/3/5 449/3/5
f 454/3/5 450/3/5 453/3/5
f 459/3/5 456/3/5 455/3/5
f 460/3/5 456/3/5 459/3/5
f 461/3/5 458/3/5 457/3/5
f 462/3/5 458/3/5 461/3/5
f 465/2/5 464/2/5 463/2/5
f 466/2/5 464/2/5 465/2/5
f 471/2/5 468/2/5 467/2/5
f 472/2/5 468/2/5 471/2/5
f 473/2/5 470/2/5 469/2/5
f 474/2/5 470/2/5 473/2/5
f 479/2/5 476/2/5 475/2/5
f 480/2/5 476/2/5 479/2/5
f 481/2/5 478/2/5 477/2/5
f 482/2/5 478/2/5 481/2/5
f 487/2/5 484/2/5 483/2/5
f 488/2/5 484/2/5 487/2/5
f 489/2/5 486/2/5 485/2/5
f 490/2/5 486/2/5 489/2/5
f 495/2/5 492/2/5 491/2/5
f 496/2/5 492/2/5 495/2/5
f 497/2/5 494/2/5 493/2/5
f 498/2/5 494/2/5 497/2/5
f 499/3/6 500/3/6 503/3/6
f 503/3/6 500/3/6 504/3/6
f 501/3/6 502/3/6 505/3/6
f 505/3/6 502/3/6 506/3/6
f 507/3/6 508/3/6 511/3/6
f 511/3/6 508/3/6 512/3/6
f 509/3/6 510/3/6 513/3/6
f 513/3/6 510/3/6 514/3/6
f 515/3/6 516/3/6 519/3/6
f 519/3/6 516/3/6 520/3/6
f 517/3/6 518/3/6 521/3/6
f 521/3/6 518/3/6 522/3/6
f 523/3/6 524/3/6 531/3/6
f 531/3/6 524/3/6 532/3/6
f 525/3/6 526/3/6 533/3/6
f 533/3/6 526/3/6 534/3/6
f 527/3/6 528/3/6 535/3/6
f 535/3/6 528/3/6 536/3/6
f 529/3/6 530/3/6 537/3/6
f 537/3/6 530/3/6 538/3/6
f 539/3/6 540/3/6 547/3/6
f 547/3/6 540/3/6 548/3/6
f 541/3/6 542/3/6 549/3/6
f 549/3/6 542/3/6 550/3/6
f 543/3/6 544/3/6 551/3/6
f 551/3/6 544/3/6 552/3/6
f 545/3/6 546/3/6 553/3/6
f 553/3/6 546/3/6 554/3/6
f 555/3/6 556/3/6 559/3/6
f 559/3/6 556/3/6 560/3/6
f 557/3/6 558/3/6 561/3/6
f 561/3/6 558/3/6 562/3/6
f 563/4/6 564/4/6 565/4/6
f 565/4/6 564/4/6 566/4/6
f 567/2/6 568/2/6 571/2/6
f 571/2/6 568/2/6 572/2/6
f 569/2/6 570/2/6 573/2/6
f 573/2/6 570/2/6 574/2/6
f 575/2/6 576/2/6 579/2/6
f 579/2/6 576/2/6 580/2/6
f 577/2/6 578/2/6 581/2/6
f 581/2/6 578/2/6 582/2/6
f 583/2/6 584/2/6 587/2/6
f 587/2/6 584/2/6 588/2/6
f 585/2/6 586/2/6 589/2/6
f 589/2/6 586/2/6 590/2/6
f 591/2/6 592/2/6 595/2/6
f 595/2/6 592/2/6 596/2/6
f 593/2/6 594/2/6 597/2/6
f 597/2/6 594/2/6 598/2/6
f 599/2/6 600/2/6 601/2/6
f 601/2/6 600/2/6 602/2/6
