# MagicaVoxel @ Ephtracy

# group
o 

# material
mtllib ki.mtl
usemtl palette

# normals
vn -1 0 0
vn 1 0 0
vn 0 0 1
vn 0 0 -1
vn 0 -1 0
vn 0 1 0

# texcoords
vt 0.537109 0.5
vt 0.896484 0.5

# verts
v 0 2.8 -0.1
v 0 2.8 -0.7
v 0 3 0
v 0 3 -0.1
v 0 3 -0.7
v 0 3 -0.8
v 0 3.3 0
v 0 3.3 -0.1
v 0 3.3 -0.7
v 0 3.3 -0.8
v 0 3.4 -0.1
v 0 3.4 -0.7
v 0.1 2 -0.3
v 0.1 2 -0.5
v 0.1 2.8 -0.3
v 0.1 2.8 -0.5
v 0.1 2.9 0
v 0.1 2.9 -0.1
v 0.1 2.9 -0.7
v 0.1 2.9 -0.8
v 0.1 3 0
v 0.1 3 -0.1
v 0.1 3 -0.7
v 0.1 3 -0.8
v 0.1 3.3 0
v 0.1 3.3 -0.1
v 0.1 3.3 -0.7
v 0.1 3.3 -0.8
v 0.1 3.4 0
v 0.1 3.4 -0.1
v 0.1 3.4 -0.7
v 0.1 3.4 -0.8
v 0.2 2.4 -0.1
v 0.2 2.4 -0.3
v 0.2 2.4 -0.5
v 0.2 2.4 -0.7
v 0.2 2.5 0
v 0.2 2.5 -0.1
v 0.2 2.5 -0.3
v 0.2 2.5 -0.5
v 0.2 2.5 -0.7
v 0.2 2.5 -0.8
v 0.2 2.6 0
v 0.2 2.6 -0.1
v 0.2 2.6 -0.7
v 0.2 2.6 -0.8
v 0.2 2.7 0
v 0.2 2.7 -0.1
v 0.2 2.7 -0.7
v 0.2 2.7 -0.8
v 0.3 2.4 -0.1
v 0.3 2.4 -0.3
v 0.3 2.4 -0.5
v 0.3 2.4 -0.7
v 0.3 2.5 0
v 0.3 2.5 -0.1
v 0.3 2.5 -0.3
v 0.3 2.5 -0.5
v 0.3 2.5 -0.7
v 0.3 2.5 -0.8
v 0.3 2.6 0
v 0.3 2.6 -0.1
v 0.3 2.6 -0.7
v 0.3 2.6 -0.8
v 0.3 2.7 0
v 0.3 2.7 -0.1
v 0.3 2.7 -0.7
v 0.3 2.7 -0.8
v 0.4 2 -0.3
v 0.4 2 -0.5
v 0.4 2.8 -0.3
v 0.4 2.8 -0.5
v 0.4 2.9 0
v 0.4 2.9 -0.1
v 0.4 2.9 -0.7
v 0.4 2.9 -0.8
v 0.4 3 0
v 0.4 3 -0.1
v 0.4 3 -0.7
v 0.4 3 -0.8
v 0.4 3.3 0
v 0.4 3.3 -0.1
v 0.4 3.3 -0.7
v 0.4 3.3 -0.8
v 0.4 3.4 0
v 0.4 3.4 -0.1
v 0.4 3.4 -0.7
v 0.4 3.4 -0.8
v 0.5 2.8 -0.1
v 0.5 2.8 -0.7
v 0.5 3 0
v 0.5 3 -0.1
v 0.5 3 -0.7
v 0.5 3 -0.8
v 0.5 3.3 0
v 0.5 3.3 -0.1
v 0.5 3.3 -0.7
v 0.5 3.3 -0.8
v 0.5 3.4 -0.1
v 0.5 3.4 -0.7
v 0 3 0
v 0 3.3 0
v 0.1 2.9 0
v 0.1 3 0
v 0.1 3.3 0
v 0.1 3.4 0
v 0.2 2.5 0
v 0.2 2.6 0
v 0.2 2.7 0
v 0.3 2.5 0
v 0.3 2.6 0
v 0.3 2.7 0
v 0.4 2.9 0
v 0.4 3 0
v 0.4 3.3 0
v 0.4 3.4 0
v 0.5 3 0
v 0.5 3.3 0
v 0 2.8 -0.1
v 0 3 -0.1
v 0 3.3 -0.1
v 0 3.4 -0.1
v 0.1 2.9 -0.1
v 0.1 3 -0.1
v 0.1 3.3 -0.1
v 0.1 3.4 -0.1
v 0.2 2.4 -0.1
v 0.2 2.5 -0.1
v 0.3 2.4 -0.1
v 0.3 2.5 -0.1
v 0.4 2.9 -0.1
v 0.4 3 -0.1
v 0.4 3.3 -0.1
v 0.4 3.4 -0.1
v 0.5 2.8 -0.1
v 0.5 3 -0.1
v 0.5 3.3 -0.1
v 0.5 3.4 -0.1
v 0.1 2 -0.3
v 0.1 2.8 -0.3
v 0.2 2.4 -0.3
v 0.2 2.5 -0.3
v 0.3 2.4 -0.3
v 0.3 2.5 -0.3
v 0.4 2 -0.3
v 0.4 2.8 -0.3
v 0.2 2.5 -0.7
v 0.2 2.6 -0.7
v 0.2 2.7 -0.7
v 0.3 2.5 -0.7
v 0.3 2.6 -0.7
v 0.3 2.7 -0.7
v 0.2 2.5 -0.1
v 0.2 2.6 -0.1
v 0.2 2.7 -0.1
v 0.3 2.5 -0.1
v 0.3 2.6 -0.1
v 0.3 2.7 -0.1
v 0.1 2 -0.5
v 0.1 2.8 -0.5
v 0.2 2.4 -0.5
v 0.2 2.5 -0.5
v 0.3 2.4 -0.5
v 0.3 2.5 -0.5
v 0.4 2 -0.5
v 0.4 2.8 -0.5
v 0 2.8 -0.7
v 0 3 -0.7
v 0 3.3 -0.7
v 0 3.4 -0.7
v 0.1 2.9 -0.7
v 0.1 3 -0.7
v 0.1 3.3 -0.7
v 0.1 3.4 -0.7
v 0.2 2.4 -0.7
v 0.2 2.5 -0.7
v 0.3 2.4 -0.7
v 0.3 2.5 -0.7
v 0.4 2.9 -0.7
v 0.4 3 -0.7
v 0.4 3.3 -0.7
v 0.4 3.4 -0.7
v 0.5 2.8 -0.7
v 0.5 3 -0.7
v 0.5 3.3 -0.7
v 0.5 3.4 -0.7
v 0 3 -0.8
v 0 3.3 -0.8
v 0.1 2.9 -0.8
v 0.1 3 -0.8
v 0.1 3.3 -0.8
v 0.1 3.4 -0.8
v 0.2 2.5 -0.8
v 0.2 2.6 -0.8
v 0.2 2.7 -0.8
v 0.3 2.5 -0.8
v 0.3 2.6 -0.8
v 0.3 2.7 -0.8
v 0.4 2.9 -0.8
v 0.4 3 -0.8
v 0.4 3.3 -0.8
v 0.4 3.4 -0.8
v 0.5 3 -0.8
v 0.5 3.3 -0.8
v 0.1 2 -0.3
v 0.4 2 -0.3
v 0.1 2 -0.5
v 0.4 2 -0.5
v 0.2 2.4 -0.1
v 0.3 2.4 -0.1
v 0.2 2.4 -0.3
v 0.3 2.4 -0.3
v 0.2 2.4 -0.5
v 0.3 2.4 -0.5
v 0.2 2.4 -0.7
v 0.3 2.4 -0.7
v 0.2 2.5 0
v 0.3 2.5 0
v 0.2 2.5 -0.1
v 0.3 2.5 -0.1
v 0.2 2.5 -0.7
v 0.3 2.5 -0.7
v 0.2 2.5 -0.8
v 0.3 2.5 -0.8
v 0 2.8 -0.1
v 0.5 2.8 -0.1
v 0.1 2.8 -0.3
v 0.4 2.8 -0.3
v 0.1 2.8 -0.5
v 0.4 2.8 -0.5
v 0 2.8 -0.7
v 0.5 2.8 -0.7
v 0.1 2.9 0
v 0.4 2.9 0
v 0.1 2.9 -0.1
v 0.4 2.9 -0.1
v 0.1 2.9 -0.7
v 0.4 2.9 -0.7
v 0.1 2.9 -0.8
v 0.4 2.9 -0.8
v 0 3 0
v 0.1 3 0
v 0.4 3 0
v 0.5 3 0
v 0 3 -0.1
v 0.1 3 -0.1
v 0.4 3 -0.1
v 0.5 3 -0.1
v 0 3 -0.7
v 0.1 3 -0.7
v 0.4 3 -0.7
v 0.5 3 -0.7
v 0 3 -0.8
v 0.1 3 -0.8
v 0.4 3 -0.8
v 0.5 3 -0.8
v 0.2 2.5 -0.1
v 0.3 2.5 -0.1
v 0.2 2.5 -0.3
v 0.3 2.5 -0.3
v 0.2 2.5 -0.5
v 0.3 2.5 -0.5
v 0.2 2.5 -0.7
v 0.3 2.5 -0.7
v 0.2 2.7 0
v 0.3 2.7 0
v 0.2 2.7 -0.1
v 0.3 2.7 -0.1
v 0.2 2.7 -0.7
v 0.3 2.7 -0.7
v 0.2 2.7 -0.8
v 0.3 2.7 -0.8
v 0 3.3 0
v 0.1 3.3 0
v 0.4 3.3 0
v 0.5 3.3 0
v 0 3.3 -0.1
v 0.1 3.3 -0.1
v 0.4 3.3 -0.1
v 0.5 3.3 -0.1
v 0 3.3 -0.7
v 0.1 3.3 -0.7
v 0.4 3.3 -0.7
v 0.5 3.3 -0.7
v 0 3.3 -0.8
v 0.1 3.3 -0.8
v 0.4 3.3 -0.8
v 0.5 3.3 -0.8
v 0.1 3.4 0
v 0.4 3.4 0
v 0 3.4 -0.1
v 0.1 3.4 -0.1
v 0.4 3.4 -0.1
v 0.5 3.4 -0.1
v 0 3.4 -0.7
v 0.1 3.4 -0.7
v 0.4 3.4 -0.7
v 0.5 3.4 -0.7
v 0.1 3.4 -0.8
v 0.4 3.4 -0.8

# faces
f 4/2/1 2/2/1 1/2/1
f 5/2/1 2/2/1 4/2/1
f 7/2/1 4/2/1 3/2/1
f 7/2/1 6/2/1 5/2/1
f 7/2/1 5/2/1 4/2/1
f 8/2/1 6/2/1 7/2/1
f 9/2/1 6/2/1 8/2/1
f 10/2/1 6/2/1 9/2/1
f 11/2/1 9/2/1 8/2/1
f 12/2/1 9/2/1 11/2/1
f 15/1/1 14/1/1 13/1/1
f 16/1/1 14/1/1 15/1/1
f 21/2/1 18/2/1 17/2/1
f 22/2/1 18/2/1 21/2/1
f 23/2/1 20/2/1 19/2/1
f 24/2/1 20/2/1 23/2/1
f 29/2/1 26/2/1 25/2/1
f 30/2/1 26/2/1 29/2/1
f 31/2/1 28/2/1 27/2/1
f 32/2/1 28/2/1 31/2/1
f 38/1/1 34/1/1 33/1/1
f 39/1/1 34/1/1 38/1/1
f 40/1/1 36/1/1 35/1/1
f 41/1/1 36/1/1 40/1/1
f 43/1/1 38/1/1 37/1/1
f 44/1/1 38/1/1 43/1/1
f 45/1/1 42/1/1 41/1/1
f 46/1/1 42/1/1 45/1/1
f 47/2/1 44/2/1 43/2/1
f 48/2/1 44/2/1 47/2/1
f 49/2/1 46/2/1 45/2/1
f 50/2/1 46/2/1 49/2/1
f 51/1/2 52/1/2 56/1/2
f 56/1/2 52/1/2 57/1/2
f 53/1/2 54/1/2 58/1/2
f 58/1/2 54/1/2 59/1/2
f 55/1/2 56/1/2 61/1/2
f 61/1/2 56/1/2 62/1/2
f 59/1/2 60/1/2 63/1/2
f 63/1/2 60/1/2 64/1/2
f 61/2/2 62/2/2 65/2/2
f 65/2/2 62/2/2 66/2/2
f 63/2/2 64/2/2 67/2/2
f 67/2/2 64/2/2 68/2/2
f 69/1/2 70/1/2 71/1/2
f 71/1/2 70/1/2 72/1/2
f 73/2/2 74/2/2 77/2/2
f 77/2/2 74/2/2 78/2/2
f 75/2/2 76/2/2 79/2/2
f 79/2/2 76/2/2 80/2/2
f 81/2/2 82/2/2 85/2/2
f 85/2/2 82/2/2 86/2/2
f 83/2/2 84/2/2 87/2/2
f 87/2/2 84/2/2 88/2/2
f 89/2/2 90/2/2 92/2/2
f 92/2/2 90/2/2 93/2/2
f 91/2/2 92/2/2 95/2/2
f 93/2/2 94/2/2 95/2/2
f 92/2/2 93/2/2 95/2/2
f 95/2/2 94/2/2 96/2/2
f 96/2/2 94/2/2 97/2/2
f 97/2/2 94/2/2 98/2/2
f 96/2/2 97/2/2 99/2/2
f 99/2/2 97/2/2 100/2/2
f 104/2/3 102/2/3 101/2/3
f 105/2/3 102/2/3 104/2/3
f 110/1/3 108/1/3 107/1/3
f 111/2/3 109/2/3 108/2/3
f 111/1/3 108/1/3 110/1/3
f 112/2/3 109/2/3 111/2/3
f 113/2/3 104/2/3 103/2/3
f 113/2/3 105/2/3 104/2/3
f 113/2/3 106/2/3 105/2/3
f 114/2/3 106/2/3 113/2/3
f 115/2/3 106/2/3 114/2/3
f 116/2/3 106/2/3 115/2/3
f 117/2/3 115/2/3 114/2/3
f 118/2/3 115/2/3 117/2/3
f 123/2/3 120/2/3 119/2/3
f 124/2/3 120/2/3 123/2/3
f 125/2/3 122/2/3 121/2/3
f 126/2/3 122/2/3 125/2/3
f 129/1/3 128/1/3 127/1/3
f 130/1/3 128/1/3 129/1/3
f 131/2/3 123/2/3 119/2/3
f 135/2/3 131/2/3 119/2/3
f 135/2/3 132/2/3 131/2/3
f 136/2/3 132/2/3 135/2/3
f 137/2/3 134/2/3 133/2/3
f 138/2/3 134/2/3 137/2/3
f 141/1/3 140/1/3 139/1/3
f 142/1/3 140/1/3 141/1/3
f 143/1/3 141/1/3 139/1/3
f 144/1/3 140/1/3 142/1/3
f 145/1/3 143/1/3 139/1/3
f 145/1/3 144/1/3 143/1/3
f 146/1/3 140/1/3 144/1/3
f 146/1/3 144/1/3 145/1/3
f 150/1/3 148/1/3 147/1/3
f 151/2/3 149/2/3 148/2/3
f 151/1/3 148/1/3 150/1/3
f 152/2/3 149/2/3 151/2/3
f 153/1/4 154/1/4 156/1/4
f 154/2/4 155/2/4 157/2/4
f 156/1/4 154/1/4 157/1/4
f 157/2/4 155/2/4 158/2/4
f 159/1/4 160/1/4 161/1/4
f 161/1/4 160/1/4 162/1/4
f 159/1/4 161/1/4 163/1/4
f 162/1/4 160/1/4 164/1/4
f 159/1/4 163/1/4 165/1/4
f 163/1/4 164/1/4 165/1/4
f 164/1/4 160/1/4 166/1/4
f 165/1/4 164/1/4 166/1/4
f 167/2/4 168/2/4 171/2/4
f 171/2/4 168/2/4 172/2/4
f 169/2/4 170/2/4 173/2/4
f 173/2/4 170/2/4 174/2/4
f 175/1/4 176/1/4 177/1/4
f 177/1/4 176/1/4 178/1/4
f 167/2/4 171/2/4 179/2/4
f 167/2/4 179/2/4 183/2/4
f 179/2/4 180/2/4 183/2/4
f 183/2/4 180/2/4 184/2/4
f 181/2/4 182/2/4 185/2/4
f 185/2/4 182/2/4 186/2/4
f 187/2/4 188/2/4 190/2/4
f 190/2/4 188/2/4 191/2/4
f 193/1/4 194/1/4 196/1/4
f 194/2/4 195/2/4 197/2/4
f 196/1/4 194/1/4 197/1/4
f 197/2/4 195/2/4 198/2/4
f 189/2/4 190/2/4 199/2/4
f 190/2/4 191/2/4 199/2/4
f 191/2/4 192/2/4 199/2/4
f 199/2/4 192/2/4 200/2/4
f 200/2/4 192/2/4 201/2/4
f 201/2/4 192/2/4 202/2/4
f 200/2/4 201/2/4 203/2/4
f 203/2/4 201/2/4 204/2/4
f 207/1/5 206/1/5 205/1/5
f 208/1/5 206/1/5 207/1/5
f 211/1/5 210/1/5 209/1/5
f 212/1/5 210/1/5 211/1/5
f 215/1/5 214/1/5 213/1/5
f 216/1/5 214/1/5 215/1/5
f 219/1/5 218/1/5 217/1/5
f 220/1/5 218/1/5 219/1/5
f 223/1/5 222/1/5 221/1/5
f 224/1/5 222/1/5 223/1/5
f 227/2/5 226/2/5 225/2/5
f 228/2/5 226/2/5 227/2/5
f 229/2/5 227/2/5 225/2/5
f 230/2/5 226/2/5 228/2/5
f 231/2/5 229/2/5 225/2/5
f 231/2/5 230/2/5 229/2/5
f 232/2/5 226/2/5 230/2/5
f 232/2/5 230/2/5 231/2/5
f 235/2/5 234/2/5 233/2/5
f 236/2/5 234/2/5 235/2/5
f 239/2/5 238/2/5 237/2/5
f 240/2/5 238/2/5 239/2/5
f 245/2/5 242/2/5 241/2/5
f 246/2/5 242/2/5 245/2/5
f 247/2/5 244/2/5 243/2/5
f 248/2/5 244/2/5 247/2/5
f 253/2/5 250/2/5 249/2/5
f 254/2/5 250/2/5 253/2/5
f 255/2/5 252/2/5 251/2/5
f 256/2/5 252/2/5 255/2/5
f 257/1/6 258/1/6 259/1/6
f 259/1/6 258/1/6 260/1/6
f 261/1/6 262/1/6 263/1/6
f 263/1/6 262/1/6 264/1/6
f 265/2/6 266/2/6 267/2/6
f 267/2/6 266/2/6 268/2/6
f 269/2/6 270/2/6 271/2/6
f 271/2/6 270/2/6 272/2/6
f 273/2/6 274/2/6 277/2/6
f 277/2/6 274/2/6 278/2/6
f 275/2/6 276/2/6 279/2/6
f 279/2/6 276/2/6 280/2/6
f 281/2/6 282/2/6 285/2/6
f 285/2/6 282/2/6 286/2/6
f 283/2/6 284/2/6 287/2/6
f 287/2/6 284/2/6 288/2/6
f 289/2/6 290/2/6 292/2/6
f 292/2/6 290/2/6 293/2/6
f 291/2/6 292/2/6 295/2/6
f 293/2/6 294/2/6 295/2/6
f 292/2/6 293/2/6 295/2/6
f 295/2/6 294/2/6 296/2/6
f 296/2/6 294/2/6 297/2/6
f 297/2/6 294/2/6 298/2/6
f 296/2/6 297/2/6 299/2/6
f 299/2/6 297/2/6 300/2/6
