# MagicaVoxel @ Ephtracy

# group
o 

# material
mtllib mikamaru.mtl
usemtl palette

# normals
vn -1 0 0
vn 1 0 0
vn 0 0 1
vn 0 0 -1
vn 0 -1 0
vn 0 1 0

# texcoords
vt 0.0917969 0.5
vt 0.904297 0.5
vt 0.958984 0.5
vt 0.994141 0.5

# verts
v 0.9 2 -1.1
v 0.9 2 -1.5
v 0.9 2 -2.8
v 0.9 2 -3.2
v 0.9 2.2 -1.1
v 0.9 2.2 -1.5
v 0.9 2.2 -2.8
v 0.9 2.2 -3.2
v 1 2 -1
v 1 2 -1.1
v 1 2 -1.5
v 1 2 -1.6
v 1 2 -2.7
v 1 2 -2.8
v 1 2 -3.2
v 1 2 -3.3
v 1 2.2 -1
v 1 2.2 -1.1
v 1 2.2 -1.5
v 1 2.2 -1.6
v 1 2.2 -2.7
v 1 2.2 -2.8
v 1 2.2 -3.2
v 1 2.2 -3.3
v 1.1 2.2 -1.2
v 1.1 2.2 -1.6
v 1.1 2.2 -2.7
v 1.1 2.2 -3.1
v 1.1 3.4 -1.2
v 1.1 3.4 -3.1
v 1.2 3.4 -1.3
v 1.2 3.4 -3
v 1.2 3.5 -1.3
v 1.2 3.5 -3
v 1.3 3.5 -1.4
v 1.3 3.5 -2.9
v 1.3 3.6 -1.4
v 1.3 3.6 -2.9
v 1.4 3.6 -1.6
v 1.4 3.6 -2.8
v 1.4 3.7 -1.6
v 1.4 3.7 -2.8
v 1.4 4.3 -2.1
v 1.4 4.3 -2.2
v 1.4 4.6 -2.1
v 1.4 4.6 -2.2
v 1.5 3.7 -1.7
v 1.5 3.7 -2.7
v 1.5 3.8 -1.7
v 1.5 3.8 -2.7
v 1.5 4.2 -2.1
v 1.5 4.2 -2.2
v 1.5 4.3 -2.1
v 1.5 4.3 -2.2
v 1.6 4.1 -2.1
v 1.6 4.1 -2.2
v 1.6 4.2 -2.1
v 1.6 4.2 -2.2
v 1.9 3.8 -2
v 1.9 3.8 -2.4
v 1.9 4.1 -2
v 1.9 4.1 -2.1
v 1.9 4.1 -2.2
v 1.9 4.1 -2.4
v 2.2 4.1 -2.1
v 2.2 4.1 -2.2
v 2.2 4.2 -2.1
v 2.2 4.2 -2.2
v 2.3 4.2 -2.1
v 2.3 4.2 -2.2
v 2.3 4.3 -2.1
v 2.3 4.3 -2.2
v 2.4 4.3 -2.1
v 2.4 4.3 -2.2
v 2.4 4.4 -2.1
v 2.4 4.4 -2.2
v 2.5 4.4 -2.1
v 2.5 4.4 -2.2
v 2.5 4.5 -2.1
v 2.5 4.5 -2.2
v 2.6 2 -1.1
v 2.6 2 -1.5
v 2.6 2 -2.8
v 2.6 2 -3.2
v 2.6 2.2 -1.1
v 2.6 2.2 -1.2
v 2.6 2.2 -1.5
v 2.6 2.2 -2.8
v 2.6 2.2 -3.1
v 2.6 2.2 -3.2
v 2.6 4.5 -2.1
v 2.6 4.5 -2.2
v 2.6 4.6 -2.1
v 2.6 4.6 -2.2
v 2.7 2 -1
v 2.7 2 -1.1
v 2.7 2 -1.5
v 2.7 2 -1.6
v 2.7 2 -2.7
v 2.7 2 -2.8
v 2.7 2 -3.2
v 2.7 2 -3.3
v 2.7 2.2 -1
v 2.7 2.2 -1.1
v 2.7 2.2 -1.5
v 2.7 2.2 -1.6
v 2.7 2.2 -2.7
v 2.7 2.2 -2.8
v 2.7 2.2 -3.2
v 2.7 2.2 -3.3
v 1.5 2 -1
v 1.5 2 -1.1
v 1.5 2 -1.5
v 1.5 2 -1.6
v 1.5 2 -2.7
v 1.5 2 -2.8
v 1.5 2 -3.2
v 1.5 2 -3.3
v 1.5 2.2 -1
v 1.5 2.2 -1.1
v 1.5 2.2 -1.5
v 1.5 2.2 -1.6
v 1.5 2.2 -2.7
v 1.5 2.2 -2.8
v 1.5 2.2 -3.2
v 1.5 2.2 -3.3
v 1.6 2 -1.1
v 1.6 2 -1.5
v 1.6 2 -2.8
v 1.6 2 -3.2
v 1.6 2.2 -1.1
v 1.6 2.2 -1.2
v 1.6 2.2 -1.5
v 1.6 2.2 -2.8
v 1.6 2.2 -3.1
v 1.6 2.2 -3.2
v 1.6 4.5 -2.1
v 1.6 4.5 -2.2
v 1.6 4.6 -2.1
v 1.6 4.6 -2.2
v 1.7 4.4 -2.1
v 1.7 4.4 -2.2
v 1.7 4.5 -2.1
v 1.7 4.5 -2.2
v 1.8 4.3 -2.1
v 1.8 4.3 -2.2
v 1.8 4.4 -2.1
v 1.8 4.4 -2.2
v 1.9 4.2 -2.1
v 1.9 4.2 -2.2
v 1.9 4.3 -2.1
v 1.9 4.3 -2.2
v 2 4.1 -2.1
v 2 4.1 -2.2
v 2 4.2 -2.1
v 2 4.2 -2.2
v 2.3 3.8 -2
v 2.3 3.8 -2.4
v 2.3 4.1 -2
v 2.3 4.1 -2.1
v 2.3 4.1 -2.2
v 2.3 4.1 -2.4
v 2.6 4.1 -2.1
v 2.6 4.1 -2.2
v 2.6 4.3 -2.1
v 2.6 4.3 -2.2
v 2.7 3.7 -1.7
v 2.7 3.7 -2.7
v 2.7 3.8 -1.7
v 2.7 3.8 -2.7
v 2.8 3.6 -1.6
v 2.8 3.6 -2.8
v 2.8 3.7 -1.6
v 2.8 3.7 -2.8
v 2.8 4.3 -2.1
v 2.8 4.3 -2.2
v 2.8 4.6 -2.1
v 2.8 4.6 -2.2
v 2.9 3.5 -1.4
v 2.9 3.5 -2.9
v 2.9 3.6 -1.4
v 2.9 3.6 -2.9
v 3 3.4 -1.3
v 3 3.4 -3
v 3 3.5 -1.3
v 3 3.5 -3
v 3.1 2.2 -1.2
v 3.1 2.2 -1.6
v 3.1 2.2 -2.7
v 3.1 2.2 -3.1
v 3.1 3.4 -1.2
v 3.1 3.4 -3.1
v 3.2 2 -1
v 3.2 2 -1.1
v 3.2 2 -1.5
v 3.2 2 -1.6
v 3.2 2 -2.7
v 3.2 2 -2.8
v 3.2 2 -3.2
v 3.2 2 -3.3
v 3.2 2.2 -1
v 3.2 2.2 -1.1
v 3.2 2.2 -1.5
v 3.2 2.2 -1.6
v 3.2 2.2 -2.7
v 3.2 2.2 -2.8
v 3.2 2.2 -3.2
v 3.2 2.2 -3.3
v 3.3 2 -1.1
v 3.3 2 -1.5
v 3.3 2 -2.8
v 3.3 2 -3.2
v 3.3 2.2 -1.1
v 3.3 2.2 -1.5
v 3.3 2.2 -2.8
v 3.3 2.2 -3.2
v 1 2 -1
v 1 2.2 -1
v 1.5 2 -1
v 1.5 2.2 -1
v 2.7 2 -1
v 2.7 2.2 -1
v 3.2 2 -1
v 3.2 2.2 -1
v 0.9 2 -1.1
v 0.9 2.2 -1.1
v 1 2 -1.1
v 1 2.2 -1.1
v 1.5 2 -1.1
v 1.5 2.2 -1.1
v 1.6 2 -1.1
v 1.6 2.2 -1.1
v 2.6 2 -1.1
v 2.6 2.2 -1.1
v 2.7 2 -1.1
v 2.7 2.2 -1.1
v 3.2 2 -1.1
v 3.2 2.2 -1.1
v 3.3 2 -1.1
v 3.3 2.2 -1.1
v 1.1 2.2 -1.2
v 1.1 3.4 -1.2
v 1.6 2.2 -1.2
v 1.6 3 -1.2
v 1.6 3.2 -1.2
v 1.7 2.6 -1.2
v 1.7 2.7 -1.2
v 1.8 3 -1.2
v 1.8 3.2 -1.2
v 2.2 2.5 -1.2
v 2.2 2.6 -1.2
v 2.3 2.4 -1.2
v 2.3 2.5 -1.2
v 2.3 2.6 -1.2
v 2.4 2.4 -1.2
v 2.4 2.5 -1.2
v 2.4 2.6 -1.2
v 2.4 3 -1.2
v 2.4 3.2 -1.2
v 2.5 2.5 -1.2
v 2.5 2.7 -1.2
v 2.6 2.2 -1.2
v 2.6 3 -1.2
v 2.6 3.2 -1.2
v 3.1 2.2 -1.2
v 3.1 3.4 -1.2
v 1.2 3.4 -1.3
v 1.2 3.5 -1.3
v 3 3.4 -1.3
v 3 3.5 -1.3
v 1.3 3.5 -1.4
v 1.3 3.6 -1.4
v 2.9 3.5 -1.4
v 2.9 3.6 -1.4
v 1.4 3.6 -1.6
v 1.4 3.7 -1.6
v 2.8 3.6 -1.6
v 2.8 3.7 -1.6
v 1.5 3.7 -1.7
v 1.5 3.8 -1.7
v 2.7 3.7 -1.7
v 2.7 3.8 -1.7
v 1.9 3.8 -2
v 1.9 4.1 -2
v 2.3 3.8 -2
v 2.3 4.1 -2
v 1.4 4.3 -2.1
v 1.4 4.6 -2.1
v 1.5 4.2 -2.1
v 1.5 4.3 -2.1
v 1.6 4.1 -2.1
v 1.6 4.2 -2.1
v 1.6 4.5 -2.1
v 1.6 4.6 -2.1
v 1.7 4.4 -2.1
v 1.7 4.5 -2.1
v 1.8 4.3 -2.1
v 1.8 4.4 -2.1
v 1.9 4.1 -2.1
v 1.9 4.2 -2.1
v 1.9 4.3 -2.1
v 2 4.1 -2.1
v 2 4.2 -2.1
v 2.2 4.1 -2.1
v 2.2 4.2 -2.1
v 2.3 4.1 -2.1
v 2.3 4.2 -2.1
v 2.3 4.3 -2.1
v 2.4 4.3 -2.1
v 2.4 4.4 -2.1
v 2.5 4.4 -2.1
v 2.5 4.5 -2.1
v 2.6 4.1 -2.1
v 2.6 4.3 -2.1
v 2.6 4.5 -2.1
v 2.6 4.6 -2.1
v 2.8 4.3 -2.1
v 2.8 4.6 -2.1
v 1 2 -2.7
v 1 2.2 -2.7
v 1.1 2.2 -2.7
v 1.5 2 -2.7
v 1.5 2.2 -2.7
v 2.7 2 -2.7
v 2.7 2.2 -2.7
v 3.1 2.2 -2.7
v 3.2 2 -2.7
v 3.2 2.2 -2.7
v 0.9 2 -2.8
v 0.9 2.2 -2.8
v 1 2 -2.8
v 1 2.2 -2.8
v 1.5 2 -2.8
v 1.5 2.2 -2.8
v 1.6 2 -2.8
v 1.6 2.2 -2.8
v 2.6 2 -2.8
v 2.6 2.2 -2.8
v 2.7 2 -2.8
v 2.7 2.2 -2.8
v 3.2 2 -2.8
v 3.2 2.2 -2.8
v 3.3 2 -2.8
v 3.3 2.2 -2.8
v 0.9 2 -1.5
v 0.9 2.2 -1.5
v 1 2 -1.5
v 1 2.2 -1.5
v 1.5 2 -1.5
v 1.5 2.2 -1.5
v 1.6 2 -1.5
v 1.6 2.2 -1.5
v 2.6 2 -1.5
v 2.6 2.2 -1.5
v 2.7 2 -1.5
v 2.7 2.2 -1.5
v 3.2 2 -1.5
v 3.2 2.2 -1.5
v 3.3 2 -1.5
v 3.3 2.2 -1.5
v 1 2 -1.6
v 1 2.2 -1.6
v 1.1 2.2 -1.6
v 1.5 2 -1.6
v 1.5 2.2 -1.6
v 2.7 2 -1.6
v 2.7 2.2 -1.6
v 3.1 2.2 -1.6
v 3.2 2 -1.6
v 3.2 2.2 -1.6
v 1.4 4.3 -2.2
v 1.4 4.6 -2.2
v 1.5 4.2 -2.2
v 1.5 4.3 -2.2
v 1.6 4.1 -2.2
v 1.6 4.2 -2.2
v 1.6 4.5 -2.2
v 1.6 4.6 -2.2
v 1.7 4.4 -2.2
v 1.7 4.5 -2.2
v 1.8 4.3 -2.2
v 1.8 4.4 -2.2
v 1.9 4.1 -2.2
v 1.9 4.2 -2.2
v 1.9 4.3 -2.2
v 2 4.1 -2.2
v 2 4.2 -2.2
v 2.2 4.1 -2.2
v 2.2 4.2 -2.2
v 2.3 4.1 -2.2
v 2.3 4.2 -2.2
v 2.3 4.3 -2.2
v 2.4 4.3 -2.2
v 2.4 4.4 -2.2
v 2.5 4.4 -2.2
v 2.5 4.5 -2.2
v 2.6 4.1 -2.2
v 2.6 4.3 -2.2
v 2.6 4.5 -2.2
v 2.6 4.6 -2.2
v 2.8 4.3 -2.2
v 2.8 4.6 -2.2
v 1.9 3.8 -2.4
v 1.9 4.1 -2.4
v 2.3 3.8 -2.4
v 2.3 4.1 -2.4
v 1.5 3.7 -2.7
v 1.5 3.8 -2.7
v 2.7 3.7 -2.7
v 2.7 3.8 -2.7
v 1.4 3.6 -2.8
v 1.4 3.7 -2.8
v 2.8 3.6 -2.8
v 2.8 3.7 -2.8
v 1.3 3.5 -2.9
v 1.3 3.6 -2.9
v 2.9 3.5 -2.9
v 2.9 3.6 -2.9
v 1.2 3.4 -3
v 1.2 3.5 -3
v 3 3.4 -3
v 3 3.5 -3
v 1.1 2.2 -3.1
v 1.1 3.4 -3.1
v 1.6 2.2 -3.1
v 2.6 2.2 -3.1
v 3.1 2.2 -3.1
v 3.1 3.4 -3.1
v 0.9 2 -3.2
v 0.9 2.2 -3.2
v 1 2 -3.2
v 1 2.2 -3.2
v 1.5 2 -3.2
v 1.5 2.2 -3.2
v 1.6 2 -3.2
v 1.6 2.2 -3.2
v 2.6 2 -3.2
v 2.6 2.2 -3.2
v 2.7 2 -3.2
v 2.7 2.2 -3.2
v 3.2 2 -3.2
v 3.2 2.2 -3.2
v 3.3 2 -3.2
v 3.3 2.2 -3.2
v 1 2 -3.3
v 1 2.2 -3.3
v 1.5 2 -3.3
v 1.5 2.2 -3.3
v 2.7 2 -3.3
v 2.7 2.2 -3.3
v 3.2 2 -3.3
v 3.2 2.2 -3.3
v 1 2 -1
v 1.5 2 -1
v 2.7 2 -1
v 3.2 2 -1
v 0.9 2 -1.1
v 1 2 -1.1
v 1.5 2 -1.1
v 1.6 2 -1.1
v 2.6 2 -1.1
v 2.7 2 -1.1
v 3.2 2 -1.1
v 3.3 2 -1.1
v 0.9 2 -1.5
v 1 2 -1.5
v 1.5 2 -1.5
v 1.6 2 -1.5
v 2.6 2 -1.5
v 2.7 2 -1.5
v 3.2 2 -1.5
v 3.3 2 -1.5
v 1 2 -1.6
v 1.5 2 -1.6
v 2.7 2 -1.6
v 3.2 2 -1.6
v 1 2 -2.7
v 1.5 2 -2.7
v 2.7 2 -2.7
v 3.2 2 -2.7
v 0.9 2 -2.8
v 1 2 -2.8
v 1.5 2 -2.8
v 1.6 2 -2.8
v 2.6 2 -2.8
v 2.7 2 -2.8
v 3.2 2 -2.8
v 3.3 2 -2.8
v 0.9 2 -3.2
v 1 2 -3.2
v 1.5 2 -3.2
v 1.6 2 -3.2
v 2.6 2 -3.2
v 2.7 2 -3.2
v 3.2 2 -3.2
v 3.3 2 -3.2
v 1 2 -3.3
v 1.5 2 -3.3
v 2.7 2 -3.3
v 3.2 2 -3.3
v 1.6 2.2 -1.2
v 2.6 2.2 -1.2
v 1.5 2.2 -1.5
v 1.6 2.2 -1.5
v 2.6 2.2 -1.5
v 2.7 2.2 -1.5
v 1.1 2.2 -1.6
v 1.5 2.2 -1.6
v 2.7 2.2 -1.6
v 3.1 2.2 -1.6
v 1.1 2.2 -2.7
v 1.5 2.2 -2.7
v 2.7 2.2 -2.7
v 3.1 2.2 -2.7
v 1.5 2.2 -2.8
v 1.6 2.2 -2.8
v 2.6 2.2 -2.8
v 2.7 2.2 -2.8
v 1.6 2.2 -3.1
v 2.6 2.2 -3.1
v 1.6 4.1 -2.1
v 1.9 4.1 -2.1
v 2.3 4.1 -2.1
v 2.6 4.1 -2.1
v 1.6 4.1 -2.2
v 1.9 4.1 -2.2
v 2.3 4.1 -2.2
v 2.6 4.1 -2.2
v 1.5 4.2 -2.1
v 1.6 4.2 -2.1
v 1.5 4.2 -2.2
v 1.6 4.2 -2.2
v 1.4 4.3 -2.1
v 1.5 4.3 -2.1
v 2.6 4.3 -2.1
v 2.8 4.3 -2.1
v 1.4 4.3 -2.2
v 1.5 4.3 -2.2
v 2.6 4.3 -2.2
v 2.8 4.3 -2.2
v 1 2.2 -1
v 1.5 2.2 -1
v 2.7 2.2 -1
v 3.2 2.2 -1
v 0.9 2.2 -1.1
v 1 2.2 -1.1
v 1.5 2.2 -1.1
v 1.6 2.2 -1.1
v 2.6 2.2 -1.1
v 2.7 2.2 -1.1
v 3.2 2.2 -1.1
v 3.3 2.2 -1.1
v 1.1 2.2 -1.2
v 1.6 2.2 -1.2
v 2.6 2.2 -1.2
v 3.1 2.2 -1.2
v 0.9 2.2 -1.5
v 1 2.2 -1.5
v 3.2 2.2 -1.5
v 3.3 2.2 -1.5
v 1 2.2 -1.6
v 1.1 2.2 -1.6
v 3.1 2.2 -1.6
v 3.2 2.2 -1.6
v 1 2.2 -2.7
v 1.1 2.2 -2.7
v 3.1 2.2 -2.7
v 3.2 2.2 -2.7
v 0.9 2.2 -2.8
v 1 2.2 -2.8
v 3.2 2.2 -2.8
v 3.3 2.2 -2.8
v 1.1 2.2 -3.1
v 1.6 2.2 -3.1
v 2.6 2.2 -3.1
v 3.1 2.2 -3.1
v 0.9 2.2 -3.2
v 1 2.2 -3.2
v 1.5 2.2 -3.2
v 1.6 2.2 -3.2
v 2.6 2.2 -3.2
v 2.7 2.2 -3.2
v 3.2 2.2 -3.2
v 3.3 2.2 -3.2
v 1 2.2 -3.3
v 1.5 2.2 -3.3
v 2.7 2.2 -3.3
v 3.2 2.2 -3.3
v 1.1 3.4 -1.2
v 3.1 3.4 -1.2
v 1.2 3.4 -1.3
v 3 3.4 -1.3
v 1.2 3.4 -3
v 3 3.4 -3
v 1.1 3.4 -3.1
v 3.1 3.4 -3.1
v 1.2 3.5 -1.3
v 3 3.5 -1.3
v 1.3 3.5 -1.4
v 2.9 3.5 -1.4
v 1.3 3.5 -2.9
v 2.9 3.5 -2.9
v 1.2 3.5 -3
v 3 3.5 -3
v 1.3 3.6 -1.4
v 2.9 3.6 -1.4
v 1.4 3.6 -1.6
v 2.8 3.6 -1.6
v 1.4 3.6 -2.8
v 2.8 3.6 -2.8
v 1.3 3.6 -2.9
v 2.9 3.6 -2.9
v 1.4 3.7 -1.6
v 2.8 3.7 -1.6
v 1.5 3.7 -1.7
v 2.7 3.7 -1.7
v 1.5 3.7 -2.7
v 2.7 3.7 -2.7
v 1.4 3.7 -2.8
v 2.8 3.7 -2.8
v 1.5 3.8 -1.7
v 2.7 3.8 -1.7
v 1.9 3.8 -2
v 2.3 3.8 -2
v 1.9 3.8 -2.4
v 2.3 3.8 -2.4
v 1.5 3.8 -2.7
v 2.7 3.8 -2.7
v 1.9 4.1 -2
v 2.3 4.1 -2
v 1.9 4.1 -2.1
v 2 4.1 -2.1
v 2.2 4.1 -2.1
v 2.3 4.1 -2.1
v 1.9 4.1 -2.2
v 2 4.1 -2.2
v 2.2 4.1 -2.2
v 2.3 4.1 -2.2
v 1.9 4.1 -2.4
v 2.3 4.1 -2.4
v 1.9 4.2 -2.1
v 2 4.2 -2.1
v 2.2 4.2 -2.1
v 2.3 4.2 -2.1
v 1.9 4.2 -2.2
v 2 4.2 -2.2
v 2.2 4.2 -2.2
v 2.3 4.2 -2.2
v 1.8 4.3 -2.1
v 1.9 4.3 -2.1
v 2.3 4.3 -2.1
v 2.4 4.3 -2.1
v 1.8 4.3 -2.2
v 1.9 4.3 -2.2
v 2.3 4.3 -2.2
v 2.4 4.3 -2.2
v 1.7 4.4 -2.1
v 1.8 4.4 -2.1
v 2.4 4.4 -2.1
v 2.5 4.4 -2.1
v 1.7 4.4 -2.2
v 1.8 4.4 -2.2
v 2.4 4.4 -2.2
v 2.5 4.4 -2.2
v 1.6 4.5 -2.1
v 1.7 4.5 -2.1
v 2.5 4.5 -2.1
v 2.6 4.5 -2.1
v 1.6 4.5 -2.2
v 1.7 4.5 -2.2
v 2.5 4.5 -2.2
v 2.6 4.5 -2.2
v 1.4 4.6 -2.1
v 1.6 4.6 -2.1
v 2.6 4.6 -2.1
v 2.8 4.6 -2.1
v 1.4 4.6 -2.2
v 1.6 4.6 -2.2
v 2.6 4.6 -2.2
v 2.8 4.6 -2.2

# faces
f 5/2/1 2/2/1 1/2/1
f 6/2/1 2/2/1 5/2/1
f 7/2/1 4/2/1 3/2/1
f 8/2/1 4/2/1 7/2/1
f 17/2/1 10/2/1 9/2/1
f 18/2/1 10/2/1 17/2/1
f 19/2/1 12/2/1 11/2/1
f 20/2/1 12/2/1 19/2/1
f 21/2/1 14/2/1 13/2/1
f 22/2/1 14/2/1 21/2/1
f 23/2/1 16/2/1 15/2/1
f 24/2/1 16/2/1 23/2/1
f 29/1/1 26/1/1 25/1/1
f 29/1/1 28/1/1 27/1/1
f 29/1/1 27/1/1 26/1/1
f 30/1/1 28/1/1 29/1/1
f 33/1/1 32/1/1 31/1/1
f 34/1/1 32/1/1 33/1/1
f 37/1/1 36/1/1 35/1/1
f 38/1/1 36/1/1 37/1/1
f 41/1/1 40/1/1 39/1/1
f 42/1/1 40/1/1 41/1/1
f 45/2/1 44/2/1 43/2/1
f 46/2/1 44/2/1 45/2/1
f 49/1/1 48/1/1 47/1/1
f 50/1/1 48/1/1 49/1/1
f 53/2/1 52/2/1 51/2/1
f 54/2/1 52/2/1 53/2/1
f 57/2/1 56/2/1 55/2/1
f 58/2/1 56/2/1 57/2/1
f 61/2/1 60/2/1 59/2/1
f 62/2/1 60/2/1 61/2/1
f 63/2/1 60/2/1 62/2/1
f 64/2/1 60/2/1 63/2/1
f 67/2/1 66/2/1 65/2/1
f 68/2/1 66/2/1 67/2/1
f 71/2/1 70/2/1 69/2/1
f 72/2/1 70/2/1 71/2/1
f 75/2/1 74/2/1 73/2/1
f 76/2/1 74/2/1 75/2/1
f 79/2/1 78/2/1 77/2/1
f 80/2/1 78/2/1 79/2/1
f 85/2/1 82/2/1 81/2/1
f 86/2/1 82/2/1 85/2/1
f 87/2/1 82/2/1 86/2/1
f 88/2/1 84/2/1 83/2/1
f 89/2/1 84/2/1 88/2/1
f 90/2/1 84/2/1 89/2/1
f 93/2/1 92/2/1 91/2/1
f 94/2/1 92/2/1 93/2/1
f 103/2/1 96/2/1 95/2/1
f 104/2/1 96/2/1 103/2/1
f 105/2/1 98/2/1 97/2/1
f 106/2/1 98/2/1 105/2/1
f 107/2/1 100/2/1 99/2/1
f 108/2/1 100/2/1 107/2/1
f 109/2/1 102/2/1 101/2/1
f 110/2/1 102/2/1 109/2/1
f 111/2/2 112/2/2 119/2/2
f 119/2/2 112/2/2 120/2/2
f 113/2/2 114/2/2 121/2/2
f 121/2/2 114/2/2 122/2/2
f 115/2/2 116/2/2 123/2/2
f 123/2/2 116/2/2 124/2/2
f 117/2/2 118/2/2 125/2/2
f 125/2/2 118/2/2 126/2/2
f 127/2/2 128/2/2 131/2/2
f 131/2/2 128/2/2 132/2/2
f 132/2/2 128/2/2 133/2/2
f 129/2/2 130/2/2 134/2/2
f 134/2/2 130/2/2 135/2/2
f 135/2/2 130/2/2 136/2/2
f 137/2/2 138/2/2 139/2/2
f 139/2/2 138/2/2 140/2/2
f 141/2/2 142/2/2 143/2/2
f 143/2/2 142/2/2 144/2/2
f 145/2/2 146/2/2 147/2/2
f 147/2/2 146/2/2 148/2/2
f 149/2/2 150/2/2 151/2/2
f 151/2/2 150/2/2 152/2/2
f 153/2/2 154/2/2 155/2/2
f 155/2/2 154/2/2 156/2/2
f 157/2/2 158/2/2 159/2/2
f 159/2/2 158/2/2 160/2/2
f 160/2/2 158/2/2 161/2/2
f 161/2/2 158/2/2 162/2/2
f 163/2/2 164/2/2 165/2/2
f 165/2/2 164/2/2 166/2/2
f 167/1/2 168/1/2 169/1/2
f 169/1/2 168/1/2 170/1/2
f 171/1/2 172/1/2 173/1/2
f 173/1/2 172/1/2 174/1/2
f 175/2/2 176/2/2 177/2/2
f 177/2/2 176/2/2 178/2/2
f 179/1/2 180/1/2 181/1/2
f 181/1/2 180/1/2 182/1/2
f 183/1/2 184/1/2 185/1/2
f 185/1/2 184/1/2 186/1/2
f 187/1/2 188/1/2 191/1/2
f 189/1/2 190/1/2 191/1/2
f 188/1/2 189/1/2 191/1/2
f 191/1/2 190/1/2 192/1/2
f 193/2/2 194/2/2 201/2/2
f 201/2/2 194/2/2 202/2/2
f 195/2/2 196/2/2 203/2/2
f 203/2/2 196/2/2 204/2/2
f 197/2/2 198/2/2 205/2/2
f 205/2/2 198/2/2 206/2/2
f 199/2/2 200/2/2 207/2/2
f 207/2/2 200/2/2 208/2/2
f 209/2/2 210/2/2 213/2/2
f 213/2/2 210/2/2 214/2/2
f 211/2/2 212/2/2 215/2/2
f 215/2/2 212/2/2 216/2/2
f 219/2/3 218/2/3 217/2/3
f 220/2/3 218/2/3 219/2/3
f 223/2/3 222/2/3 221/2/3
f 224/2/3 222/2/3 223/2/3
f 227/2/3 226/2/3 225/2/3
f 228/2/3 226/2/3 227/2/3
f 231/2/3 230/2/3 229/2/3
f 232/2/3 230/2/3 231/2/3
f 235/2/3 234/2/3 233/2/3
f 236/2/3 234/2/3 235/2/3
f 239/2/3 238/2/3 237/2/3
f 240/2/3 238/2/3 239/2/3
f 243/1/3 242/1/3 241/1/3
f 244/1/3 242/1/3 243/1/3
f 245/1/3 242/1/3 244/1/3
f 246/1/3 244/1/3 243/1/3
f 247/1/3 244/1/3 246/1/3
f 248/4/3 245/4/3 244/4/3
f 248/1/3 244/1/3 247/1/3
f 249/1/3 242/1/3 245/1/3
f 249/4/3 245/4/3 248/4/3
f 250/1/3 246/1/3 243/1/3
f 251/4/3 247/4/3 246/4/3
f 251/1/3 246/1/3 250/1/3
f 252/1/3 250/1/3 243/1/3
f 253/4/3 251/4/3 250/4/3
f 253/1/3 250/1/3 252/1/3
f 254/4/3 247/4/3 251/4/3
f 254/4/3 251/4/3 253/4/3
f 255/4/3 253/4/3 252/4/3
f 255/1/3 252/1/3 243/1/3
f 256/3/3 254/3/3 253/3/3
f 256/4/3 253/4/3 255/4/3
f 257/4/3 247/4/3 254/4/3
f 257/3/3 254/3/3 256/3/3
f 258/1/3 248/1/3 247/1/3
f 258/1/3 249/1/3 248/1/3
f 259/1/3 242/1/3 249/1/3
f 259/1/3 249/1/3 258/1/3
f 260/1/3 256/1/3 255/1/3
f 260/4/3 257/4/3 256/4/3
f 261/4/3 247/4/3 257/4/3
f 261/4/3 257/4/3 260/4/3
f 261/1/3 258/1/3 247/1/3
f 262/1/3 260/1/3 255/1/3
f 262/1/3 255/1/3 243/1/3
f 262/1/3 261/1/3 260/1/3
f 263/1/3 258/1/3 261/1/3
f 263/1/3 261/1/3 262/1/3
f 263/4/3 259/4/3 258/4/3
f 264/1/3 242/1/3 259/1/3
f 264/4/3 259/4/3 263/4/3
f 265/1/3 263/1/3 262/1/3
f 265/1/3 264/1/3 263/1/3
f 266/1/3 242/1/3 264/1/3
f 266/1/3 264/1/3 265/1/3
f 269/1/3 268/1/3 267/1/3
f 270/1/3 268/1/3 269/1/3
f 273/1/3 272/1/3 271/1/3
f 274/1/3 272/1/3 273/1/3
f 277/1/3 276/1/3 275/1/3
f 278/1/3 276/1/3 277/1/3
f 281/1/3 280/1/3 279/1/3
f 282/1/3 280/1/3 281/1/3
f 285/2/3 284/2/3 283/2/3
f 286/2/3 284/2/3 285/2/3
f 290/2/3 288/2/3 287/2/3
f 292/2/3 290/2/3 289/2/3
f 293/2/3 288/2/3 290/2/3
f 293/2/3 290/2/3 292/2/3
f 294/2/3 288/2/3 293/2/3
f 295/2/3 292/2/3 291/2/3
f 295/2/3 293/2/3 292/2/3
f 296/2/3 293/2/3 295/2/3
f 297/2/3 295/2/3 291/2/3
f 298/2/3 295/2/3 297/2/3
f 299/2/3 297/2/3 291/2/3
f 300/2/3 297/2/3 299/2/3
f 301/2/3 297/2/3 300/2/3
f 302/2/3 300/2/3 299/2/3
f 303/2/3 300/2/3 302/2/3
f 306/2/3 305/2/3 304/2/3
f 307/2/3 305/2/3 306/2/3
f 309/2/3 307/2/3 306/2/3
f 309/2/3 308/2/3 307/2/3
f 311/2/3 310/2/3 309/2/3
f 313/2/3 311/2/3 309/2/3
f 313/2/3 312/2/3 311/2/3
f 313/2/3 309/2/3 306/2/3
f 314/2/3 312/2/3 313/2/3
f 315/2/3 312/2/3 314/2/3
f 317/2/3 315/2/3 314/2/3
f 317/2/3 316/2/3 315/2/3
f 318/2/3 316/2/3 317/2/3
f 321/2/3 320/2/3 319/2/3
f 322/2/3 321/2/3 319/2/3
f 323/2/3 321/2/3 322/2/3
f 326/2/3 325/2/3 324/2/3
f 327/2/3 326/2/3 324/2/3
f 328/2/3 326/2/3 327/2/3
f 331/2/3 330/2/3 329/2/3
f 332/2/3 330/2/3 331/2/3
f 335/2/3 334/2/3 333/2/3
f 336/2/3 334/2/3 335/2/3
f 339/2/3 338/2/3 337/2/3
f 340/2/3 338/2/3 339/2/3
f 343/2/3 342/2/3 341/2/3
f 344/2/3 342/2/3 343/2/3
f 345/2/4 346/2/4 347/2/4
f 347/2/4 346/2/4 348/2/4
f 349/2/4 350/2/4 351/2/4
f 351/2/4 350/2/4 352/2/4
f 353/2/4 354/2/4 355/2/4
f 355/2/4 354/2/4 356/2/4
f 357/2/4 358/2/4 359/2/4
f 359/2/4 358/2/4 360/2/4
f 361/2/4 362/2/4 363/2/4
f 361/2/4 363/2/4 364/2/4
f 364/2/4 363/2/4 365/2/4
f 366/2/4 367/2/4 368/2/4
f 366/2/4 368/2/4 369/2/4
f 369/2/4 368/2/4 370/2/4
f 371/2/4 372/2/4 374/2/4
f 373/2/4 374/2/4 376/2/4
f 374/2/4 372/2/4 377/2/4
f 376/2/4 374/2/4 377/2/4
f 377/2/4 372/2/4 378/2/4
f 375/2/4 376/2/4 379/2/4
f 376/2/4 377/2/4 379/2/4
f 379/2/4 377/2/4 380/2/4
f 375/2/4 379/2/4 381/2/4
f 381/2/4 379/2/4 382/2/4
f 375/2/4 381/2/4 383/2/4
f 383/2/4 381/2/4 384/2/4
f 384/2/4 381/2/4 385/2/4
f 383/2/4 384/2/4 386/2/4
f 386/2/4 384/2/4 387/2/4
f 388/2/4 389/2/4 390/2/4
f 390/2/4 389/2/4 391/2/4
f 390/2/4 391/2/4 393/2/4
f 391/2/4 392/2/4 393/2/4
f 393/2/4 394/2/4 395/2/4
f 393/2/4 395/2/4 397/2/4
f 395/2/4 396/2/4 397/2/4
f 390/2/4 393/2/4 397/2/4
f 397/2/4 396/2/4 398/2/4
f 398/2/4 396/2/4 399/2/4
f 398/2/4 399/2/4 401/2/4
f 399/2/4 400/2/4 401/2/4
f 401/2/4 400/2/4 402/2/4
f 403/2/4 404/2/4 405/2/4
f 405/2/4 404/2/4 406/2/4
f 407/1/4 408/1/4 409/1/4
f 409/1/4 408/1/4 410/1/4
f 411/1/4 412/1/4 413/1/4
f 413/1/4 412/1/4 414/1/4
f 415/1/4 416/1/4 417/1/4
f 417/1/4 416/1/4 418/1/4
f 419/1/4 420/1/4 421/1/4
f 421/1/4 420/1/4 422/1/4
f 423/1/4 424/1/4 425/1/4
f 425/1/4 424/1/4 426/1/4
f 426/1/4 424/1/4 427/1/4
f 427/1/4 424/1/4 428/1/4
f 429/2/4 430/2/4 431/2/4
f 431/2/4 430/2/4 432/2/4
f 433/2/4 434/2/4 435/2/4
f 435/2/4 434/2/4 436/2/4
f 437/2/4 438/2/4 439/2/4
f 439/2/4 438/2/4 440/2/4
f 441/2/4 442/2/4 443/2/4
f 443/2/4 442/2/4 444/2/4
f 445/2/4 446/2/4 447/2/4
f 447/2/4 446/2/4 448/2/4
f 449/2/4 450/2/4 451/2/4
f 451/2/4 450/2/4 452/2/4
f 458/2/5 454/2/5 453/2/5
f 459/2/5 454/2/5 458/2/5
f 462/2/5 456/2/5 455/2/5
f 463/2/5 456/2/5 462/2/5
f 465/2/5 460/2/5 459/2/5
f 465/2/5 458/2/5 457/2/5
f 465/2/5 459/2/5 458/2/5
f 466/2/5 460/2/5 465/2/5
f 467/2/5 460/2/5 466/2/5
f 468/2/5 460/2/5 467/2/5
f 469/2/5 464/2/5 463/2/5
f 469/2/5 463/2/5 462/2/5
f 469/2/5 462/2/5 461/2/5
f 470/2/5 464/2/5 469/2/5
f 471/2/5 464/2/5 470/2/5
f 472/2/5 464/2/5 471/2/5
f 473/2/5 467/2/5 466/2/5
f 474/2/5 467/2/5 473/2/5
f 475/2/5 471/2/5 470/2/5
f 476/2/5 471/2/5 475/2/5
f 482/2/5 478/2/5 477/2/5
f 483/2/5 478/2/5 482/2/5
f 486/2/5 480/2/5 479/2/5
f 487/2/5 480/2/5 486/2/5
f 489/2/5 484/2/5 483/2/5
f 489/2/5 482/2/5 481/2/5
f 489/2/5 483/2/5 482/2/5
f 490/2/5 484/2/5 489/2/5
f 491/2/5 484/2/5 490/2/5
f 492/2/5 484/2/5 491/2/5
f 493/2/5 487/2/5 486/2/5
f 493/2/5 488/2/5 487/2/5
f 493/2/5 486/2/5 485/2/5
f 494/2/5 488/2/5 493/2/5
f 495/2/5 488/2/5 494/2/5
f 496/2/5 488/2/5 495/2/5
f 497/2/5 491/2/5 490/2/5
f 498/2/5 491/2/5 497/2/5
f 499/2/5 495/2/5 494/2/5
f 500/2/5 495/2/5 499/2/5
f 504/1/5 502/1/5 501/1/5
f 505/1/5 502/1/5 504/1/5
f 508/1/5 504/1/5 503/1/5
f 508/1/5 506/1/5 505/1/5
f 508/1/5 505/1/5 504/1/5
f 509/1/5 506/1/5 508/1/5
f 511/1/5 508/1/5 507/1/5
f 511/1/5 510/1/5 509/1/5
f 511/1/5 509/1/5 508/1/5
f 512/1/5 510/1/5 511/1/5
f 513/1/5 510/1/5 512/1/5
f 514/1/5 510/1/5 513/1/5
f 515/1/5 513/1/5 512/1/5
f 516/1/5 513/1/5 515/1/5
f 517/1/5 513/1/5 516/1/5
f 518/1/5 513/1/5 517/1/5
f 519/1/5 517/1/5 516/1/5
f 520/1/5 517/1/5 519/1/5
f 525/2/5 522/2/5 521/2/5
f 526/2/5 522/2/5 525/2/5
f 527/2/5 524/2/5 523/2/5
f 528/2/5 524/2/5 527/2/5
f 531/2/5 530/2/5 529/2/5
f 532/2/5 530/2/5 531/2/5
f 537/2/5 534/2/5 533/2/5
f 538/2/5 534/2/5 537/2/5
f 539/2/5 536/2/5 535/2/5
f 540/2/5 536/2/5 539/2/5
f 541/2/6 542/2/6 546/2/6
f 546/2/6 542/2/6 547/2/6
f 543/2/6 544/2/6 550/2/6
f 550/2/6 544/2/6 551/2/6
f 547/2/6 548/2/6 553/2/6
f 545/2/6 546/2/6 553/2/6
f 546/2/6 547/2/6 553/2/6
f 553/2/6 548/2/6 554/2/6
f 551/2/6 552/2/6 555/2/6
f 550/2/6 551/2/6 555/2/6
f 549/2/6 550/2/6 555/2/6
f 555/2/6 552/2/6 556/2/6
f 545/2/6 553/2/6 557/2/6
f 557/2/6 553/2/6 558/2/6
f 556/2/6 552/2/6 559/2/6
f 559/2/6 552/2/6 560/2/6
f 558/2/6 553/2/6 561/2/6
f 561/2/6 553/2/6 562/2/6
f 556/2/6 559/2/6 563/2/6
f 563/2/6 559/2/6 564/2/6
f 565/2/6 566/2/6 570/2/6
f 567/2/6 568/2/6 571/2/6
f 569/2/6 570/2/6 573/2/6
f 570/2/6 566/2/6 573/2/6
f 567/2/6 571/2/6 576/2/6
f 571/2/6 572/2/6 576/2/6
f 573/2/6 574/2/6 577/2/6
f 569/2/6 573/2/6 577/2/6
f 577/2/6 574/2/6 578/2/6
f 578/2/6 574/2/6 579/2/6
f 579/2/6 574/2/6 580/2/6
f 575/2/6 576/2/6 581/2/6
f 581/2/6 576/2/6 582/2/6
f 576/2/6 572/2/6 583/2/6
f 582/2/6 576/2/6 583/2/6
f 583/2/6 572/2/6 584/2/6
f 578/2/6 579/2/6 585/2/6
f 585/2/6 579/2/6 586/2/6
f 582/2/6 583/2/6 587/2/6
f 587/2/6 583/2/6 588/2/6
f 589/1/6 590/1/6 591/1/6
f 591/1/6 590/1/6 592/1/6
f 589/1/6 591/1/6 593/1/6
f 592/1/6 590/1/6 594/1/6
f 589/1/6 593/1/6 595/1/6
f 593/1/6 594/1/6 595/1/6
f 594/1/6 590/1/6 596/1/6
f 595/1/6 594/1/6 596/1/6
f 597/1/6 598/1/6 599/1/6
f 599/1/6 598/1/6 600/1/6
f 597/1/6 599/1/6 601/1/6
f 600/1/6 598/1/6 602/1/6
f 597/1/6 601/1/6 603/1/6
f 601/1/6 602/1/6 603/1/6
f 602/1/6 598/1/6 604/1/6
f 603/1/6 602/1/6 604/1/6
f 605/1/6 606/1/6 607/1/6
f 607/1/6 606/1/6 608/1/6
f 605/1/6 607/1/6 609/1/6
f 608/1/6 606/1/6 610/1/6
f 605/1/6 609/1/6 611/1/6
f 609/1/6 610/1/6 611/1/6
f 610/1/6 606/1/6 612/1/6
f 611/1/6 610/1/6 612/1/6
f 613/1/6 614/1/6 615/1/6
f 615/1/6 614/1/6 616/1/6
f 613/1/6 615/1/6 617/1/6
f 616/1/6 614/1/6 618/1/6
f 613/1/6 617/1/6 619/1/6
f 617/1/6 618/1/6 619/1/6
f 618/1/6 614/1/6 620/1/6
f 619/1/6 618/1/6 620/1/6
f 621/1/6 622/1/6 623/1/6
f 623/1/6 622/1/6 624/1/6
f 621/1/6 623/1/6 625/1/6
f 624/1/6 622/1/6 626/1/6
f 621/1/6 625/1/6 627/1/6
f 625/1/6 626/1/6 627/1/6
f 626/1/6 622/1/6 628/1/6
f 627/1/6 626/1/6 628/1/6
f 629/2/6 630/2/6 631/2/6
f 631/2/6 630/2/6 632/2/6
f 632/2/6 630/2/6 633/2/6
f 633/2/6 630/2/6 634/2/6
f 632/2/6 633/2/6 636/2/6
f 636/2/6 633/2/6 637/2/6
f 635/2/6 636/2/6 639/2/6
f 637/2/6 638/2/6 639/2/6
f 636/2/6 637/2/6 639/2/6
f 639/2/6 638/2/6 640/2/6
f 641/2/6 642/2/6 645/2/6
f 645/2/6 642/2/6 646/2/6
f 643/2/6 644/2/6 647/2/6
f 647/2/6 644/2/6 648/2/6
f 649/2/6 650/2/6 653/2/6
f 653/2/6 650/2/6 654/2/6
f 651/2/6 652/2/6 655/2/6
f 655/2/6 652/2/6 656/2/6
f 657/2/6 658/2/6 661/2/6
f 661/2/6 658/2/6 662/2/6
f 659/2/6 660/2/6 663/2/6
f 663/2/6 660/2/6 664/2/6
f 665/2/6 666/2/6 669/2/6
f 669/2/6 666/2/6 670/2/6
f 667/2/6 668/2/6 671/2/6
f 671/2/6 668/2/6 672/2/6
f 673/2/6 674/2/6 677/2/6
f 677/2/6 674/2/6 678/2/6
f 675/2/6 676/2/6 679/2/6
f 679/2/6 676/2/6 680/2/6
