# MagicaVoxel @ Ephtracy

# group
o 

# material
mtllib flag.mtl
usemtl palette

# normals
vn -1 0 0
vn 1 0 0
vn 0 0 1
vn 0 0 -1
vn 0 -1 0
vn 0 1 0

# texcoords
vt 0.0683594 0.5
vt 0.841797 0.5
vt 0.978516 0.5

# verts
v 0 3.5 -0.1
v 0 3.5 -0.3
v 0 3.6 -0.1
v 0 3.6 -0.3
v 0.1 3.6 -0.1
v 0.1 3.6 -0.3
v 0.1 3.7 -0.1
v 0.1 3.7 -0.3
v 0.2 3.7 -0.1
v 0.2 3.7 -0.3
v 0.2 3.8 -0.1
v 0.2 3.8 -0.3
v 0.3 3.8 -0.1
v 0.3 3.8 -0.3
v 0.3 3.9 -0.1
v 0.3 3.9 -0.3
v 0.4 3.9 -0.1
v 0.4 3.9 -0.3
v 0.4 4 -0.1
v 0.4 4 -0.3
v 0.5 4 -0.1
v 0.5 4 -0.3
v 0.5 4.1 -0.1
v 0.5 4.1 -0.3
v 0.6 4.1 -0.1
v 0.6 4.1 -0.3
v 0.6 4.2 -0.1
v 0.6 4.2 -0.3
v 0.7 4.2 -0.1
v 0.7 4.2 -0.3
v 0.7 4.3 -0.1
v 0.7 4.3 -0.3
v 0.8 4.3 -0.1
v 0.8 4.3 -0.3
v 0.8 4.4 -0.1
v 0.8 4.4 -0.3
v 1 4.4 -0.1
v 1 4.4 -0.3
v 1 4.5 -0.1
v 1 4.5 -0.3
v 1.1 4.5 -0.1
v 1.1 4.5 -0.3
v 1.1 4.6 -0.1
v 1.1 4.6 -0.3
v 1.3 4.6 -0.1
v 1.3 4.6 -0.3
v 1.3 4.7 -0.1
v 1.3 4.7 -0.3
v 1.4 4.7 -0.1
v 1.4 4.7 -0.3
v 1.4 4.8 -0.1
v 1.4 4.8 -0.3
v 1.5 4.8 -0.1
v 1.5 4.8 -0.3
v 1.5 4.9 -0.1
v 1.5 4.9 -0.3
v 1.6 4.9 -0.1
v 1.6 4.9 -0.3
v 1.6 5 -0.1
v 1.6 5 -0.3
v 1.7 5 -0.1
v 1.7 5 -0.3
v 1.7 5.1 -0.1
v 1.7 5.1 -0.3
v 1.8 5.1 -0.1
v 1.8 5.1 -0.3
v 1.8 5.2 -0.1
v 1.8 5.2 -0.3
v 1.9 5.2 -0.1
v 1.9 5.2 -0.3
v 1.9 5.3 -0.1
v 1.9 5.3 -0.3
v 1.9 5.4 0
v 1.9 5.4 -0.4
v 1.9 5.8 0
v 1.9 5.8 -0.4
v 2 5.3 -0.1
v 2 5.3 -0.3
v 2 5.4 -0.1
v 2 5.4 -0.3
v 2.1 2 -0.1
v 2.1 2 -0.3
v 2.1 3.5 -0.1
v 2.1 3.5 -0.3
v 2.3 2 -0.1
v 2.3 2 -0.3
v 2.3 5.4 -0.1
v 2.3 5.4 -0.3
v 2.5 5.4 0
v 2.5 5.4 -0.4
v 2.5 5.8 0
v 2.5 5.8 -0.4
v 1.9 5.4 0
v 1.9 5.8 0
v 2.5 5.4 0
v 2.5 5.8 0
v 0 3.5 -0.1
v 0 3.6 -0.1
v 0.1 3.6 -0.1
v 0.1 3.7 -0.1
v 0.2 3.7 -0.1
v 0.2 3.8 -0.1
v 0.3 3.8 -0.1
v 0.3 3.9 -0.1
v 0.4 3.9 -0.1
v 0.4 4 -0.1
v 0.5 4 -0.1
v 0.5 4.1 -0.1
v 0.6 4.1 -0.1
v 0.6 4.2 -0.1
v 0.7 4.2 -0.1
v 0.7 4.3 -0.1
v 0.8 4.3 -0.1
v 0.8 4.4 -0.1
v 1 4.4 -0.1
v 1 4.5 -0.1
v 1.1 4.5 -0.1
v 1.1 4.6 -0.1
v 1.3 4.6 -0.1
v 1.3 4.7 -0.1
v 1.4 4.7 -0.1
v 1.4 4.8 -0.1
v 1.5 4.8 -0.1
v 1.5 4.9 -0.1
v 1.6 4.9 -0.1
v 1.6 5 -0.1
v 1.7 5 -0.1
v 1.7 5.1 -0.1
v 1.8 5.1 -0.1
v 1.8 5.2 -0.1
v 1.9 5.2 -0.1
v 1.9 5.3 -0.1
v 2 5.3 -0.1
v 2 5.4 -0.1
v 2.1 2 -0.1
v 2.1 3.5 -0.1
v 2.1 5.4 -0.1
v 2.3 2 -0.1
v 2.3 5.4 -0.1
v 0 3.5 -0.3
v 0 3.6 -0.3
v 0.1 3.6 -0.3
v 0.1 3.7 -0.3
v 0.2 3.7 -0.3
v 0.2 3.8 -0.3
v 0.3 3.8 -0.3
v 0.3 3.9 -0.3
v 0.4 3.9 -0.3
v 0.4 4 -0.3
v 0.5 4 -0.3
v 0.5 4.1 -0.3
v 0.6 4.1 -0.3
v 0.6 4.2 -0.3
v 0.7 4.2 -0.3
v 0.7 4.3 -0.3
v 0.8 4.3 -0.3
v 0.8 4.4 -0.3
v 1 4.4 -0.3
v 1 4.5 -0.3
v 1.1 4.5 -0.3
v 1.1 4.6 -0.3
v 1.3 4.6 -0.3
v 1.3 4.7 -0.3
v 1.4 4.7 -0.3
v 1.4 4.8 -0.3
v 1.5 4.8 -0.3
v 1.5 4.9 -0.3
v 1.6 4.9 -0.3
v 1.6 5 -0.3
v 1.7 5 -0.3
v 1.7 5.1 -0.3
v 1.8 5.1 -0.3
v 1.8 5.2 -0.3
v 1.9 5.2 -0.3
v 1.9 5.3 -0.3
v 2 5.3 -0.3
v 2 5.4 -0.3
v 2.1 2 -0.3
v 2.1 3.5 -0.3
v 2.1 5.4 -0.3
v 2.3 2 -0.3
v 2.3 5.4 -0.3
v 1.9 5.4 -0.4
v 1.9 5.8 -0.4
v 2.5 5.4 -0.4
v 2.5 5.8 -0.4
v 2.1 2 -0.1
v 2.3 2 -0.1
v 2.1 2 -0.3
v 2.3 2 -0.3
v 0 3.5 -0.1
v 2.1 3.5 -0.1
v 0 3.5 -0.3
v 2.1 3.5 -0.3
v 1.9 5.4 0
v 2.5 5.4 0
v 2 5.4 -0.1
v 2.1 5.4 -0.1
v 2.3 5.4 -0.1
v 2 5.4 -0.3
v 2.1 5.4 -0.3
v 2.3 5.4 -0.3
v 1.9 5.4 -0.4
v 2.5 5.4 -0.4
v 0 3.6 -0.1
v 0.1 3.6 -0.1
v 0 3.6 -0.3
v 0.1 3.6 -0.3
v 0.1 3.7 -0.1
v 0.2 3.7 -0.1
v 0.1 3.7 -0.3
v 0.2 3.7 -0.3
v 0.2 3.8 -0.1
v 0.3 3.8 -0.1
v 0.2 3.8 -0.3
v 0.3 3.8 -0.3
v 0.3 3.9 -0.1
v 0.4 3.9 -0.1
v 0.3 3.9 -0.3
v 0.4 3.9 -0.3
v 0.4 4 -0.1
v 0.5 4 -0.1
v 0.4 4 -0.3
v 0.5 4 -0.3
v 0.5 4.1 -0.1
v 0.6 4.1 -0.1
v 0.5 4.1 -0.3
v 0.6 4.1 -0.3
v 0.6 4.2 -0.1
v 0.7 4.2 -0.1
v 0.6 4.2 -0.3
v 0.7 4.2 -0.3
v 0.7 4.3 -0.1
v 0.8 4.3 -0.1
v 0.7 4.3 -0.3
v 0.8 4.3 -0.3
v 0.8 4.4 -0.1
v 1 4.4 -0.1
v 0.8 4.4 -0.3
v 1 4.4 -0.3
v 1 4.5 -0.1
v 1.1 4.5 -0.1
v 1 4.5 -0.3
v 1.1 4.5 -0.3
v 1.1 4.6 -0.1
v 1.3 4.6 -0.1
v 1.1 4.6 -0.3
v 1.3 4.6 -0.3
v 1.3 4.7 -0.1
v 1.4 4.7 -0.1
v 1.3 4.7 -0.3
v 1.4 4.7 -0.3
v 1.4 4.8 -0.1
v 1.5 4.8 -0.1
v 1.4 4.8 -0.3
v 1.5 4.8 -0.3
v 1.5 4.9 -0.1
v 1.6 4.9 -0.1
v 1.5 4.9 -0.3
v 1.6 4.9 -0.3
v 1.6 5 -0.1
v 1.7 5 -0.1
v 1.6 5 -0.3
v 1.7 5 -0.3
v 1.7 5.1 -0.1
v 1.8 5.1 -0.1
v 1.7 5.1 -0.3
v 1.8 5.1 -0.3
v 1.8 5.2 -0.1
v 1.9 5.2 -0.1
v 1.8 5.2 -0.3
v 1.9 5.2 -0.3
v 1.9 5.3 -0.1
v 2 5.3 -0.1
v 1.9 5.3 -0.3
v 2 5.3 -0.3
v 1.9 5.8 0
v 2.5 5.8 0
v 1.9 5.8 -0.4
v 2.5 5.8 -0.4

# faces
f 3/2/1 2/2/1 1/2/1
f 4/2/1 2/2/1 3/2/1
f 7/2/1 6/2/1 5/2/1
f 8/2/1 6/2/1 7/2/1
f 11/2/1 10/2/1 9/2/1
f 12/2/1 10/2/1 11/2/1
f 15/2/1 14/2/1 13/2/1
f 16/2/1 14/2/1 15/2/1
f 19/2/1 18/2/1 17/2/1
f 20/2/1 18/2/1 19/2/1
f 23/2/1 22/2/1 21/2/1
f 24/2/1 22/2/1 23/2/1
f 27/2/1 26/2/1 25/2/1
f 28/2/1 26/2/1 27/2/1
f 31/2/1 30/2/1 29/2/1
f 32/2/1 30/2/1 31/2/1
f 35/2/1 34/2/1 33/2/1
f 36/2/1 34/2/1 35/2/1
f 39/2/1 38/2/1 37/2/1
f 40/2/1 38/2/1 39/2/1
f 43/2/1 42/2/1 41/2/1
f 44/2/1 42/2/1 43/2/1
f 47/2/1 46/2/1 45/2/1
f 48/2/1 46/2/1 47/2/1
f 51/2/1 50/2/1 49/2/1
f 52/2/1 50/2/1 51/2/1
f 55/2/1 54/2/1 53/2/1
f 56/2/1 54/2/1 55/2/1
f 59/2/1 58/2/1 57/2/1
f 60/2/1 58/2/1 59/2/1
f 63/2/1 62/2/1 61/2/1
f 64/2/1 62/2/1 63/2/1
f 67/2/1 66/2/1 65/2/1
f 68/2/1 66/2/1 67/2/1
f 71/2/1 70/2/1 69/2/1
f 72/2/1 70/2/1 71/2/1
f 75/1/1 74/1/1 73/1/1
f 76/1/1 74/1/1 75/1/1
f 79/2/1 78/2/1 77/2/1
f 80/2/1 78/2/1 79/2/1
f 83/3/1 82/3/1 81/3/1
f 84/3/1 82/3/1 83/3/1
f 85/3/2 86/3/2 87/3/2
f 87/3/2 86/3/2 88/3/2
f 89/1/2 90/1/2 91/1/2
f 91/1/2 90/1/2 92/1/2
f 95/1/3 94/1/3 93/1/3
f 96/1/3 94/1/3 95/1/3
f 99/2/3 98/2/3 97/2/3
f 101/2/3 100/2/3 99/2/3
f 103/2/3 102/2/3 101/2/3
f 105/2/3 104/2/3 103/2/3
f 107/2/3 106/2/3 105/2/3
f 109/2/3 108/2/3 107/2/3
f 111/2/3 110/2/3 109/2/3
f 113/2/3 112/2/3 111/2/3
f 115/2/3 114/2/3 113/2/3
f 117/2/3 116/2/3 115/2/3
f 119/2/3 118/2/3 117/2/3
f 121/2/3 120/2/3 119/2/3
f 123/2/3 122/2/3 121/2/3
f 125/2/3 124/2/3 123/2/3
f 127/2/3 126/2/3 125/2/3
f 129/2/3 128/2/3 127/2/3
f 131/2/3 130/2/3 129/2/3
f 133/2/3 132/2/3 131/2/3
f 136/2/3 99/2/3 97/2/3
f 136/2/3 134/2/3 133/2/3
f 136/2/3 133/2/3 131/2/3
f 136/2/3 131/2/3 129/2/3
f 136/2/3 129/2/3 127/2/3
f 136/2/3 127/2/3 125/2/3
f 136/2/3 125/2/3 123/2/3
f 136/2/3 123/2/3 121/2/3
f 136/2/3 121/2/3 119/2/3
f 136/2/3 119/2/3 117/2/3
f 136/2/3 117/2/3 115/2/3
f 136/2/3 115/2/3 113/2/3
f 136/2/3 113/2/3 111/2/3
f 136/2/3 111/2/3 109/2/3
f 136/2/3 109/2/3 107/2/3
f 136/2/3 107/2/3 105/2/3
f 136/2/3 105/2/3 103/2/3
f 136/2/3 103/2/3 101/2/3
f 136/2/3 101/2/3 99/2/3
f 137/2/3 134/2/3 136/2/3
f 138/3/3 136/3/3 135/3/3
f 138/3/3 137/3/3 136/3/3
f 139/3/3 137/3/3 138/3/3
f 140/2/4 141/2/4 142/2/4
f 142/2/4 143/2/4 144/2/4
f 144/2/4 145/2/4 146/2/4
f 146/2/4 147/2/4 148/2/4
f 148/2/4 149/2/4 150/2/4
f 150/2/4 151/2/4 152/2/4
f 152/2/4 153/2/4 154/2/4
f 154/2/4 155/2/4 156/2/4
f 156/2/4 157/2/4 158/2/4
f 158/2/4 159/2/4 160/2/4
f 160/2/4 161/2/4 162/2/4
f 162/2/4 163/2/4 164/2/4
f 164/2/4 165/2/4 166/2/4
f 166/2/4 167/2/4 168/2/4
f 168/2/4 169/2/4 170/2/4
f 170/2/4 171/2/4 172/2/4
f 172/2/4 173/2/4 174/2/4
f 174/2/4 175/2/4 176/2/4
f 140/2/4 142/2/4 179/2/4
f 176/2/4 177/2/4 179/2/4
f 174/2/4 176/2/4 179/2/4
f 172/2/4 174/2/4 179/2/4
f 170/2/4 172/2/4 179/2/4
f 168/2/4 170/2/4 179/2/4
f 166/2/4 168/2/4 179/2/4
f 164/2/4 166/2/4 179/2/4
f 162/2/4 164/2/4 179/2/4
f 160/2/4 162/2/4 179/2/4
f 158/2/4 160/2/4 179/2/4
f 156/2/4 158/2/4 179/2/4
f 154/2/4 156/2/4 179/2/4
f 152/2/4 154/2/4 179/2/4
f 150/2/4 152/2/4 179/2/4
f 148/2/4 150/2/4 179/2/4
f 146/2/4 148/2/4 179/2/4
f 144/2/4 146/2/4 179/2/4
f 142/2/4 144/2/4 179/2/4
f 179/2/4 177/2/4 180/2/4
f 178/3/4 179/3/4 181/3/4
f 179/3/4 180/3/4 181/3/4
f 181/3/4 180/3/4 182/3/4
f 183/1/4 184/1/4 185/1/4
f 185/1/4 184/1/4 186/1/4
f 189/3/5 188/3/5 187/3/5
f 190/3/5 188/3/5 189/3/5
f 193/2/5 192/2/5 191/2/5
f 194/2/5 192/2/5 193/2/5
f 197/1/5 196/1/5 195/1/5
f 198/1/5 196/1/5 197/1/5
f 199/1/5 196/1/5 198/1/5
f 200/1/5 197/1/5 195/1/5
f 202/1/5 196/1/5 199/1/5
f 203/1/5 201/1/5 200/1/5
f 203/1/5 202/1/5 201/1/5
f 203/1/5 200/1/5 195/1/5
f 204/1/5 196/1/5 202/1/5
f 204/1/5 202/1/5 203/1/5
f 205/2/6 206/2/6 207/2/6
f 207/2/6 206/2/6 208/2/6
f 209/2/6 210/2/6 211/2/6
f 211/2/6 210/2/6 212/2/6
f 213/2/6 214/2/6 215/2/6
f 215/2/6 214/2/6 216/2/6
f 217/2/6 218/2/6 219/2/6
f 219/2/6 218/2/6 220/2/6
f 221/2/6 222/2/6 223/2/6
f 223/2/6 222/2/6 224/2/6
f 225/2/6 226/2/6 227/2/6
f 227/2/6 226/2/6 228/2/6
f 229/2/6 230/2/6 231/2/6
f 231/2/6 230/2/6 232/2/6
f 233/2/6 234/2/6 235/2/6
f 235/2/6 234/2/6 236/2/6
f 237/2/6 238/2/6 239/2/6
f 239/2/6 238/2/6 240/2/6
f 241/2/6 242/2/6 243/2/6
f 243/2/6 242/2/6 244/2/6
f 245/2/6 246/2/6 247/2/6
f 247/2/6 246/2/6 248/2/6
f 249/2/6 250/2/6 251/2/6
f 251/2/6 250/2/6 252/2/6
f 253/2/6 254/2/6 255/2/6
f 255/2/6 254/2/6 256/2/6
f 257/2/6 258/2/6 259/2/6
f 259/2/6 258/2/6 260/2/6
f 261/2/6 262/2/6 263/2/6
f 263/2/6 262/2/6 264/2/6
f 265/2/6 266/2/6 267/2/6
f 267/2/6 266/2/6 268/2/6
f 269/2/6 270/2/6 271/2/6
f 271/2/6 270/2/6 272/2/6
f 273/2/6 274/2/6 275/2/6
f 275/2/6 274/2/6 276/2/6
f 277/1/6 278/1/6 279/1/6
f 279/1/6 278/1/6 280/1/6
