# MagicaVoxel @ Ephtracy

# group
o 

# material
mtllib ninzin_swrode.mtl
usemtl palette

# normals
vn -1 0 0
vn 1 0 0
vn 0 0 1
vn 0 0 -1
vn 0 -1 0
vn 0 1 0

# texcoords
vt 0.0917969 0.5
vt 0.904297 0.5
vt 0.982422 0.5
vt 0.986328 0.5
vt 0.994141 0.5

# verts
v 0 4 0
v 0 4 -0.2
v 0 4.2 0
v 0 4.2 -0.2
v 0.2 3.6 0
v 0.2 3.6 -0.2
v 0.2 4 0
v 0.2 4 -0.2
v 0.4 3.4 0
v 0.4 3.4 -0.2
v 0.4 3.6 0
v 0.4 3.6 -0.2
v 0.6 3.2 0
v 0.6 3.2 -0.2
v 0.6 3.4 0
v 0.6 3.4 -0.2
v 0.7 5.3 0
v 0.7 5.3 -0.2
v 0.7 5.4 0
v 0.7 5.4 -0.2
v 0.7 6.2 0
v 0.7 6.2 -0.2
v 0.7 6.3 0
v 0.7 6.3 -0.2
v 0.8 5.2 0
v 0.8 5.2 -0.2
v 0.8 5.3 0
v 0.8 5.3 -0.2
v 0.8 6.3 0
v 0.8 6.3 -0.2
v 0.8 6.4 0
v 0.8 6.4 -0.2
v 0.9 4.9 0
v 0.9 4.9 -0.2
v 0.9 5.2 0
v 0.9 5.2 -0.2
v 0.9 6.4 0
v 0.9 6.4 -0.2
v 0.9 6.5 0
v 0.9 6.5 -0.2
v 1 2 0
v 1 2 -0.2
v 1 2.2 0
v 1 2.2 -0.2
v 1 2.4 0
v 1 2.4 -0.2
v 1 2.6 0
v 1 2.6 -0.2
v 1 2.8 0
v 1 2.8 -0.2
v 1 3 0
v 1 3 -0.2
v 1 3.2 0
v 1 3.2 -0.2
v 1 3.8 0
v 1 3.8 -0.2
v 1 4.9 0
v 1 4.9 -0.2
v 1 6.5 0
v 1 6.5 -0.2
v 1 7.2 0
v 1 7.2 -0.2
v 1.1 7.2 0
v 1.1 7.2 -0.2
v 1.1 7.3 0
v 1.1 7.3 -0.2
v 1.2 7.3 0
v 1.2 7.3 -0.2
v 1.2 7.4 0
v 1.2 7.4 -0.2
v 1.8 3.8 0
v 1.8 3.8 -0.2
v 1.8 4 0
v 1.8 4 -0.2
v 2 4 0
v 2 4 -0.2
v 2 4.2 0
v 2 4.2 -0.2
v 0.6 4 0
v 0.6 4 -0.2
v 0.6 4.2 0
v 0.6 4.2 -0.2
v 0.8 3.8 0
v 0.8 3.8 -0.2
v 0.8 4 0
v 0.8 4 -0.2
v 1.4 7.3 0
v 1.4 7.3 -0.2
v 1.4 7.4 0
v 1.4 7.4 -0.2
v 1.5 7.2 0
v 1.5 7.2 -0.2
v 1.5 7.3 0
v 1.5 7.3 -0.2
v 1.6 2 0
v 1.6 2 -0.2
v 1.6 2.2 0
v 1.6 2.2 -0.2
v 1.6 2.4 0
v 1.6 2.4 -0.2
v 1.6 2.6 0
v 1.6 2.6 -0.2
v 1.6 2.8 0
v 1.6 2.8 -0.2
v 1.6 3 0
v 1.6 3 -0.2
v 1.6 3.2 0
v 1.6 3.2 -0.2
v 1.6 3.8 0
v 1.6 3.8 -0.2
v 1.6 4.9 0
v 1.6 4.9 -0.2
v 1.6 6.5 0
v 1.6 6.5 -0.2
v 1.6 7.2 0
v 1.6 7.2 -0.2
v 1.7 4.9 0
v 1.7 4.9 -0.2
v 1.7 5.2 0
v 1.7 5.2 -0.2
v 1.7 6.4 0
v 1.7 6.4 -0.2
v 1.7 6.5 0
v 1.7 6.5 -0.2
v 1.8 5.2 0
v 1.8 5.2 -0.2
v 1.8 5.3 0
v 1.8 5.3 -0.2
v 1.8 6.3 0
v 1.8 6.3 -0.2
v 1.8 6.4 0
v 1.8 6.4 -0.2
v 1.9 5.3 0
v 1.9 5.3 -0.2
v 1.9 5.4 0
v 1.9 5.4 -0.2
v 1.9 6.2 0
v 1.9 6.2 -0.2
v 1.9 6.3 0
v 1.9 6.3 -0.2
v 2 3.2 0
v 2 3.2 -0.2
v 2 3.4 0
v 2 3.4 -0.2
v 2.2 3.4 0
v 2.2 3.4 -0.2
v 2.2 3.6 0
v 2.2 3.6 -0.2
v 2.4 3.6 0
v 2.4 3.6 -0.2
v 2.4 4 0
v 2.4 4 -0.2
v 2.6 4 0
v 2.6 4 -0.2
v 2.6 4.2 0
v 2.6 4.2 -0.2
v 0 4 0
v 0 4.2 0
v 0.2 3.6 0
v 0.2 4 0
v 0.4 3.4 0
v 0.4 3.6 0
v 0.6 3.2 0
v 0.6 3.4 0
v 0.6 4 0
v 0.6 4.2 0
v 0.7 5.3 0
v 0.7 5.4 0
v 0.7 6.2 0
v 0.7 6.3 0
v 0.8 3.8 0
v 0.8 4 0
v 0.8 5.2 0
v 0.8 5.3 0
v 0.8 5.4 0
v 0.8 5.5 0
v 0.8 6.1 0
v 0.8 6.2 0
v 0.8 6.3 0
v 0.8 6.4 0
v 0.9 4.9 0
v 0.9 5.2 0
v 0.9 5.4 0
v 0.9 5.5 0
v 0.9 5.6 0
v 0.9 6 0
v 0.9 6.1 0
v 0.9 6.2 0
v 0.9 6.4 0
v 0.9 6.5 0
v 1 2 0
v 1 2.2 0
v 1 2.4 0
v 1 2.6 0
v 1 2.8 0
v 1 3 0
v 1 3.2 0
v 1 3.6 0
v 1 3.8 0
v 1 4.9 0
v 1 5.5 0
v 1 5.6 0
v 1 5.7 0
v 1 5.9 0
v 1 6 0
v 1 6.1 0
v 1 6.5 0
v 1 7.2 0
v 1.1 5.6 0
v 1.1 5.7 0
v 1.1 5.9 0
v 1.1 6 0
v 1.1 7.2 0
v 1.1 7.3 0
v 1.2 3.6 0
v 1.2 5.7 0
v 1.2 5.9 0
v 1.2 7.3 0
v 1.2 7.4 0
v 1.4 3.6 0
v 1.4 5.7 0
v 1.4 5.9 0
v 1.4 7.3 0
v 1.4 7.4 0
v 1.5 5.6 0
v 1.5 5.7 0
v 1.5 5.9 0
v 1.5 6 0
v 1.5 7.2 0
v 1.5 7.3 0
v 1.6 2 0
v 1.6 2.2 0
v 1.6 2.4 0
v 1.6 2.6 0
v 1.6 2.8 0
v 1.6 3 0
v 1.6 3.2 0
v 1.6 3.6 0
v 1.6 3.8 0
v 1.6 4.9 0
v 1.6 5.5 0
v 1.6 5.6 0
v 1.6 5.7 0
v 1.6 5.9 0
v 1.6 6 0
v 1.6 6.1 0
v 1.6 6.5 0
v 1.6 7.2 0
v 1.7 4.9 0
v 1.7 5.2 0
v 1.7 5.4 0
v 1.7 5.5 0
v 1.7 5.6 0
v 1.7 6 0
v 1.7 6.1 0
v 1.7 6.2 0
v 1.7 6.4 0
v 1.7 6.5 0
v 1.8 3.8 0
v 1.8 4 0
v 1.8 5.2 0
v 1.8 5.3 0
v 1.8 5.4 0
v 1.8 5.5 0
v 1.8 6.1 0
v 1.8 6.2 0
v 1.8 6.3 0
v 1.8 6.4 0
v 1.9 5.3 0
v 1.9 5.4 0
v 1.9 6.2 0
v 1.9 6.3 0
v 2 3.2 0
v 2 3.4 0
v 2 4 0
v 2 4.2 0
v 2.2 3.4 0
v 2.2 3.6 0
v 2.4 3.6 0
v 2.4 4 0
v 2.6 4 0
v 2.6 4.2 0
v 0 4 -0.2
v 0 4.2 -0.2
v 0.2 3.6 -0.2
v 0.2 4 -0.2
v 0.4 3.4 -0.2
v 0.4 3.6 -0.2
v 0.6 3.2 -0.2
v 0.6 3.4 -0.2
v 0.6 4 -0.2
v 0.6 4.2 -0.2
v 0.7 5.3 -0.2
v 0.7 5.4 -0.2
v 0.7 6.2 -0.2
v 0.7 6.3 -0.2
v 0.8 3.8 -0.2
v 0.8 4 -0.2
v 0.8 5.2 -0.2
v 0.8 5.3 -0.2
v 0.8 5.4 -0.2
v 0.8 5.5 -0.2
v 0.8 6.1 -0.2
v 0.8 6.2 -0.2
v 0.8 6.3 -0.2
v 0.8 6.4 -0.2
v 0.9 4.9 -0.2
v 0.9 5.2 -0.2
v 0.9 5.4 -0.2
v 0.9 5.5 -0.2
v 0.9 5.6 -0.2
v 0.9 6 -0.2
v 0.9 6.1 -0.2
v 0.9 6.2 -0.2
v 0.9 6.4 -0.2
v 0.9 6.5 -0.2
v 1 2 -0.2
v 1 2.2 -0.2
v 1 2.4 -0.2
v 1 2.6 -0.2
v 1 2.8 -0.2
v 1 3 -0.2
v 1 3.2 -0.2
v 1 3.6 -0.2
v 1 3.8 -0.2
v 1 4.9 -0.2
v 1 5.5 -0.2
v 1 5.6 -0.2
v 1 5.7 -0.2
v 1 5.9 -0.2
v 1 6 -0.2
v 1 6.1 -0.2
v 1 6.5 -0.2
v 1 7.2 -0.2
v 1.1 5.6 -0.2
v 1.1 5.7 -0.2
v 1.1 5.9 -0.2
v 1.1 6 -0.2
v 1.1 7.2 -0.2
v 1.1 7.3 -0.2
v 1.2 3.6 -0.2
v 1.2 5.7 -0.2
v 1.2 5.9 -0.2
v 1.2 7.3 -0.2
v 1.2 7.4 -0.2
v 1.4 3.6 -0.2
v 1.4 5.7 -0.2
v 1.4 5.9 -0.2
v 1.4 7.3 -0.2
v 1.4 7.4 -0.2
v 1.5 5.6 -0.2
v 1.5 5.7 -0.2
v 1.5 5.9 -0.2
v 1.5 6 -0.2
v 1.5 7.2 -0.2
v 1.5 7.3 -0.2
v 1.6 2 -0.2
v 1.6 2.2 -0.2
v 1.6 2.4 -0.2
v 1.6 2.6 -0.2
v 1.6 2.8 -0.2
v 1.6 3 -0.2
v 1.6 3.2 -0.2
v 1.6 3.6 -0.2
v 1.6 3.8 -0.2
v 1.6 4.9 -0.2
v 1.6 5.5 -0.2
v 1.6 5.6 -0.2
v 1.6 5.7 -0.2
v 1.6 5.9 -0.2
v 1.6 6 -0.2
v 1.6 6.1 -0.2
v 1.6 6.5 -0.2
v 1.6 7.2 -0.2
v 1.7 4.9 -0.2
v 1.7 5.2 -0.2
v 1.7 5.4 -0.2
v 1.7 5.5 -0.2
v 1.7 5.6 -0.2
v 1.7 6 -0.2
v 1.7 6.1 -0.2
v 1.7 6.2 -0.2
v 1.7 6.4 -0.2
v 1.7 6.5 -0.2
v 1.8 3.8 -0.2
v 1.8 4 -0.2
v 1.8 5.2 -0.2
v 1.8 5.3 -0.2
v 1.8 5.4 -0.2
v 1.8 5.5 -0.2
v 1.8 6.1 -0.2
v 1.8 6.2 -0.2
v 1.8 6.3 -0.2
v 1.8 6.4 -0.2
v 1.9 5.3 -0.2
v 1.9 5.4 -0.2
v 1.9 6.2 -0.2
v 1.9 6.3 -0.2
v 2 3.2 -0.2
v 2 3.4 -0.2
v 2 4 -0.2
v 2 4.2 -0.2
v 2.2 3.4 -0.2
v 2.2 3.6 -0.2
v 2.4 3.6 -0.2
v 2.4 4 -0.2
v 2.6 4 -0.2
v 2.6 4.2 -0.2
v 1 2 0
v 1.6 2 0
v 1 2 -0.2
v 1.6 2 -0.2
v 0.6 3.2 0
v 1 3.2 0
v 1.6 3.2 0
v 2 3.2 0
v 0.6 3.2 -0.2
v 1 3.2 -0.2
v 1.6 3.2 -0.2
v 2 3.2 -0.2
v 0.4 3.4 0
v 0.6 3.4 0
v 2 3.4 0
v 2.2 3.4 0
v 0.4 3.4 -0.2
v 0.6 3.4 -0.2
v 2 3.4 -0.2
v 2.2 3.4 -0.2
v 0.2 3.6 0
v 0.4 3.6 0
v 2.2 3.6 0
v 2.4 3.6 0
v 0.2 3.6 -0.2
v 0.4 3.6 -0.2
v 2.2 3.6 -0.2
v 2.4 3.6 -0.2
v 0 4 0
v 0.2 4 0
v 2.4 4 0
v 2.6 4 0
v 0 4 -0.2
v 0.2 4 -0.2
v 2.4 4 -0.2
v 2.6 4 -0.2
v 0.9 4.9 0
v 1 4.9 0
v 1.6 4.9 0
v 1.7 4.9 0
v 0.9 4.9 -0.2
v 1 4.9 -0.2
v 1.6 4.9 -0.2
v 1.7 4.9 -0.2
v 0.8 5.2 0
v 0.9 5.2 0
v 1.7 5.2 0
v 1.8 5.2 0
v 0.8 5.2 -0.2
v 0.9 5.2 -0.2
v 1.7 5.2 -0.2
v 1.8 5.2 -0.2
v 0.7 5.3 0
v 0.8 5.3 0
v 1.8 5.3 0
v 1.9 5.3 0
v 0.7 5.3 -0.2
v 0.8 5.3 -0.2
v 1.8 5.3 -0.2
v 1.9 5.3 -0.2
v 0.8 3.8 0
v 1 3.8 0
v 1.6 3.8 0
v 1.8 3.8 0
v 0.8 3.8 -0.2
v 1 3.8 -0.2
v 1.6 3.8 -0.2
v 1.8 3.8 -0.2
v 0.6 4 0
v 0.8 4 0
v 1.8 4 0
v 2 4 0
v 0.6 4 -0.2
v 0.8 4 -0.2
v 1.8 4 -0.2
v 2 4 -0.2
v 0 4.2 0
v 0.6 4.2 0
v 2 4.2 0
v 2.6 4.2 0
v 0 4.2 -0.2
v 0.6 4.2 -0.2
v 2 4.2 -0.2
v 2.6 4.2 -0.2
v 0.7 6.3 0
v 0.8 6.3 0
v 1.8 6.3 0
v 1.9 6.3 0
v 0.7 6.3 -0.2
v 0.8 6.3 -0.2
v 1.8 6.3 -0.2
v 1.9 6.3 -0.2
v 0.8 6.4 0
v 0.9 6.4 0
v 1.7 6.4 0
v 1.8 6.4 0
v 0.8 6.4 -0.2
v 0.9 6.4 -0.2
v 1.7 6.4 -0.2
v 1.8 6.4 -0.2
v 0.9 6.5 0
v 1 6.5 0
v 1.6 6.5 0
v 1.7 6.5 0
v 0.9 6.5 -0.2
v 1 6.5 -0.2
v 1.6 6.5 -0.2
v 1.7 6.5 -0.2
v 1 7.2 0
v 1.1 7.2 0
v 1.5 7.2 0
v 1.6 7.2 0
v 1 7.2 -0.2
v 1.1 7.2 -0.2
v 1.5 7.2 -0.2
v 1.6 7.2 -0.2
v 1.1 7.3 0
v 1.2 7.3 0
v 1.4 7.3 0
v 1.5 7.3 0
v 1.1 7.3 -0.2
v 1.2 7.3 -0.2
v 1.4 7.3 -0.2
v 1.5 7.3 -0.2
v 1.2 7.4 0
v 1.4 7.4 0
v 1.2 7.4 -0.2
v 1.4 7.4 -0.2

# faces
f 3/2/1 2/2/1 1/2/1
f 4/2/1 2/2/1 3/2/1
f 7/2/1 6/2/1 5/2/1
f 8/2/1 6/2/1 7/2/1
f 11/2/1 10/2/1 9/2/1
f 12/2/1 10/2/1 11/2/1
f 15/2/1 14/2/1 13/2/1
f 16/2/1 14/2/1 15/2/1
f 19/5/1 18/5/1 17/5/1
f 20/5/1 18/5/1 19/5/1
f 21/1/1 20/1/1 19/1/1
f 22/1/1 20/1/1 21/1/1
f 23/5/1 22/5/1 21/5/1
f 24/5/1 22/5/1 23/5/1
f 27/1/1 26/1/1 25/1/1
f 28/1/1 26/1/1 27/1/1
f 31/1/1 30/1/1 29/1/1
f 32/1/1 30/1/1 31/1/1
f 35/1/1 34/1/1 33/1/1
f 36/1/1 34/1/1 35/1/1
f 39/1/1 38/1/1 37/1/1
f 40/1/1 38/1/1 39/1/1
f 43/3/1 42/3/1 41/3/1
f 44/3/1 42/3/1 43/3/1
f 45/4/1 44/4/1 43/4/1
f 46/4/1 44/4/1 45/4/1
f 47/3/1 46/3/1 45/3/1
f 48/3/1 46/3/1 47/3/1
f 49/4/1 48/4/1 47/4/1
f 50/4/1 48/4/1 49/4/1
f 51/3/1 50/3/1 49/3/1
f 52/3/1 50/3/1 51/3/1
f 53/4/1 52/4/1 51/4/1
f 54/4/1 52/4/1 53/4/1
f 57/1/1 56/1/1 55/1/1
f 58/1/1 56/1/1 57/1/1
f 61/1/1 60/1/1 59/1/1
f 62/1/1 60/1/1 61/1/1
f 65/1/1 64/1/1 63/1/1
f 66/1/1 64/1/1 65/1/1
f 69/1/1 68/1/1 67/1/1
f 70/1/1 68/1/1 69/1/1
f 73/2/1 72/2/1 71/2/1
f 74/2/1 72/2/1 73/2/1
f 77/2/1 76/2/1 75/2/1
f 78/2/1 76/2/1 77/2/1
f 79/2/2 80/2/2 81/2/2
f 81/2/2 80/2/2 82/2/2
f 83/2/2 84/2/2 85/2/2
f 85/2/2 84/2/2 86/2/2
f 87/1/2 88/1/2 89/1/2
f 89/1/2 88/1/2 90/1/2
f 91/1/2 92/1/2 93/1/2
f 93/1/2 92/1/2 94/1/2
f 95/3/2 96/3/2 97/3/2
f 97/3/2 96/3/2 98/3/2
f 97/4/2 98/4/2 99/4/2
f 99/4/2 98/4/2 100/4/2
f 99/3/2 100/3/2 101/3/2
f 101/3/2 100/3/2 102/3/2
f 101/4/2 102/4/2 103/4/2
f 103/4/2 102/4/2 104/4/2
f 103/3/2 104/3/2 105/3/2
f 105/3/2 104/3/2 106/3/2
f 105/4/2 106/4/2 107/4/2
f 107/4/2 106/4/2 108/4/2
f 109/1/2 110/1/2 111/1/2
f 111/1/2 110/1/2 112/1/2
f 113/1/2 114/1/2 115/1/2
f 115/1/2 114/1/2 116/1/2
f 117/1/2 118/1/2 119/1/2
f 119/1/2 118/1/2 120/1/2
f 121/1/2 122/1/2 123/1/2
f 123/1/2 122/1/2 124/1/2
f 125/1/2 126/1/2 127/1/2
f 127/1/2 126/1/2 128/1/2
f 129/1/2 130/1/2 131/1/2
f 131/1/2 130/1/2 132/1/2
f 133/5/2 134/5/2 135/5/2
f 135/5/2 134/5/2 136/5/2
f 135/1/2 136/1/2 137/1/2
f 137/1/2 136/1/2 138/1/2
f 137/5/2 138/5/2 139/5/2
f 139/5/2 138/5/2 140/5/2
f 141/2/2 142/2/2 143/2/2
f 143/2/2 142/2/2 144/2/2
f 145/2/2 146/2/2 147/2/2
f 147/2/2 146/2/2 148/2/2
f 149/2/2 150/2/2 151/2/2
f 151/2/2 150/2/2 152/2/2
f 153/2/2 154/2/2 155/2/2
f 155/2/2 154/2/2 156/2/2
f 160/2/3 158/2/3 157/2/3
f 162/2/3 160/2/3 159/2/3
f 164/2/3 162/2/3 161/2/3
f 165/2/3 158/2/3 160/2/3
f 165/2/3 160/2/3 162/2/3
f 165/2/3 162/2/3 164/2/3
f 166/2/3 158/2/3 165/2/3
f 171/2/3 164/2/3 163/2/3
f 171/2/3 165/2/3 164/2/3
f 172/2/3 165/2/3 171/2/3
f 174/5/3 168/5/3 167/5/3
f 175/1/3 169/1/3 168/1/3
f 175/5/3 168/5/3 174/5/3
f 176/1/3 169/1/3 175/1/3
f 177/1/3 169/1/3 176/1/3
f 178/5/3 170/5/3 169/5/3
f 178/1/3 169/1/3 177/1/3
f 179/5/3 170/5/3 178/5/3
f 182/1/3 174/1/3 173/1/3
f 182/1/3 175/1/3 174/1/3
f 183/5/3 176/5/3 175/5/3
f 183/1/3 175/1/3 182/1/3
f 184/1/3 177/1/3 176/1/3
f 184/5/3 176/5/3 183/5/3
f 185/1/3 177/1/3 184/1/3
f 186/1/3 177/1/3 185/1/3
f 187/5/3 178/5/3 177/5/3
f 187/1/3 177/1/3 186/1/3
f 188/1/3 179/1/3 178/1/3
f 188/5/3 178/5/3 187/5/3
f 188/1/3 180/1/3 179/1/3
f 189/1/3 180/1/3 188/1/3
f 197/2/3 171/2/3 163/2/3
f 198/2/3 171/2/3 197/2/3
f 199/2/3 171/2/3 198/2/3
f 200/1/3 183/1/3 182/1/3
f 200/1/3 182/1/3 181/1/3
f 200/1/3 184/1/3 183/1/3
f 201/5/3 185/5/3 184/5/3
f 201/1/3 184/1/3 200/1/3
f 202/1/3 186/1/3 185/1/3
f 202/5/3 185/5/3 201/5/3
f 203/1/3 186/1/3 202/1/3
f 204/1/3 186/1/3 203/1/3
f 205/5/3 187/5/3 186/5/3
f 205/1/3 186/1/3 204/1/3
f 206/1/3 188/1/3 187/1/3
f 206/5/3 187/5/3 205/5/3
f 206/1/3 189/1/3 188/1/3
f 206/1/3 190/1/3 189/1/3
f 207/1/3 190/1/3 206/1/3
f 209/1/3 199/1/3 198/1/3
f 209/1/3 200/1/3 199/1/3
f 209/1/3 201/1/3 200/1/3
f 209/5/3 203/5/3 202/5/3
f 209/1/3 202/1/3 201/1/3
f 210/1/3 204/1/3 203/1/3
f 210/5/3 203/5/3 209/5/3
f 211/5/3 205/5/3 204/5/3
f 211/1/3 204/1/3 210/1/3
f 212/1/3 208/1/3 207/1/3
f 212/5/3 205/5/3 211/5/3
f 212/1/3 207/1/3 206/1/3
f 212/1/3 206/1/3 205/1/3
f 213/1/3 208/1/3 212/1/3
f 215/1/3 209/1/3 198/1/3
f 215/2/3 198/2/3 197/2/3
f 215/1/3 210/1/3 209/1/3
f 216/5/3 211/5/3 210/5/3
f 216/1/3 210/1/3 215/1/3
f 217/1/3 214/1/3 213/1/3
f 217/5/3 211/5/3 216/5/3
f 217/1/3 213/1/3 212/1/3
f 217/1/3 212/1/3 211/1/3
f 218/1/3 214/1/3 217/1/3
f 220/2/3 215/2/3 197/2/3
f 220/5/3 216/5/3 215/5/3
f 220/5/3 218/5/3 217/5/3
f 220/5/3 217/5/3 216/5/3
f 221/5/3 218/5/3 220/5/3
f 222/5/3 218/5/3 221/5/3
f 223/1/3 219/1/3 218/1/3
f 223/5/3 218/5/3 222/5/3
f 224/1/3 219/1/3 223/1/3
f 225/1/3 221/1/3 220/1/3
f 226/5/3 222/5/3 221/5/3
f 226/1/3 221/1/3 225/1/3
f 227/1/3 223/1/3 222/1/3
f 227/5/3 222/5/3 226/5/3
f 228/1/3 223/1/3 227/1/3
f 229/1/3 223/1/3 228/1/3
f 230/1/3 223/1/3 229/1/3
f 231/3/3 192/3/3 191/3/3
f 232/4/3 193/4/3 192/4/3
f 232/3/3 192/3/3 231/3/3
f 233/3/3 194/3/3 193/3/3
f 233/4/3 193/4/3 232/4/3
f 234/4/3 195/4/3 194/4/3
f 234/3/3 194/3/3 233/3/3
f 235/3/3 196/3/3 195/3/3
f 235/4/3 195/4/3 234/4/3
f 236/4/3 197/4/3 196/4/3
f 236/3/3 196/3/3 235/3/3
f 237/2/3 220/2/3 197/2/3
f 237/4/3 197/4/3 236/4/3
f 238/1/3 225/1/3 220/1/3
f 238/2/3 220/2/3 237/2/3
f 239/1/3 225/1/3 238/1/3
f 240/1/3 225/1/3 239/1/3
f 241/1/3 225/1/3 240/1/3
f 242/5/3 226/5/3 225/5/3
f 242/1/3 225/1/3 241/1/3
f 243/1/3 227/1/3 226/1/3
f 243/5/3 226/5/3 242/5/3
f 244/5/3 228/5/3 227/5/3
f 244/1/3 227/1/3 243/1/3
f 245/1/3 229/1/3 228/1/3
f 245/5/3 228/5/3 244/5/3
f 246/1/3 229/1/3 245/1/3
f 247/1/3 229/1/3 246/1/3
f 248/1/3 229/1/3 247/1/3
f 249/1/3 241/1/3 240/1/3
f 250/1/3 241/1/3 249/1/3
f 251/1/3 241/1/3 250/1/3
f 252/5/3 242/5/3 241/5/3
f 252/1/3 241/1/3 251/1/3
f 253/1/3 245/1/3 244/1/3
f 253/5/3 242/5/3 252/5/3
f 253/1/3 244/1/3 243/1/3
f 253/1/3 243/1/3 242/1/3
f 254/5/3 246/5/3 245/5/3
f 254/1/3 245/1/3 253/1/3
f 255/1/3 247/1/3 246/1/3
f 255/5/3 246/5/3 254/5/3
f 256/1/3 247/1/3 255/1/3
f 257/1/3 247/1/3 256/1/3
f 258/1/3 247/1/3 257/1/3
f 259/2/3 239/2/3 238/2/3
f 259/2/3 238/2/3 237/2/3
f 261/1/3 251/1/3 250/1/3
f 262/1/3 251/1/3 261/1/3
f 263/5/3 252/5/3 251/5/3
f 263/1/3 251/1/3 262/1/3
f 264/1/3 254/1/3 253/1/3
f 264/5/3 252/5/3 263/5/3
f 264/1/3 253/1/3 252/1/3
f 264/1/3 255/1/3 254/1/3
f 265/5/3 256/5/3 255/5/3
f 265/1/3 255/1/3 264/1/3
f 266/1/3 257/1/3 256/1/3
f 266/5/3 256/5/3 265/5/3
f 267/1/3 257/1/3 266/1/3
f 268/1/3 257/1/3 267/1/3
f 269/5/3 263/5/3 262/5/3
f 270/1/3 265/1/3 264/1/3
f 270/5/3 263/5/3 269/5/3
f 270/1/3 264/1/3 263/1/3
f 270/1/3 266/1/3 265/1/3
f 271/5/3 267/5/3 266/5/3
f 271/1/3 266/1/3 270/1/3
f 272/5/3 267/5/3 271/5/3
f 273/2/3 259/2/3 237/2/3
f 273/2/3 260/2/3 259/2/3
f 274/2/3 260/2/3 273/2/3
f 275/2/3 260/2/3 274/2/3
f 277/2/3 276/2/3 275/2/3
f 277/2/3 275/2/3 274/2/3
f 278/2/3 276/2/3 277/2/3
f 279/2/3 276/2/3 278/2/3
f 280/2/3 276/2/3 279/2/3
f 281/2/3 276/2/3 280/2/3
f 282/2/3 276/2/3 281/2/3
f 283/2/4 284/2/4 286/2/4
f 285/2/4 286/2/4 288/2/4
f 287/2/4 288/2/4 290/2/4
f 286/2/4 284/2/4 291/2/4
f 288/2/4 286/2/4 291/2/4
f 290/2/4 288/2/4 291/2/4
f 291/2/4 284/2/4 292/2/4
f 289/2/4 290/2/4 297/2/4
f 290/2/4 291/2/4 297/2/4
f 297/2/4 291/2/4 298/2/4
f 293/5/4 294/5/4 300/5/4
f 294/1/4 295/1/4 301/1/4
f 300/5/4 294/5/4 301/5/4
f 301/1/4 295/1/4 302/1/4
f 302/1/4 295/1/4 303/1/4
f 295/5/4 296/5/4 304/5/4
f 303/1/4 295/1/4 304/1/4
f 304/5/4 296/5/4 305/5/4
f 299/1/4 300/1/4 308/1/4
f 300/1/4 301/1/4 308/1/4
f 301/5/4 302/5/4 309/5/4
f 308/1/4 301/1/4 309/1/4
f 302/1/4 303/1/4 310/1/4
f 309/5/4 302/5/4 310/5/4
f 310/1/4 303/1/4 311/1/4
f 311/1/4 303/1/4 312/1/4
f 303/5/4 304/5/4 313/5/4
f 312/1/4 303/1/4 313/1/4
f 304/1/4 305/1/4 314/1/4
f 313/5/4 304/5/4 314/5/4
f 305/1/4 306/1/4 314/1/4
f 314/1/4 306/1/4 315/1/4
f 289/2/4 297/2/4 323/2/4
f 323/2/4 297/2/4 324/2/4
f 324/2/4 297/2/4 325/2/4
f 308/1/4 309/1/4 326/1/4
f 307/1/4 308/1/4 326/1/4
f 309/1/4 310/1/4 326/1/4
f 310/5/4 311/5/4 327/5/4
f 326/1/4 310/1/4 327/1/4
f 311/1/4 312/1/4 328/1/4
f 327/5/4 311/5/4 328/5/4
f 328/1/4 312/1/4 329/1/4
f 329/1/4 312/1/4 330/1/4
f 312/5/4 313/5/4 331/5/4
f 330/1/4 312/1/4 331/1/4
f 313/1/4 314/1/4 332/1/4
f 331/5/4 313/5/4 332/5/4
f 314/1/4 315/1/4 332/1/4
f 315/1/4 316/1/4 332/1/4
f 332/1/4 316/1/4 333/1/4
f 324/1/4 325/1/4 335/1/4
f 325/1/4 326/1/4 335/1/4
f 326/1/4 327/1/4 335/1/4
f 328/5/4 329/5/4 335/5/4
f 327/1/4 328/1/4 335/1/4
f 329/1/4 330/1/4 336/1/4
f 335/5/4 329/5/4 336/5/4
f 330/5/4 331/5/4 337/5/4
f 336/1/4 330/1/4 337/1/4
f 333/1/4 334/1/4 338/1/4
f 337/5/4 331/5/4 338/5/4
f 332/1/4 333/1/4 338/1/4
f 331/1/4 332/1/4 338/1/4
f 338/1/4 334/1/4 339/1/4
f 324/1/4 335/1/4 341/1/4
f 323/2/4 324/2/4 341/2/4
f 335/1/4 336/1/4 341/1/4
f 336/5/4 337/5/4 342/5/4
f 341/1/4 336/1/4 342/1/4
f 339/1/4 340/1/4 343/1/4
f 342/5/4 337/5/4 343/5/4
f 338/1/4 339/1/4 343/1/4
f 337/1/4 338/1/4 343/1/4
f 343/1/4 340/1/4 344/1/4
f 323/2/4 341/2/4 346/2/4
f 341/5/4 342/5/4 346/5/4
f 343/5/4 344/5/4 346/5/4
f 342/5/4 343/5/4 346/5/4
f 346/5/4 344/5/4 347/5/4
f 347/5/4 344/5/4 348/5/4
f 344/1/4 345/1/4 349/1/4
f 348/5/4 344/5/4 349/5/4
f 349/1/4 345/1/4 350/1/4
f 346/1/4 347/1/4 351/1/4
f 347/5/4 348/5/4 352/5/4
f 351/1/4 347/1/4 352/1/4
f 348/1/4 349/1/4 353/1/4
f 352/5/4 348/5/4 353/5/4
f 353/1/4 349/1/4 354/1/4
f 354/1/4 349/1/4 355/1/4
f 355/1/4 349/1/4 356/1/4
f 317/3/4 318/3/4 357/3/4
f 318/4/4 319/4/4 358/4/4
f 357/3/4 318/3/4 358/3/4
f 319/3/4 320/3/4 359/3/4
f 358/4/4 319/4/4 359/4/4
f 320/4/4 321/4/4 360/4/4
f 359/3/4 320/3/4 360/3/4
f 321/3/4 322/3/4 361/3/4
f 360/4/4 321/4/4 361/4/4
f 322/4/4 323/4/4 362/4/4
f 361/3/4 322/3/4 362/3/4
f 323/2/4 346/2/4 363/2/4
f 362/4/4 323/4/4 363/4/4
f 346/1/4 351/1/4 364/1/4
f 363/2/4 346/2/4 364/2/4
f 364/1/4 351/1/4 365/1/4
f 365/1/4 351/1/4 366/1/4
f 366/1/4 351/1/4 367/1/4
f 351/5/4 352/5/4 368/5/4
f 367/1/4 351/1/4 368/1/4
f 352/1/4 353/1/4 369/1/4
f 368/5/4 352/5/4 369/5/4
f 353/5/4 354/5/4 370/5/4
f 369/1/4 353/1/4 370/1/4
f 354/1/4 355/1/4 371/1/4
f 370/5/4 354/5/4 371/5/4
f 371/1/4 355/1/4 372/1/4
f 372/1/4 355/1/4 373/1/4
f 373/1/4 355/1/4 374/1/4
f 366/1/4 367/1/4 375/1/4
f 375/1/4 367/1/4 376/1/4
f 376/1/4 367/1/4 377/1/4
f 367/5/4 368/5/4 378/5/4
f 377/1/4 367/1/4 378/1/4
f 370/1/4 371/1/4 379/1/4
f 378/5/4 368/5/4 379/5/4
f 369/1/4 370/1/4 379/1/4
f 368/1/4 369/1/4 379/1/4
f 371/5/4 372/5/4 380/5/4
f 379/1/4 371/1/4 380/1/4
f 372/1/4 373/1/4 381/1/4
f 380/5/4 372/5/4 381/5/4
f 381/1/4 373/1/4 382/1/4
f 382/1/4 373/1/4 383/1/4
f 383/1/4 373/1/4 384/1/4
f 364/2/4 365/2/4 385/2/4
f 363/2/4 364/2/4 385/2/4
f 376/1/4 377/1/4 387/1/4
f 387/1/4 377/1/4 388/1/4
f 377/5/4 378/5/4 389/5/4
f 388/1/4 377/1/4 389/1/4
f 379/1/4 380/1/4 390/1/4
f 389/5/4 378/5/4 390/5/4
f 378/1/4 379/1/4 390/1/4
f 380/1/4 381/1/4 390/1/4
f 381/5/4 382/5/4 391/5/4
f 390/1/4 381/1/4 391/1/4
f 382/1/4 383/1/4 392/1/4
f 391/5/4 382/5/4 392/5/4
f 392/1/4 383/1/4 393/1/4
f 393/1/4 383/1/4 394/1/4
f 388/5/4 389/5/4 395/5/4
f 390/1/4 391/1/4 396/1/4
f 395/5/4 389/5/4 396/5/4
f 389/1/4 390/1/4 396/1/4
f 391/1/4 392/1/4 396/1/4
f 392/5/4 393/5/4 397/5/4
f 396/1/4 392/1/4 397/1/4
f 397/5/4 393/5/4 398/5/4
f 363/2/4 385/2/4 399/2/4
f 385/2/4 386/2/4 399/2/4
f 399/2/4 386/2/4 400/2/4
f 400/2/4 386/2/4 401/2/4
f 401/2/4 402/2/4 403/2/4
f 400/2/4 401/2/4 403/2/4
f 403/2/4 402/2/4 404/2/4
f 404/2/4 402/2/4 405/2/4
f 405/2/4 402/2/4 406/2/4
f 406/2/4 402/2/4 407/2/4
f 407/2/4 402/2/4 408/2/4
f 411/3/5 410/3/5 409/3/5
f 412/3/5 410/3/5 411/3/5
f 417/2/5 414/2/5 413/2/5
f 418/2/5 414/2/5 417/2/5
f 419/2/5 416/2/5 415/2/5
f 420/2/5 416/2/5 419/2/5
f 425/2/5 422/2/5 421/2/5
f 426/2/5 422/2/5 425/2/5
f 427/2/5 424/2/5 423/2/5
f 428/2/5 424/2/5 427/2/5
f 433/2/5 430/2/5 429/2/5
f 434/2/5 430/2/5 433/2/5
f 435/2/5 432/2/5 431/2/5
f 436/2/5 432/2/5 435/2/5
f 441/2/5 438/2/5 437/2/5
f 442/2/5 438/2/5 441/2/5
f 443/2/5 440/2/5 439/2/5
f 444/2/5 440/2/5 443/2/5
f 449/1/5 446/1/5 445/1/5
f 450/1/5 446/1/5 449/1/5
f 451/1/5 448/1/5 447/1/5
f 452/1/5 448/1/5 451/1/5
f 457/1/5 454/1/5 453/1/5
f 458/1/5 454/1/5 457/1/5
f 459/1/5 456/1/5 455/1/5
f 460/1/5 456/1/5 459/1/5
f 465/5/5 462/5/5 461/5/5
f 466/5/5 462/5/5 465/5/5
f 467/5/5 464/5/5 463/5/5
f 468/5/5 464/5/5 467/5/5
f 469/2/6 470/2/6 473/2/6
f 473/2/6 470/2/6 474/2/6
f 471/2/6 472/2/6 475/2/6
f 475/2/6 472/2/6 476/2/6
f 477/2/6 478/2/6 481/2/6
f 481/2/6 478/2/6 482/2/6
f 479/2/6 480/2/6 483/2/6
f 483/2/6 480/2/6 484/2/6
f 485/2/6 486/2/6 489/2/6
f 489/2/6 486/2/6 490/2/6
f 487/2/6 488/2/6 491/2/6
f 491/2/6 488/2/6 492/2/6
f 493/5/6 494/5/6 497/5/6
f 497/5/6 494/5/6 498/5/6
f 495/5/6 496/5/6 499/5/6
f 499/5/6 496/5/6 500/5/6
f 501/1/6 502/1/6 505/1/6
f 505/1/6 502/1/6 506/1/6
f 503/1/6 504/1/6 507/1/6
f 507/1/6 504/1/6 508/1/6
f 509/1/6 510/1/6 513/1/6
f 513/1/6 510/1/6 514/1/6
f 511/1/6 512/1/6 515/1/6
f 515/1/6 512/1/6 516/1/6
f 517/1/6 518/1/6 521/1/6
f 521/1/6 518/1/6 522/1/6
f 519/1/6 520/1/6 523/1/6
f 523/1/6 520/1/6 524/1/6
f 525/1/6 526/1/6 529/1/6
f 529/1/6 526/1/6 530/1/6
f 527/1/6 528/1/6 531/1/6
f 531/1/6 528/1/6 532/1/6
f 533/1/6 534/1/6 535/1/6
f 535/1/6 534/1/6 536/1/6
