# MagicaVoxel @ Ephtracy

# group
o 

# material
mtllib taihou.mtl
usemtl palette

# normals
vn -1 0 0
vn 1 0 0
vn 0 0 1
vn 0 0 -1
vn 0 -1 0
vn 0 1 0

# texcoords
vt 0.958984 0.5
vt 0.994141 0.5

# verts
v 0 2 -0.4
v 0 2 -0.7
v 0 2.4 -0.4
v 0 2.4 -0.7
v 0.1 2 -0.3
v 0.1 2 -0.4
v 0.1 2 -0.7
v 0.1 2 -0.8
v 0.1 2.4 -0.3
v 0.1 2.4 -0.4
v 0.1 2.4 -0.7
v 0.1 2.4 -0.8
v 0.2 2.2 -0.1
v 0.2 2.2 -0.3
v 0.2 2.2 -0.8
v 0.2 2.2 -1
v 0.2 2.3 0
v 0.2 2.3 -0.1
v 0.2 2.3 -0.2
v 0.2 2.3 -0.3
v 0.2 2.3 -0.8
v 0.2 2.3 -0.9
v 0.2 2.3 -1
v 0.2 2.3 -1.1
v 0.2 2.4 0
v 0.2 2.4 -0.2
v 0.2 2.4 -0.9
v 0.2 2.4 -1.1
v 0.3 2.2 -0.1
v 0.3 2.2 -0.3
v 0.3 2.2 -0.8
v 0.3 2.2 -1
v 0.3 2.3 0
v 0.3 2.3 -0.1
v 0.3 2.3 -0.2
v 0.3 2.3 -0.3
v 0.3 2.3 -0.8
v 0.3 2.3 -0.9
v 0.3 2.3 -1
v 0.3 2.3 -1.1
v 0.3 2.4 0
v 0.3 2.4 -0.2
v 0.3 2.4 -0.9
v 0.3 2.4 -1.1
v 0.4 2 -0.3
v 0.4 2 -0.4
v 0.4 2 -0.7
v 0.4 2 -0.8
v 0.4 2.2 -0.3
v 0.4 2.2 -0.4
v 0.4 2.2 -0.7
v 0.4 2.2 -0.8
v 0.4 2.3 -0.3
v 0.4 2.3 -0.4
v 0.4 2.3 -0.7
v 0.4 2.3 -0.8
v 0.4 2.4 -0.3
v 0.4 2.4 -0.4
v 0.4 2.4 -0.7
v 0.4 2.4 -0.8
v 0.5 2 -0.4
v 0.5 2 -0.7
v 0.5 2.4 -0.4
v 0.5 2.4 -0.7
v 0.2 2.3 0
v 0.2 2.4 0
v 0.3 2.3 0
v 0.3 2.4 0
v 0.2 2.2 -0.1
v 0.2 2.3 -0.1
v 0.3 2.2 -0.1
v 0.3 2.3 -0.1
v 0.1 2 -0.3
v 0.1 2.4 -0.3
v 0.2 2.2 -0.3
v 0.2 2.3 -0.3
v 0.3 2.2 -0.3
v 0.3 2.3 -0.3
v 0.4 2 -0.3
v 0.4 2.2 -0.3
v 0.4 2.3 -0.3
v 0.4 2.4 -0.3
v 0 2 -0.4
v 0 2.4 -0.4
v 0.1 2 -0.4
v 0.1 2.4 -0.4
v 0.4 2 -0.4
v 0.4 2.2 -0.4
v 0.4 2.3 -0.4
v 0.4 2.4 -0.4
v 0.5 2 -0.4
v 0.5 2.4 -0.4
v 0.2 2.3 -0.9
v 0.2 2.4 -0.9
v 0.3 2.3 -0.9
v 0.3 2.4 -0.9
v 0.2 2.3 -0.2
v 0.2 2.4 -0.2
v 0.3 2.3 -0.2
v 0.3 2.4 -0.2
v 0 2 -0.7
v 0 2.4 -0.7
v 0.1 2 -0.7
v 0.1 2.4 -0.7
v 0.4 2 -0.7
v 0.4 2.2 -0.7
v 0.4 2.3 -0.7
v 0.4 2.4 -0.7
v 0.5 2 -0.7
v 0.5 2.4 -0.7
v 0.1 2 -0.8
v 0.1 2.4 -0.8
v 0.2 2.2 -0.8
v 0.2 2.3 -0.8
v 0.3 2.2 -0.8
v 0.3 2.3 -0.8
v 0.4 2 -0.8
v 0.4 2.2 -0.8
v 0.4 2.3 -0.8
v 0.4 2.4 -0.8
v 0.2 2.2 -1
v 0.2 2.3 -1
v 0.3 2.2 -1
v 0.3 2.3 -1
v 0.2 2.3 -1.1
v 0.2 2.4 -1.1
v 0.3 2.3 -1.1
v 0.3 2.4 -1.1
v 0.1 2 -0.3
v 0.4 2 -0.3
v 0 2 -0.4
v 0.1 2 -0.4
v 0.4 2 -0.4
v 0.5 2 -0.4
v 0 2 -0.7
v 0.1 2 -0.7
v 0.4 2 -0.7
v 0.5 2 -0.7
v 0.1 2 -0.8
v 0.4 2 -0.8
v 0.2 2.2 -0.1
v 0.3 2.2 -0.1
v 0.2 2.2 -0.3
v 0.3 2.2 -0.3
v 0.2 2.2 -0.8
v 0.3 2.2 -0.8
v 0.2 2.2 -1
v 0.3 2.2 -1
v 0.2 2.3 0
v 0.3 2.3 0
v 0.2 2.3 -0.1
v 0.3 2.3 -0.1
v 0.2 2.3 -1
v 0.3 2.3 -1
v 0.2 2.3 -1.1
v 0.3 2.3 -1.1
v 0.2 2.3 -0.2
v 0.3 2.3 -0.2
v 0.2 2.3 -0.3
v 0.3 2.3 -0.3
v 0.2 2.3 -0.8
v 0.3 2.3 -0.8
v 0.2 2.3 -0.9
v 0.3 2.3 -0.9
v 0.2 2.4 0
v 0.3 2.4 0
v 0.2 2.4 -0.2
v 0.3 2.4 -0.2
v 0.1 2.4 -0.3
v 0.4 2.4 -0.3
v 0 2.4 -0.4
v 0.1 2.4 -0.4
v 0.4 2.4 -0.4
v 0.5 2.4 -0.4
v 0 2.4 -0.7
v 0.1 2.4 -0.7
v 0.4 2.4 -0.7
v 0.5 2.4 -0.7
v 0.1 2.4 -0.8
v 0.4 2.4 -0.8
v 0.2 2.4 -0.9
v 0.3 2.4 -0.9
v 0.2 2.4 -1.1
v 0.3 2.4 -1.1

# faces
f 3/2/1 2/2/1 1/2/1
f 4/2/1 2/2/1 3/2/1
f 9/2/1 6/2/1 5/2/1
f 10/2/1 6/2/1 9/2/1
f 11/2/1 8/2/1 7/2/1
f 12/2/1 8/2/1 11/2/1
f 18/1/1 14/1/1 13/1/1
f 19/1/1 14/1/1 18/1/1
f 20/1/1 14/1/1 19/1/1
f 21/1/1 16/1/1 15/1/1
f 22/1/1 16/1/1 21/1/1
f 23/1/1 16/1/1 22/1/1
f 25/1/1 18/1/1 17/1/1
f 25/1/1 19/1/1 18/1/1
f 26/1/1 19/1/1 25/1/1
f 27/1/1 24/1/1 23/1/1
f 27/1/1 23/1/1 22/1/1
f 28/1/1 24/1/1 27/1/1
f 29/1/2 30/1/2 34/1/2
f 34/1/2 30/1/2 35/1/2
f 35/1/2 30/1/2 36/1/2
f 31/1/2 32/1/2 37/1/2
f 37/1/2 32/1/2 38/1/2
f 38/1/2 32/1/2 39/1/2
f 33/1/2 34/1/2 41/1/2
f 34/1/2 35/1/2 41/1/2
f 41/1/2 35/1/2 42/1/2
f 39/1/2 40/1/2 43/1/2
f 38/1/2 39/1/2 43/1/2
f 43/1/2 40/1/2 44/1/2
f 45/2/2 46/2/2 49/2/2
f 49/2/2 46/2/2 50/2/2
f 47/2/2 48/2/2 51/2/2
f 51/2/2 48/2/2 52/2/2
f 49/1/2 50/1/2 53/1/2
f 53/1/2 50/1/2 54/1/2
f 51/1/2 52/1/2 55/1/2
f 55/1/2 52/1/2 56/1/2
f 53/2/2 54/2/2 57/2/2
f 57/2/2 54/2/2 58/2/2
f 55/2/2 56/2/2 59/2/2
f 59/2/2 56/2/2 60/2/2
f 61/2/2 62/2/2 63/2/2
f 63/2/2 62/2/2 64/2/2
f 67/1/3 66/1/3 65/1/3
f 68/1/3 66/1/3 67/1/3
f 71/1/3 70/1/3 69/1/3
f 72/1/3 70/1/3 71/1/3
f 75/2/3 74/2/3 73/2/3
f 76/2/3 74/2/3 75/2/3
f 77/2/3 75/2/3 73/2/3
f 78/2/3 74/2/3 76/2/3
f 79/2/3 77/2/3 73/2/3
f 80/1/3 78/1/3 77/1/3
f 80/2/3 77/2/3 79/2/3
f 81/2/3 74/2/3 78/2/3
f 81/1/3 78/1/3 80/1/3
f 82/2/3 74/2/3 81/2/3
f 85/2/3 84/2/3 83/2/3
f 86/2/3 84/2/3 85/2/3
f 91/2/3 88/2/3 87/2/3
f 91/2/3 90/2/3 89/2/3
f 91/2/3 89/2/3 88/2/3
f 92/2/3 90/2/3 91/2/3
f 95/1/3 94/1/3 93/1/3
f 96/1/3 94/1/3 95/1/3
f 97/1/4 98/1/4 99/1/4
f 99/1/4 98/1/4 100/1/4
f 101/2/4 102/2/4 103/2/4
f 103/2/4 102/2/4 104/2/4
f 105/2/4 106/2/4 109/2/4
f 107/2/4 108/2/4 109/2/4
f 106/2/4 107/2/4 109/2/4
f 109/2/4 108/2/4 110/2/4
f 111/2/4 112/2/4 113/2/4
f 113/2/4 112/2/4 114/2/4
f 111/2/4 113/2/4 115/2/4
f 114/2/4 112/2/4 116/2/4
f 111/2/4 115/2/4 117/2/4
f 115/1/4 116/1/4 118/1/4
f 117/2/4 115/2/4 118/2/4
f 116/2/4 112/2/4 119/2/4
f 118/1/4 116/1/4 119/1/4
f 119/2/4 112/2/4 120/2/4
f 121/1/4 122/1/4 123/1/4
f 123/1/4 122/1/4 124/1/4
f 125/1/4 126/1/4 127/1/4
f 127/1/4 126/1/4 128/1/4
f 132/2/5 130/2/5 129/2/5
f 133/2/5 130/2/5 132/2/5
f 135/2/5 132/2/5 131/2/5
f 135/2/5 134/2/5 133/2/5
f 135/2/5 133/2/5 132/2/5
f 136/2/5 134/2/5 135/2/5
f 137/2/5 134/2/5 136/2/5
f 138/2/5 134/2/5 137/2/5
f 139/2/5 137/2/5 136/2/5
f 140/2/5 137/2/5 139/2/5
f 143/1/5 142/1/5 141/1/5
f 144/1/5 142/1/5 143/1/5
f 147/1/5 146/1/5 145/1/5
f 148/1/5 146/1/5 147/1/5
f 151/1/5 150/1/5 149/1/5
f 152/1/5 150/1/5 151/1/5
f 155/1/5 154/1/5 153/1/5
f 156/1/5 154/1/5 155/1/5
f 157/1/6 158/1/6 159/1/6
f 159/1/6 158/1/6 160/1/6
f 161/1/6 162/1/6 163/1/6
f 163/1/6 162/1/6 164/1/6
f 165/1/6 166/1/6 167/1/6
f 167/1/6 166/1/6 168/1/6
f 169/2/6 170/2/6 172/2/6
f 172/2/6 170/2/6 173/2/6
f 171/2/6 172/2/6 175/2/6
f 173/2/6 174/2/6 175/2/6
f 172/2/6 173/2/6 175/2/6
f 175/2/6 174/2/6 176/2/6
f 176/2/6 174/2/6 177/2/6
f 177/2/6 174/2/6 178/2/6
f 176/2/6 177/2/6 179/2/6
f 179/2/6 177/2/6 180/2/6
f 181/1/6 182/1/6 183/1/6
f 183/1/6 182/1/6 184/1/6
