# MagicaVoxel @ Ephtracy

# group
o 

# material
mtllib Stage2_Parts3.mtl
usemtl palette

# normals
vn -1 0 0
vn 1 0 0
vn 0 0 1
vn 0 0 -1
vn 0 -1 0
vn 0 1 0

# texcoords
vt 0.400391 0.5
vt 0.435547 0.5
vt 0.958984 0.5
vt 0.986328 0.5

# verts
v 0 4 -3.9
v 0 4 -4
v 0 6 -3.9
v 0 6 -4
v 4 4 -3.9
v 4 4 -4
v 4 6 -3.9
v 4 6 -4
v 0 4 -3.9
v 0 6 -3.9
v 0.4 5.5 -3.9
v 0.4 5.9 -3.9
v 0.5 4.5 -3.9
v 0.5 4.6 -3.9
v 0.5 5.4 -3.9
v 0.5 5.5 -3.9
v 0.5 5.6 -3.9
v 0.5 5.8 -3.9
v 0.5 5.9 -3.9
v 0.5 6 -3.9
v 0.6 4.4 -3.9
v 0.6 4.5 -3.9
v 0.6 4.6 -3.9
v 0.6 4.7 -3.9
v 0.6 5.3 -3.9
v 0.6 5.4 -3.9
v 0.6 5.5 -3.9
v 0.6 5.6 -3.9
v 0.6 5.8 -3.9
v 0.6 5.9 -3.9
v 0.6 6 -3.9
v 0.7 4.6 -3.9
v 0.7 4.7 -3.9
v 0.7 4.8 -3.9
v 0.7 5.1 -3.9
v 0.7 5.3 -3.9
v 0.7 5.4 -3.9
v 0.7 5.5 -3.9
v 0.7 5.6 -3.9
v 0.7 5.9 -3.9
v 0.8 4.6 -3.9
v 0.8 4.7 -3.9
v 0.8 5.2 -3.9
v 0.8 5.3 -3.9
v 0.8 5.4 -3.9
v 0.8 5.5 -3.9
v 0.8 5.6 -3.9
v 0.9 4.6 -3.9
v 0.9 4.7 -3.9
v 0.9 5.4 -3.9
v 0.9 5.5 -3.9
v 1 4.8 -3.9
v 1 4.9 -3.9
v 1 5.2 -3.9
v 1 5.3 -3.9
v 1.1 4.2 -3.9
v 1.1 4.4 -3.9
v 1.1 4.5 -3.9
v 1.1 4.7 -3.9
v 1.1 4.9 -3.9
v 1.1 5 -3.9
v 1.1 5.1 -3.9
v 1.1 5.4 -3.9
v 1.2 4.1 -3.9
v 1.2 4.2 -3.9
v 1.2 5 -3.9
v 1.2 5.1 -3.9
v 1.4 4.6 -3.9
v 1.4 4.8 -3.9
v 1.6 4.6 -3.9
v 1.6 4.8 -3.9
v 1.8 4.1 -3.9
v 1.8 4.2 -3.9
v 1.8 5 -3.9
v 1.8 5.1 -3.9
v 1.9 4.2 -3.9
v 1.9 4.3 -3.9
v 1.9 4.9 -3.9
v 1.9 5 -3.9
v 2 4.3 -3.9
v 2 4.9 -3.9
v 2.9 4.9 -3.9
v 2.9 5.5 -3.9
v 3 4.8 -3.9
v 3 4.9 -3.9
v 3 5.1 -3.9
v 3 5.4 -3.9
v 3 5.5 -3.9
v 3 5.6 -3.9
v 3.1 4.8 -3.9
v 3.1 4.9 -3.9
v 3.1 5.1 -3.9
v 3.1 5.4 -3.9
v 3.1 5.5 -3.9
v 3.2 4.9 -3.9
v 3.2 5 -3.9
v 3.2 5.4 -3.9
v 3.2 5.5 -3.9
v 3.2 5.6 -3.9
v 3.3 5 -3.9
v 3.3 5.5 -3.9
v 4 4 -3.9
v 4 6 -3.9
v 0 4 -4
v 0 6 -4
v 0.4 5.5 -4
v 0.4 5.9 -4
v 0.5 4.5 -4
v 0.5 4.6 -4
v 0.5 5.4 -4
v 0.5 5.5 -4
v 0.5 5.6 -4
v 0.5 5.8 -4
v 0.5 5.9 -4
v 0.5 6 -4
v 0.6 4.4 -4
v 0.6 4.5 -4
v 0.6 4.6 -4
v 0.6 4.7 -4
v 0.6 5.3 -4
v 0.6 5.4 -4
v 0.6 5.5 -4
v 0.6 5.6 -4
v 0.6 5.8 -4
v 0.6 5.9 -4
v 0.6 6 -4
v 0.7 4.6 -4
v 0.7 4.7 -4
v 0.7 4.8 -4
v 0.7 5.1 -4
v 0.7 5.3 -4
v 0.7 5.4 -4
v 0.7 5.5 -4
v 0.7 5.6 -4
v 0.7 5.9 -4
v 0.8 4.6 -4
v 0.8 4.7 -4
v 0.8 5.2 -4
v 0.8 5.3 -4
v 0.8 5.4 -4
v 0.8 5.5 -4
v 0.8 5.6 -4
v 0.9 4.6 -4
v 0.9 4.7 -4
v 0.9 5.4 -4
v 0.9 5.5 -4
v 1 4.8 -4
v 1 4.9 -4
v 1 5.2 -4
v 1 5.3 -4
v 1.1 4.2 -4
v 1.1 4.4 -4
v 1.1 4.5 -4
v 1.1 4.7 -4
v 1.1 4.9 -4
v 1.1 5 -4
v 1.1 5.1 -4
v 1.1 5.4 -4
v 1.2 4.1 -4
v 1.2 4.2 -4
v 1.2 5 -4
v 1.2 5.1 -4
v 1.4 4.6 -4
v 1.4 4.8 -4
v 1.6 4.6 -4
v 1.6 4.8 -4
v 1.8 4.1 -4
v 1.8 4.2 -4
v 1.8 5 -4
v 1.8 5.1 -4
v 1.9 4.2 -4
v 1.9 4.3 -4
v 1.9 4.9 -4
v 1.9 5 -4
v 2 4.3 -4
v 2 4.9 -4
v 2.9 4.9 -4
v 2.9 5.5 -4
v 3 4.8 -4
v 3 4.9 -4
v 3 5.1 -4
v 3 5.4 -4
v 3 5.5 -4
v 3 5.6 -4
v 3.1 4.8 -4
v 3.1 4.9 -4
v 3.1 5.1 -4
v 3.1 5.4 -4
v 3.1 5.5 -4
v 3.2 4.9 -4
v 3.2 5 -4
v 3.2 5.4 -4
v 3.2 5.5 -4
v 3.2 5.6 -4
v 3.3 5 -4
v 3.3 5.5 -4
v 4 4 -4
v 4 6 -4
v 0 4 -3.9
v 4 4 -3.9
v 0 4 -4
v 4 4 -4
v 0 6 -3.9
v 0.5 6 -3.9
v 0.6 6 -3.9
v 4 6 -3.9
v 0 6 -4
v 0.5 6 -4
v 0.6 6 -4
v 4 6 -4

# faces
f 3/4/1 2/4/1 1/4/1
f 4/4/1 2/4/1 3/4/1
f 5/4/2 6/4/2 7/4/2
f 7/4/2 6/4/2 8/4/2
f 11/4/3 10/4/3 9/4/3
f 12/4/3 10/4/3 11/4/3
f 13/4/3 11/4/3 9/4/3
f 14/4/3 11/4/3 13/4/3
f 15/4/3 11/4/3 14/4/3
f 16/1/3 12/1/3 11/1/3
f 16/4/3 11/4/3 15/4/3
f 17/1/3 12/1/3 16/1/3
f 18/1/3 12/1/3 17/1/3
f 19/4/3 10/4/3 12/4/3
f 19/1/3 12/1/3 18/1/3
f 20/4/3 10/4/3 19/4/3
f 21/4/3 13/4/3 9/4/3
f 22/3/3 14/3/3 13/3/3
f 22/4/3 13/4/3 21/4/3
f 23/4/3 15/4/3 14/4/3
f 23/3/3 14/3/3 22/3/3
f 24/4/3 15/4/3 23/4/3
f 25/4/3 15/4/3 24/4/3
f 26/1/3 16/1/3 15/1/3
f 26/4/3 15/4/3 25/4/3
f 26/1/3 17/1/3 16/1/3
f 27/1/3 17/1/3 26/1/3
f 28/3/3 18/3/3 17/3/3
f 28/1/3 17/1/3 27/1/3
f 29/1/3 19/1/3 18/1/3
f 29/3/3 18/3/3 28/3/3
f 29/1/3 20/1/3 19/1/3
f 30/1/3 20/1/3 29/1/3
f 31/1/3 20/1/3 30/1/3
f 32/3/3 24/3/3 23/3/3
f 32/4/3 23/4/3 22/4/3
f 33/4/3 25/4/3 24/4/3
f 33/3/3 24/3/3 32/3/3
f 34/4/3 25/4/3 33/4/3
f 35/4/3 25/4/3 34/4/3
f 36/1/3 26/1/3 25/1/3
f 36/4/3 25/4/3 35/4/3
f 37/3/3 27/3/3 26/3/3
f 37/1/3 26/1/3 36/1/3
f 38/1/3 28/1/3 27/1/3
f 38/3/3 27/3/3 37/3/3
f 38/1/3 29/1/3 28/1/3
f 38/1/3 30/1/3 29/1/3
f 39/1/3 30/1/3 38/1/3
f 40/4/3 31/4/3 30/4/3
f 40/1/3 30/1/3 39/1/3
f 41/4/3 32/4/3 22/4/3
f 41/4/3 33/4/3 32/4/3
f 42/3/3 34/3/3 33/3/3
f 42/4/3 33/4/3 41/4/3
f 43/1/3 36/1/3 35/1/3
f 44/3/3 37/3/3 36/3/3
f 44/1/3 36/1/3 43/1/3
f 45/1/3 39/1/3 38/1/3
f 45/3/3 37/3/3 44/3/3
f 45/1/3 38/1/3 37/1/3
f 46/1/3 39/1/3 45/1/3
f 47/4/3 40/4/3 39/4/3
f 47/1/3 39/1/3 46/1/3
f 48/4/3 41/4/3 22/4/3
f 48/3/3 42/3/3 41/3/3
f 49/3/3 34/3/3 42/3/3
f 49/3/3 42/3/3 48/3/3
f 50/1/3 46/1/3 45/1/3
f 50/1/3 45/1/3 44/1/3
f 51/4/3 47/4/3 46/4/3
f 51/1/3 46/1/3 50/1/3
f 52/4/3 35/4/3 34/4/3
f 52/3/3 34/3/3 49/3/3
f 53/4/3 35/4/3 52/4/3
f 54/1/3 43/1/3 35/1/3
f 54/3/3 44/3/3 43/3/3
f 55/1/3 50/1/3 44/1/3
f 55/3/3 44/3/3 54/3/3
f 56/4/3 21/4/3 9/4/3
f 57/3/3 22/3/3 21/3/3
f 57/4/3 21/4/3 56/4/3
f 58/4/3 48/4/3 22/4/3
f 58/3/3 22/3/3 57/3/3
f 58/4/3 49/4/3 48/4/3
f 59/3/3 53/3/3 52/3/3
f 59/4/3 49/4/3 58/4/3
f 59/3/3 52/3/3 49/3/3
f 60/4/3 35/4/3 53/4/3
f 60/3/3 53/3/3 59/3/3
f 61/4/3 35/4/3 60/4/3
f 62/1/3 54/1/3 35/1/3
f 62/4/3 35/4/3 61/4/3
f 62/1/3 55/1/3 54/1/3
f 63/1/3 50/1/3 55/1/3
f 63/1/3 55/1/3 62/1/3
f 63/4/3 51/4/3 50/4/3
f 64/4/3 56/4/3 9/4/3
f 65/3/3 57/3/3 56/3/3
f 65/4/3 56/4/3 64/4/3
f 65/3/3 59/3/3 58/3/3
f 65/3/3 58/3/3 57/3/3
f 65/3/3 61/3/3 60/3/3
f 65/3/3 60/3/3 59/3/3
f 66/4/3 62/4/3 61/4/3
f 66/3/3 61/3/3 65/3/3
f 66/4/3 63/4/3 62/4/3
f 67/4/3 63/4/3 66/4/3
f 68/3/3 65/3/3 64/3/3
f 68/3/3 66/3/3 65/3/3
f 68/3/3 67/3/3 66/3/3
f 69/3/3 67/3/3 68/3/3
f 70/3/3 68/3/3 64/3/3
f 70/4/3 69/4/3 68/4/3
f 71/3/3 67/3/3 69/3/3
f 71/4/3 69/4/3 70/4/3
f 72/4/3 64/4/3 9/4/3
f 72/3/3 70/3/3 64/3/3
f 72/3/3 71/3/3 70/3/3
f 73/3/3 71/3/3 72/3/3
f 74/3/3 67/3/3 71/3/3
f 74/3/3 71/3/3 73/3/3
f 75/4/3 63/4/3 67/4/3
f 75/3/3 67/3/3 74/3/3
f 76/4/3 73/4/3 72/4/3
f 76/3/3 74/3/3 73/3/3
f 77/3/3 74/3/3 76/3/3
f 78/3/3 74/3/3 77/3/3
f 79/4/3 75/4/3 74/4/3
f 79/3/3 74/3/3 78/3/3
f 80/3/3 78/3/3 77/3/3
f 80/4/3 77/4/3 76/4/3
f 81/4/3 79/4/3 78/4/3
f 81/3/3 78/3/3 80/3/3
f 82/4/3 81/4/3 80/4/3
f 82/4/3 79/4/3 81/4/3
f 83/4/3 63/4/3 75/4/3
f 83/4/3 79/4/3 82/4/3
f 83/4/3 51/4/3 63/4/3
f 83/4/3 75/4/3 79/4/3
f 83/4/3 47/4/3 51/4/3
f 84/4/3 82/4/3 80/4/3
f 85/2/3 83/2/3 82/2/3
f 85/4/3 82/4/3 84/4/3
f 86/2/3 83/2/3 85/2/3
f 87/2/3 83/2/3 86/2/3
f 88/4/3 47/4/3 83/4/3
f 88/2/3 83/2/3 87/2/3
f 89/4/3 40/4/3 47/4/3
f 89/4/3 47/4/3 88/4/3
f 90/4/3 84/4/3 80/4/3
f 90/2/3 85/2/3 84/2/3
f 90/2/3 86/2/3 85/2/3
f 91/2/3 86/2/3 90/2/3
f 92/3/3 87/3/3 86/3/3
f 92/2/3 86/2/3 91/2/3
f 93/2/3 88/2/3 87/2/3
f 93/3/3 87/3/3 92/3/3
f 93/2/3 89/2/3 88/2/3
f 94/2/3 89/2/3 93/2/3
f 95/4/3 91/4/3 90/4/3
f 95/2/3 92/2/3 91/2/3
f 95/2/3 93/2/3 92/2/3
f 96/2/3 93/2/3 95/2/3
f 97/3/3 94/3/3 93/3/3
f 97/2/3 93/2/3 96/2/3
f 98/2/3 89/2/3 94/2/3
f 98/3/3 94/3/3 97/3/3
f 99/4/3 40/4/3 89/4/3
f 99/2/3 89/2/3 98/2/3
f 100/2/3 97/2/3 96/2/3
f 100/4/3 96/4/3 95/4/3
f 100/2/3 98/2/3 97/2/3
f 101/4/3 99/4/3 98/4/3
f 101/2/3 98/2/3 100/2/3
f 102/4/3 80/4/3 76/4/3
f 102/4/3 76/4/3 72/4/3
f 102/4/3 101/4/3 100/4/3
f 102/4/3 90/4/3 80/4/3
f 102/4/3 95/4/3 90/4/3
f 102/4/3 72/4/3 9/4/3
f 102/4/3 100/4/3 95/4/3
f 103/4/3 40/4/3 99/4/3
f 103/4/3 101/4/3 102/4/3
f 103/4/3 99/4/3 101/4/3
f 103/4/3 31/4/3 40/4/3
f 104/4/4 105/4/4 106/4/4
f 106/4/4 105/4/4 107/4/4
f 104/4/4 106/4/4 108/4/4
f 108/4/4 106/4/4 109/4/4
f 109/4/4 106/4/4 110/4/4
f 106/1/4 107/1/4 111/1/4
f 110/4/4 106/4/4 111/4/4
f 111/1/4 107/1/4 112/1/4
f 112/1/4 107/1/4 113/1/4
f 107/4/4 105/4/4 114/4/4
f 113/1/4 107/1/4 114/1/4
f 114/4/4 105/4/4 115/4/4
f 104/4/4 108/4/4 116/4/4
f 108/3/4 109/3/4 117/3/4
f 116/4/4 108/4/4 117/4/4
f 109/4/4 110/4/4 118/4/4
f 117/3/4 109/3/4 118/3/4
f 118/4/4 110/4/4 119/4/4
f 119/4/4 110/4/4 120/4/4
f 110/1/4 111/1/4 121/1/4
f 120/4/4 110/4/4 121/4/4
f 111/1/4 112/1/4 121/1/4
f 121/1/4 112/1/4 122/1/4
f 112/3/4 113/3/4 123/3/4
f 122/1/4 112/1/4 123/1/4
f 113/1/4 114/1/4 124/1/4
f 123/3/4 113/3/4 124/3/4
f 114/1/4 115/1/4 124/1/4
f 124/1/4 115/1/4 125/1/4
f 125/1/4 115/1/4 126/1/4
f 118/3/4 119/3/4 127/3/4
f 117/4/4 118/4/4 127/4/4
f 119/4/4 120/4/4 128/4/4
f 127/3/4 119/3/4 128/3/4
f 128/4/4 120/4/4 129/4/4
f 129/4/4 120/4/4 130/4/4
f 120/1/4 121/1/4 131/1/4
f 130/4/4 120/4/4 131/4/4
f 121/3/4 122/3/4 132/3/4
f 131/1/4 121/1/4 132/1/4
f 122/1/4 123/1/4 133/1/4
f 132/3/4 122/3/4 133/3/4
f 123/1/4 124/1/4 133/1/4
f 124/1/4 125/1/4 133/1/4
f 133/1/4 125/1/4 134/1/4
f 125/4/4 126/4/4 135/4/4
f 134/1/4 125/1/4 135/1/4
f 117/4/4 127/4/4 136/4/4
f 127/4/4 128/4/4 136/4/4
f 128/3/4 129/3/4 137/3/4
f 136/4/4 128/4/4 137/4/4
f 130/1/4 131/1/4 138/1/4
f 131/3/4 132/3/4 139/3/4
f 138/1/4 131/1/4 139/1/4
f 133/1/4 134/1/4 140/1/4
f 139/3/4 132/3/4 140/3/4
f 132/1/4 133/1/4 140/1/4
f 140/1/4 134/1/4 141/1/4
f 134/4/4 135/4/4 142/4/4
f 141/1/4 134/1/4 142/1/4
f 117/4/4 136/4/4 143/4/4
f 136/3/4 137/3/4 143/3/4
f 137/3/4 129/3/4 144/3/4
f 143/3/4 137/3/4 144/3/4
f 140/1/4 141/1/4 145/1/4
f 139/1/4 140/1/4 145/1/4
f 141/4/4 142/4/4 146/4/4
f 145/1/4 141/1/4 146/1/4
f 129/4/4 130/4/4 147/4/4
f 144/3/4 129/3/4 147/3/4
f 147/4/4 130/4/4 148/4/4
f 130/1/4 138/1/4 149/1/4
f 138/3/4 139/3/4 149/3/4
f 139/1/4 145/1/4 150/1/4
f 149/3/4 139/3/4 150/3/4
f 104/4/4 116/4/4 151/4/4
f 116/3/4 117/3/4 152/3/4
f 151/4/4 116/4/4 152/4/4
f 117/4/4 143/4/4 153/4/4
f 152/3/4 117/3/4 153/3/4
f 143/4/4 144/4/4 153/4/4
f 147/3/4 148/3/4 154/3/4
f 153/4/4 144/4/4 154/4/4
f 144/3/4 147/3/4 154/3/4
f 148/4/4 130/4/4 155/4/4
f 154/3/4 148/3/4 155/3/4
f 155/4/4 130/4/4 156/4/4
f 130/1/4 149/1/4 157/1/4
f 156/4/4 130/4/4 157/4/4
f 149/1/4 150/1/4 157/1/4
f 150/1/4 145/1/4 158/1/4
f 157/1/4 150/1/4 158/1/4
f 145/4/4 146/4/4 158/4/4
f 104/4/4 151/4/4 159/4/4
f 151/3/4 152/3/4 160/3/4
f 159/4/4 151/4/4 160/4/4
f 153/3/4 154/3/4 160/3/4
f 152/3/4 153/3/4 160/3/4
f 155/3/4 156/3/4 160/3/4
f 154/3/4 155/3/4 160/3/4
f 156/4/4 157/4/4 161/4/4
f 160/3/4 156/3/4 161/3/4
f 157/4/4 158/4/4 161/4/4
f 161/4/4 158/4/4 162/4/4
f 159/3/4 160/3/4 163/3/4
f 160/3/4 161/3/4 163/3/4
f 161/3/4 162/3/4 163/3/4
f 163/3/4 162/3/4 164/3/4
f 159/3/4 163/3/4 165/3/4
f 163/4/4 164/4/4 165/4/4
f 164/3/4 162/3/4 166/3/4
f 165/4/4 164/4/4 166/4/4
f 104/4/4 159/4/4 167/4/4
f 159/3/4 165/3/4 167/3/4
f 165/3/4 166/3/4 167/3/4
f 167/3/4 166/3/4 168/3/4
f 166/3/4 162/3/4 169/3/4
f 168/3/4 166/3/4 169/3/4
f 162/4/4 158/4/4 170/4/4
f 169/3/4 162/3/4 170/3/4
f 167/4/4 168/4/4 171/4/4
f 168/3/4 169/3/4 171/3/4
f 171/3/4 169/3/4 172/3/4
f 172/3/4 169/3/4 173/3/4
f 169/4/4 170/4/4 174/4/4
f 173/3/4 169/3/4 174/3/4
f 172/3/4 173/3/4 175/3/4
f 171/4/4 172/4/4 175/4/4
f 173/4/4 174/4/4 176/4/4
f 175/3/4 173/3/4 176/3/4
f 175/4/4 176/4/4 177/4/4
f 176/4/4 174/4/4 177/4/4
f 170/4/4 158/4/4 178/4/4
f 177/4/4 174/4/4 178/4/4
f 158/4/4 146/4/4 178/4/4
f 174/4/4 170/4/4 178/4/4
f 146/4/4 142/4/4 178/4/4
f 175/4/4 177/4/4 179/4/4
f 177/2/4 178/2/4 180/2/4
f 179/4/4 177/4/4 180/4/4
f 180/2/4 178/2/4 181/2/4
f 181/2/4 178/2/4 182/2/4
f 178/4/4 142/4/4 183/4/4
f 182/2/4 178/2/4 183/2/4
f 142/4/4 135/4/4 184/4/4
f 183/4/4 142/4/4 184/4/4
f 175/4/4 179/4/4 185/4/4
f 179/2/4 180/2/4 185/2/4
f 180/2/4 181/2/4 185/2/4
f 185/2/4 181/2/4 186/2/4
f 181/3/4 182/3/4 187/3/4
f 186/2/4 181/2/4 187/2/4
f 182/2/4 183/2/4 188/2/4
f 187/3/4 182/3/4 188/3/4
f 183/2/4 184/2/4 188/2/4
f 188/2/4 184/2/4 189/2/4
f 185/4/4 186/4/4 190/4/4
f 186/2/4 187/2/4 190/2/4
f 187/2/4 188/2/4 190/2/4
f 190/2/4 188/2/4 191/2/4
f 188/3/4 189/3/4 192/3/4
f 191/2/4 188/2/4 192/2/4
f 189/2/4 184/2/4 193/2/4
f 192/3/4 189/3/4 193/3/4
f 184/4/4 135/4/4 194/4/4
f 193/2/4 184/2/4 194/2/4
f 191/2/4 192/2/4 195/2/4
f 190/4/4 191/4/4 195/4/4
f 192/2/4 193/2/4 195/2/4
f 193/4/4 194/4/4 196/4/4
f 195/2/4 193/2/4 196/2/4
f 171/4/4 175/4/4 197/4/4
f 167/4/4 171/4/4 197/4/4
f 195/4/4 196/4/4 197/4/4
f 175/4/4 185/4/4 197/4/4
f 185/4/4 190/4/4 197/4/4
f 104/4/4 167/4/4 197/4/4
f 190/4/4 195/4/4 197/4/4
f 194/4/4 135/4/4 198/4/4
f 197/4/4 196/4/4 198/4/4
f 196/4/4 194/4/4 198/4/4
f 135/4/4 126/4/4 198/4/4
f 201/4/5 200/4/5 199/4/5
f 202/4/5 200/4/5 201/4/5
f 203/4/6 204/4/6 207/4/6
f 204/1/6 205/1/6 208/1/6
f 207/4/6 204/4/6 208/4/6
f 205/4/6 206/4/6 209/4/6
f 208/1/6 205/1/6 209/1/6
f 209/4/6 206/4/6 210/4/6
