# MagicaVoxel @ Ephtracy

# group
o 

# material
mtllib Stage2_Parts4.mtl
usemtl palette

# normals
vn -1 0 0
vn 1 0 0
vn 0 0 1
vn 0 0 -1
vn 0 -1 0
vn 0 1 0

# texcoords
vt 0.400391 0.5
vt 0.880859 0.5
vt 0.958984 0.5
vt 0.986328 0.5

# verts
v 0 2 -3.9
v 0 2 -4
v 0 4 -3.9
v 0 4 -4
v 0.2 4 -3.9
v 0.2 4 -4
v 0.2 4.2 -3.9
v 0.2 4.2 -4
v 0.3 4.2 -3.9
v 0.3 4.2 -4
v 0.3 4.3 -3.9
v 0.3 4.3 -4
v 1.8 4 -3.9
v 1.8 4 -4
v 1.8 4.5 -3.9
v 1.8 4.5 -4
v 1.9 4.5 -3.9
v 1.9 4.5 -4
v 1.9 4.7 -3.9
v 1.9 4.7 -4
v 2 4.7 -3.9
v 2 4.7 -4
v 2 4.8 -3.9
v 2 4.8 -4
v 2.2 4.8 -3.9
v 2.2 4.8 -4
v 2.2 4.9 -3.9
v 2.2 4.9 -4
v 0.4 4.2 -3.9
v 0.4 4.2 -4
v 0.4 4.3 -3.9
v 0.4 4.3 -4
v 0.5 4.1 -3.9
v 0.5 4.1 -4
v 0.5 4.2 -3.9
v 0.5 4.2 -4
v 0.6 4 -3.9
v 0.6 4 -4
v 0.6 4.1 -3.9
v 0.6 4.1 -4
v 2.3 4.4 -3.9
v 2.3 4.4 -4
v 2.3 4.9 -3.9
v 2.3 4.9 -4
v 2.4 4.3 -3.9
v 2.4 4.3 -4
v 2.4 4.4 -3.9
v 2.4 4.4 -4
v 2.5 4.2 -3.9
v 2.5 4.2 -4
v 2.5 4.3 -3.9
v 2.5 4.3 -4
v 2.6 4.1 -3.9
v 2.6 4.1 -4
v 2.6 4.2 -3.9
v 2.6 4.2 -4
v 2.7 4 -3.9
v 2.7 4 -4
v 2.7 4.1 -3.9
v 2.7 4.1 -4
v 4 2 -3.9
v 4 2 -4
v 4 4 -3.9
v 4 4 -4
v 0 2 -3.9
v 0 4 -3.9
v 0.2 3.9 -3.9
v 0.2 4 -3.9
v 0.2 4.2 -3.9
v 0.3 3.7 -3.9
v 0.3 3.9 -3.9
v 0.3 4 -3.9
v 0.3 4.2 -3.9
v 0.3 4.3 -3.9
v 0.4 3.4 -3.9
v 0.4 3.7 -3.9
v 0.4 4 -3.9
v 0.4 4.2 -3.9
v 0.4 4.3 -3.9
v 0.5 3.3 -3.9
v 0.5 3.4 -3.9
v 0.5 3.5 -3.9
v 0.5 3.6 -3.9
v 0.5 3.8 -3.9
v 0.5 4 -3.9
v 0.5 4.1 -3.9
v 0.5 4.2 -3.9
v 0.6 3.2 -3.9
v 0.6 3.3 -3.9
v 0.6 3.7 -3.9
v 0.6 3.8 -3.9
v 0.6 4 -3.9
v 0.6 4.1 -3.9
v 0.7 3.4 -3.9
v 0.7 3.5 -3.9
v 0.7 3.9 -3.9
v 0.7 4 -3.9
v 0.8 3 -3.9
v 0.8 3.2 -3.9
v 0.8 3.3 -3.9
v 0.8 3.4 -3.9
v 0.8 3.6 -3.9
v 0.8 3.8 -3.9
v 0.8 3.9 -3.9
v 0.9 3.6 -3.9
v 0.9 3.8 -3.9
v 1 3.3 -3.9
v 1 3.4 -3.9
v 1 3.5 -3.9
v 1 3.6 -3.9
v 1.1 3 -3.9
v 1.1 3.2 -3.9
v 1.1 3.4 -3.9
v 1.1 3.5 -3.9
v 1.2 3.2 -3.9
v 1.2 3.4 -3.9
v 1.8 3.1 -3.9
v 1.8 4 -3.9
v 1.8 4.5 -3.9
v 1.9 4.5 -3.9
v 1.9 4.7 -3.9
v 2 3 -3.9
v 2 3.1 -3.9
v 2 3.3 -3.9
v 2 4.6 -3.9
v 2 4.7 -3.9
v 2 4.8 -3.9
v 2.1 3.4 -3.9
v 2.1 4.6 -3.9
v 2.1 4.7 -3.9
v 2.2 2.9 -3.9
v 2.2 3 -3.9
v 2.2 3.2 -3.9
v 2.2 3.3 -3.9
v 2.2 3.4 -3.9
v 2.2 4.6 -3.9
v 2.2 4.7 -3.9
v 2.2 4.8 -3.9
v 2.2 4.9 -3.9
v 2.3 3.2 -3.9
v 2.3 3.3 -3.9
v 2.3 3.7 -3.9
v 2.3 3.8 -3.9
v 2.3 4.4 -3.9
v 2.3 4.9 -3.9
v 2.4 3.5 -3.9
v 2.4 3.6 -3.9
v 2.4 3.7 -3.9
v 2.4 3.8 -3.9
v 2.4 3.9 -3.9
v 2.4 4 -3.9
v 2.4 4.3 -3.9
v 2.4 4.4 -3.9
v 2.5 2.9 -3.9
v 2.5 3 -3.9
v 2.5 3.5 -3.9
v 2.5 3.6 -3.9
v 2.5 3.9 -3.9
v 2.5 4 -3.9
v 2.5 4.2 -3.9
v 2.5 4.3 -3.9
v 2.6 3 -3.9
v 2.6 3.2 -3.9
v 2.6 4.1 -3.9
v 2.6 4.2 -3.9
v 2.7 3.2 -3.9
v 2.7 3.3 -3.9
v 2.7 4 -3.9
v 2.7 4.1 -3.9
v 2.8 3.3 -3.9
v 2.8 3.4 -3.9
v 2.9 3.4 -3.9
v 2.9 3.5 -3.9
v 3 3.5 -3.9
v 3 3.6 -3.9
v 3 3.8 -3.9
v 3 4 -3.9
v 3.1 3.6 -3.9
v 3.1 3.8 -3.9
v 4 2 -3.9
v 4 4 -3.9
v 0 2 -4
v 0 4 -4
v 0.2 3.9 -4
v 0.2 4 -4
v 0.2 4.2 -4
v 0.3 3.7 -4
v 0.3 3.9 -4
v 0.3 4 -4
v 0.3 4.2 -4
v 0.3 4.3 -4
v 0.4 3.4 -4
v 0.4 3.7 -4
v 0.4 4 -4
v 0.4 4.2 -4
v 0.4 4.3 -4
v 0.5 3.3 -4
v 0.5 3.4 -4
v 0.5 3.5 -4
v 0.5 3.6 -4
v 0.5 3.8 -4
v 0.5 4 -4
v 0.5 4.1 -4
v 0.5 4.2 -4
v 0.6 3.2 -4
v 0.6 3.3 -4
v 0.6 3.7 -4
v 0.6 3.8 -4
v 0.6 4 -4
v 0.6 4.1 -4
v 0.7 3.4 -4
v 0.7 3.5 -4
v 0.7 3.9 -4
v 0.7 4 -4
v 0.8 3 -4
v 0.8 3.2 -4
v 0.8 3.3 -4
v 0.8 3.4 -4
v 0.8 3.6 -4
v 0.8 3.8 -4
v 0.8 3.9 -4
v 0.9 3.6 -4
v 0.9 3.8 -4
v 1 3.3 -4
v 1 3.4 -4
v 1 3.5 -4
v 1 3.6 -4
v 1.1 3 -4
v 1.1 3.2 -4
v 1.1 3.4 -4
v 1.1 3.5 -4
v 1.2 3.2 -4
v 1.2 3.4 -4
v 1.8 3.1 -4
v 1.8 4 -4
v 1.8 4.5 -4
v 1.9 4.5 -4
v 1.9 4.7 -4
v 2 3 -4
v 2 3.1 -4
v 2 3.3 -4
v 2 4.6 -4
v 2 4.7 -4
v 2 4.8 -4
v 2.1 3.4 -4
v 2.1 4.6 -4
v 2.1 4.7 -4
v 2.2 2.9 -4
v 2.2 3 -4
v 2.2 3.2 -4
v 2.2 3.3 -4
v 2.2 3.4 -4
v 2.2 4.6 -4
v 2.2 4.7 -4
v 2.2 4.8 -4
v 2.2 4.9 -4
v 2.3 3.2 -4
v 2.3 3.3 -4
v 2.3 3.7 -4
v 2.3 3.8 -4
v 2.3 4.4 -4
v 2.3 4.9 -4
v 2.4 3.5 -4
v 2.4 3.6 -4
v 2.4 3.7 -4
v 2.4 3.8 -4
v 2.4 3.9 -4
v 2.4 4 -4
v 2.4 4.3 -4
v 2.4 4.4 -4
v 2.5 2.9 -4
v 2.5 3 -4
v 2.5 3.5 -4
v 2.5 3.6 -4
v 2.5 3.9 -4
v 2.5 4 -4
v 2.5 4.2 -4
v 2.5 4.3 -4
v 2.6 3 -4
v 2.6 3.2 -4
v 2.6 4.1 -4
v 2.6 4.2 -4
v 2.7 3.2 -4
v 2.7 3.3 -4
v 2.7 4 -4
v 2.7 4.1 -4
v 2.8 3.3 -4
v 2.8 3.4 -4
v 2.9 3.4 -4
v 2.9 3.5 -4
v 3 3.5 -4
v 3 3.6 -4
v 3 3.8 -4
v 3 4 -4
v 3.1 3.6 -4
v 3.1 3.8 -4
v 4 2 -4
v 4 4 -4
v 0 2 -3.9
v 4 2 -3.9
v 0 2 -4
v 4 2 -4
v 0 4 -3.9
v 0.2 4 -3.9
v 0.6 4 -3.9
v 0.7 4 -3.9
v 1.8 4 -3.9
v 2.7 4 -3.9
v 3 4 -3.9
v 4 4 -3.9
v 0 4 -4
v 0.2 4 -4
v 0.6 4 -4
v 0.7 4 -4
v 1.8 4 -4
v 2.7 4 -4
v 3 4 -4
v 4 4 -4
v 0.5 4.1 -3.9
v 0.6 4.1 -3.9
v 2.6 4.1 -3.9
v 2.7 4.1 -3.9
v 0.5 4.1 -4
v 0.6 4.1 -4
v 2.6 4.1 -4
v 2.7 4.1 -4
v 0.2 4.2 -3.9
v 0.3 4.2 -3.9
v 0.4 4.2 -3.9
v 0.5 4.2 -3.9
v 2.5 4.2 -3.9
v 2.6 4.2 -3.9
v 0.2 4.2 -4
v 0.3 4.2 -4
v 0.4 4.2 -4
v 0.5 4.2 -4
v 2.5 4.2 -4
v 2.6 4.2 -4
v 0.3 4.3 -3.9
v 0.4 4.3 -3.9
v 2.4 4.3 -3.9
v 2.5 4.3 -3.9
v 0.3 4.3 -4
v 0.4 4.3 -4
v 2.4 4.3 -4
v 2.5 4.3 -4
v 2.3 4.4 -3.9
v 2.4 4.4 -3.9
v 2.3 4.4 -4
v 2.4 4.4 -4
v 1.8 4.5 -3.9
v 1.9 4.5 -3.9
v 1.8 4.5 -4
v 1.9 4.5 -4
v 1.9 4.7 -3.9
v 2 4.7 -3.9
v 1.9 4.7 -4
v 2 4.7 -4
v 2 4.8 -3.9
v 2.2 4.8 -3.9
v 2 4.8 -4
v 2.2 4.8 -4
v 2.2 4.9 -3.9
v 2.3 4.9 -3.9
v 2.2 4.9 -4
v 2.3 4.9 -4

# faces
f 3/4/1 2/4/1 1/4/1
f 4/4/1 2/4/1 3/4/1
f 7/1/1 6/1/1 5/1/1
f 8/1/1 6/1/1 7/1/1
f 11/1/1 10/1/1 9/1/1
f 12/1/1 10/1/1 11/1/1
f 15/2/1 14/2/1 13/2/1
f 16/2/1 14/2/1 15/2/1
f 19/2/1 18/2/1 17/2/1
f 20/2/1 18/2/1 19/2/1
f 23/2/1 22/2/1 21/2/1
f 24/2/1 22/2/1 23/2/1
f 27/2/1 26/2/1 25/2/1
f 28/2/1 26/2/1 27/2/1
f 29/1/2 30/1/2 31/1/2
f 31/1/2 30/1/2 32/1/2
f 33/1/2 34/1/2 35/1/2
f 35/1/2 34/1/2 36/1/2
f 37/1/2 38/1/2 39/1/2
f 39/1/2 38/1/2 40/1/2
f 41/2/2 42/2/2 43/2/2
f 43/2/2 42/2/2 44/2/2
f 45/2/2 46/2/2 47/2/2
f 47/2/2 46/2/2 48/2/2
f 49/2/2 50/2/2 51/2/2
f 51/2/2 50/2/2 52/2/2
f 53/2/2 54/2/2 55/2/2
f 55/2/2 54/2/2 56/2/2
f 57/2/2 58/2/2 59/2/2
f 59/2/2 58/2/2 60/2/2
f 61/4/2 62/4/2 63/4/2
f 63/4/2 62/4/2 64/4/2
f 67/4/3 66/4/3 65/4/3
f 68/4/3 66/4/3 67/4/3
f 70/4/3 67/4/3 65/4/3
f 71/1/3 69/1/3 68/1/3
f 71/4/3 67/4/3 70/4/3
f 71/1/3 68/1/3 67/1/3
f 72/1/3 69/1/3 71/1/3
f 73/1/3 69/1/3 72/1/3
f 75/4/3 70/4/3 65/4/3
f 76/1/3 71/1/3 70/1/3
f 76/4/3 70/4/3 75/4/3
f 76/1/3 72/1/3 71/1/3
f 77/3/3 73/3/3 72/3/3
f 77/1/3 72/1/3 76/1/3
f 78/1/3 74/1/3 73/1/3
f 78/3/3 73/3/3 77/3/3
f 79/1/3 74/1/3 78/1/3
f 80/4/3 75/4/3 65/4/3
f 81/1/3 76/1/3 75/1/3
f 81/4/3 75/4/3 80/4/3
f 82/1/3 76/1/3 81/1/3
f 83/1/3 76/1/3 82/1/3
f 84/3/3 77/3/3 76/3/3
f 85/1/3 78/1/3 77/1/3
f 85/3/3 77/3/3 84/3/3
f 86/1/3 78/1/3 85/1/3
f 87/1/3 78/1/3 86/1/3
f 88/4/3 80/4/3 65/4/3
f 89/1/3 81/1/3 80/1/3
f 89/4/3 80/4/3 88/4/3
f 89/1/3 82/1/3 81/1/3
f 90/1/3 76/1/3 83/1/3
f 90/3/3 84/3/3 76/3/3
f 91/1/3 86/1/3 85/1/3
f 91/3/3 84/3/3 90/3/3
f 91/1/3 85/1/3 84/1/3
f 92/1/3 86/1/3 91/1/3
f 93/1/3 86/1/3 92/1/3
f 94/1/3 82/1/3 89/1/3
f 94/1/3 89/1/3 88/1/3
f 95/3/3 83/3/3 82/3/3
f 95/1/3 82/1/3 94/1/3
f 96/1/3 92/1/3 91/1/3
f 96/1/3 91/1/3 90/1/3
f 97/1/3 92/1/3 96/1/3
f 98/4/3 88/4/3 65/4/3
f 99/1/3 94/1/3 88/1/3
f 99/4/3 88/4/3 98/4/3
f 100/1/3 94/1/3 99/1/3
f 101/3/3 95/3/3 94/3/3
f 101/1/3 94/1/3 100/1/3
f 102/3/3 83/3/3 95/3/3
f 102/3/3 95/3/3 101/3/3
f 102/1/3 90/1/3 83/1/3
f 102/1/3 96/1/3 90/1/3
f 103/1/3 96/1/3 102/1/3
f 104/4/3 97/4/3 96/4/3
f 104/1/3 96/1/3 103/1/3
f 105/1/3 103/1/3 102/1/3
f 105/1/3 102/1/3 101/1/3
f 106/4/3 104/4/3 103/4/3
f 106/1/3 103/1/3 105/1/3
f 107/3/3 101/3/3 100/3/3
f 107/1/3 99/1/3 98/1/3
f 107/1/3 100/1/3 99/1/3
f 108/1/3 105/1/3 101/1/3
f 108/3/3 101/3/3 107/3/3
f 109/1/3 105/1/3 108/1/3
f 110/4/3 106/4/3 105/4/3
f 110/1/3 105/1/3 109/1/3
f 111/1/3 109/1/3 108/1/3
f 111/4/3 98/4/3 65/4/3
f 111/1/3 107/1/3 98/1/3
f 111/1/3 108/1/3 107/1/3
f 112/1/3 109/1/3 111/1/3
f 113/1/3 109/1/3 112/1/3
f 114/4/3 110/4/3 109/4/3
f 114/1/3 109/1/3 113/1/3
f 115/1/3 113/1/3 112/1/3
f 115/4/3 112/4/3 111/4/3
f 116/4/3 114/4/3 113/4/3
f 116/1/3 113/1/3 115/1/3
f 117/4/3 115/4/3 111/4/3
f 117/4/3 116/4/3 115/4/3
f 118/4/3 104/4/3 106/4/3
f 118/4/3 116/4/3 117/4/3
f 118/4/3 106/4/3 110/4/3
f 118/4/3 114/4/3 116/4/3
f 118/4/3 110/4/3 114/4/3
f 118/4/3 97/4/3 104/4/3
f 120/2/3 118/2/3 117/2/3
f 120/2/3 119/2/3 118/2/3
f 122/4/3 117/4/3 111/4/3
f 122/4/3 111/4/3 65/4/3
f 123/2/3 121/2/3 120/2/3
f 123/4/3 117/4/3 122/4/3
f 123/2/3 120/2/3 117/2/3
f 124/2/3 121/2/3 123/2/3
f 125/2/3 121/2/3 124/2/3
f 126/2/3 121/2/3 125/2/3
f 128/3/3 125/3/3 124/3/3
f 129/2/3 127/2/3 126/2/3
f 129/3/3 125/3/3 128/3/3
f 129/2/3 126/2/3 125/2/3
f 130/2/3 127/2/3 129/2/3
f 131/4/3 122/4/3 65/4/3
f 132/2/3 123/2/3 122/2/3
f 132/4/3 122/4/3 131/4/3
f 132/2/3 124/2/3 123/2/3
f 133/2/3 124/2/3 132/2/3
f 134/3/3 128/3/3 124/3/3
f 134/2/3 124/2/3 133/2/3
f 135/2/3 129/2/3 128/2/3
f 135/3/3 128/3/3 134/3/3
f 136/3/3 130/3/3 129/3/3
f 136/2/3 129/2/3 135/2/3
f 137/2/3 127/2/3 130/2/3
f 137/3/3 130/3/3 136/3/3
f 138/2/3 127/2/3 137/2/3
f 140/2/3 133/2/3 132/2/3
f 140/3/3 134/3/3 133/3/3
f 140/2/3 132/2/3 131/2/3
f 141/2/3 136/2/3 135/2/3
f 141/3/3 134/3/3 140/3/3
f 141/2/3 135/2/3 134/2/3
f 141/2/3 137/2/3 136/2/3
f 141/2/3 138/2/3 137/2/3
f 141/2/3 139/2/3 138/2/3
f 142/2/3 139/2/3 141/2/3
f 143/2/3 139/2/3 142/2/3
f 144/2/3 139/2/3 143/2/3
f 145/2/3 139/2/3 144/2/3
f 146/2/3 141/2/3 140/2/3
f 146/2/3 142/2/3 141/2/3
f 147/2/3 142/2/3 146/2/3
f 148/3/3 143/3/3 142/3/3
f 148/2/3 142/2/3 147/2/3
f 149/2/3 144/2/3 143/2/3
f 149/3/3 143/3/3 148/3/3
f 150/2/3 144/2/3 149/2/3
f 151/2/3 144/2/3 150/2/3
f 152/2/3 144/2/3 151/2/3
f 153/2/3 144/2/3 152/2/3
f 154/2/3 140/2/3 131/2/3
f 154/4/3 131/4/3 65/4/3
f 154/2/3 146/2/3 140/2/3
f 155/2/3 146/2/3 154/2/3
f 156/3/3 147/3/3 146/3/3
f 156/2/3 146/2/3 155/2/3
f 157/2/3 148/2/3 147/2/3
f 157/3/3 147/3/3 156/3/3
f 157/2/3 149/2/3 148/2/3
f 157/2/3 150/2/3 149/2/3
f 158/3/3 151/3/3 150/3/3
f 158/2/3 150/2/3 157/2/3
f 159/2/3 152/2/3 151/2/3
f 159/3/3 151/3/3 158/3/3
f 160/2/3 152/2/3 159/2/3
f 161/2/3 152/2/3 160/2/3
f 162/2/3 158/2/3 157/2/3
f 162/2/3 156/2/3 155/2/3
f 162/2/3 160/2/3 159/2/3
f 162/2/3 159/2/3 158/2/3
f 162/4/3 155/4/3 154/4/3
f 162/2/3 157/2/3 156/2/3
f 163/2/3 160/2/3 162/2/3
f 164/2/3 160/2/3 163/2/3
f 165/2/3 160/2/3 164/2/3
f 166/4/3 163/4/3 162/4/3
f 166/2/3 164/2/3 163/2/3
f 167/2/3 164/2/3 166/2/3
f 168/2/3 164/2/3 167/2/3
f 169/2/3 164/2/3 168/2/3
f 170/4/3 167/4/3 166/4/3
f 170/2/3 168/2/3 167/2/3
f 171/2/3 168/2/3 170/2/3
f 172/4/3 171/4/3 170/4/3
f 172/2/3 168/2/3 171/2/3
f 173/2/3 168/2/3 172/2/3
f 174/4/3 173/4/3 172/4/3
f 174/2/3 168/2/3 173/2/3
f 175/2/3 168/2/3 174/2/3
f 176/2/3 168/2/3 175/2/3
f 177/2/3 168/2/3 176/2/3
f 178/4/3 175/4/3 174/4/3
f 178/2/3 176/2/3 175/2/3
f 179/4/3 177/4/3 176/4/3
f 179/2/3 176/2/3 178/2/3
f 180/4/3 154/4/3 65/4/3
f 180/4/3 162/4/3 154/4/3
f 180/4/3 179/4/3 178/4/3
f 180/4/3 178/4/3 174/4/3
f 180/4/3 166/4/3 162/4/3
f 180/4/3 174/4/3 172/4/3
f 180/4/3 172/4/3 170/4/3
f 180/4/3 170/4/3 166/4/3
f 181/4/3 177/4/3 179/4/3
f 181/4/3 179/4/3 180/4/3
f 182/4/4 183/4/4 184/4/4
f 184/4/4 183/4/4 185/4/4
f 182/4/4 184/4/4 187/4/4
f 185/1/4 186/1/4 188/1/4
f 187/4/4 184/4/4 188/4/4
f 184/1/4 185/1/4 188/1/4
f 188/1/4 186/1/4 189/1/4
f 189/1/4 186/1/4 190/1/4
f 182/4/4 187/4/4 192/4/4
f 187/1/4 188/1/4 193/1/4
f 192/4/4 187/4/4 193/4/4
f 188/1/4 189/1/4 193/1/4
f 189/3/4 190/3/4 194/3/4
f 193/1/4 189/1/4 194/1/4
f 190/1/4 191/1/4 195/1/4
f 194/3/4 190/3/4 195/3/4
f 195/1/4 191/1/4 196/1/4
f 182/4/4 192/4/4 197/4/4
f 192/1/4 193/1/4 198/1/4
f 197/4/4 192/4/4 198/4/4
f 198/1/4 193/1/4 199/1/4
f 199/1/4 193/1/4 200/1/4
f 193/3/4 194/3/4 201/3/4
f 194/1/4 195/1/4 202/1/4
f 201/3/4 194/3/4 202/3/4
f 202/1/4 195/1/4 203/1/4
f 203/1/4 195/1/4 204/1/4
f 182/4/4 197/4/4 205/4/4
f 197/1/4 198/1/4 206/1/4
f 205/4/4 197/4/4 206/4/4
f 198/1/4 199/1/4 206/1/4
f 200/1/4 193/1/4 207/1/4
f 193/3/4 201/3/4 207/3/4
f 202/1/4 203/1/4 208/1/4
f 207/3/4 201/3/4 208/3/4
f 201/1/4 202/1/4 208/1/4
f 208/1/4 203/1/4 209/1/4
f 209/1/4 203/1/4 210/1/4
f 206/1/4 199/1/4 211/1/4
f 205/1/4 206/1/4 211/1/4
f 199/3/4 200/3/4 212/3/4
f 211/1/4 199/1/4 212/1/4
f 208/1/4 209/1/4 213/1/4
f 207/1/4 208/1/4 213/1/4
f 213/1/4 209/1/4 214/1/4
f 182/4/4 205/4/4 215/4/4
f 205/1/4 211/1/4 216/1/4
f 215/4/4 205/4/4 216/4/4
f 216/1/4 211/1/4 217/1/4
f 211/3/4 212/3/4 218/3/4
f 217/1/4 211/1/4 218/1/4
f 212/3/4 200/3/4 219/3/4
f 218/3/4 212/3/4 219/3/4
f 200/1/4 207/1/4 219/1/4
f 207/1/4 213/1/4 219/1/4
f 219/1/4 213/1/4 220/1/4
f 213/4/4 214/4/4 221/4/4
f 220/1/4 213/1/4 221/1/4
f 219/1/4 220/1/4 222/1/4
f 218/1/4 219/1/4 222/1/4
f 220/4/4 221/4/4 223/4/4
f 222/1/4 220/1/4 223/1/4
f 217/3/4 218/3/4 224/3/4
f 215/1/4 216/1/4 224/1/4
f 216/1/4 217/1/4 224/1/4
f 218/1/4 222/1/4 225/1/4
f 224/3/4 218/3/4 225/3/4
f 225/1/4 222/1/4 226/1/4
f 222/4/4 223/4/4 227/4/4
f 226/1/4 222/1/4 227/1/4
f 225/1/4 226/1/4 228/1/4
f 182/4/4 215/4/4 228/4/4
f 215/1/4 224/1/4 228/1/4
f 224/1/4 225/1/4 228/1/4
f 228/1/4 226/1/4 229/1/4
f 229/1/4 226/1/4 230/1/4
f 226/4/4 227/4/4 231/4/4
f 230/1/4 226/1/4 231/1/4
f 229/1/4 230/1/4 232/1/4
f 228/4/4 229/4/4 232/4/4
f 230/4/4 231/4/4 233/4/4
f 232/1/4 230/1/4 233/1/4
f 228/4/4 232/4/4 234/4/4
f 232/4/4 233/4/4 234/4/4
f 223/4/4 221/4/4 235/4/4
f 234/4/4 233/4/4 235/4/4
f 227/4/4 223/4/4 235/4/4
f 233/4/4 231/4/4 235/4/4
f 231/4/4 227/4/4 235/4/4
f 221/4/4 214/4/4 235/4/4
f 234/2/4 235/2/4 237/2/4
f 235/2/4 236/2/4 237/2/4
f 228/4/4 234/4/4 239/4/4
f 182/4/4 228/4/4 239/4/4
f 237/2/4 238/2/4 240/2/4
f 239/4/4 234/4/4 240/4/4
f 234/2/4 237/2/4 240/2/4
f 240/2/4 238/2/4 241/2/4
f 241/2/4 238/2/4 242/2/4
f 242/2/4 238/2/4 243/2/4
f 241/3/4 242/3/4 245/3/4
f 243/2/4 244/2/4 246/2/4
f 245/3/4 242/3/4 246/3/4
f 242/2/4 243/2/4 246/2/4
f 246/2/4 244/2/4 247/2/4
f 182/4/4 239/4/4 248/4/4
f 239/2/4 240/2/4 249/2/4
f 248/4/4 239/4/4 249/4/4
f 240/2/4 241/2/4 249/2/4
f 249/2/4 241/2/4 250/2/4
f 241/3/4 245/3/4 251/3/4
f 250/2/4 241/2/4 251/2/4
f 245/2/4 246/2/4 252/2/4
f 251/3/4 245/3/4 252/3/4
f 246/3/4 247/3/4 253/3/4
f 252/2/4 246/2/4 253/2/4
f 247/2/4 244/2/4 254/2/4
f 253/3/4 247/3/4 254/3/4
f 254/2/4 244/2/4 255/2/4
f 249/2/4 250/2/4 257/2/4
f 250/3/4 251/3/4 257/3/4
f 248/2/4 249/2/4 257/2/4
f 252/2/4 253/2/4 258/2/4
f 257/3/4 251/3/4 258/3/4
f 251/2/4 252/2/4 258/2/4
f 253/2/4 254/2/4 258/2/4
f 254/2/4 255/2/4 258/2/4
f 255/2/4 256/2/4 258/2/4
f 258/2/4 256/2/4 259/2/4
f 259/2/4 256/2/4 260/2/4
f 260/2/4 256/2/4 261/2/4
f 261/2/4 256/2/4 262/2/4
f 257/2/4 258/2/4 263/2/4
f 258/2/4 259/2/4 263/2/4
f 263/2/4 259/2/4 264/2/4
f 259/3/4 260/3/4 265/3/4
f 264/2/4 259/2/4 265/2/4
f 260/2/4 261/2/4 266/2/4
f 265/3/4 260/3/4 266/3/4
f 266/2/4 261/2/4 267/2/4
f 267/2/4 261/2/4 268/2/4
f 268/2/4 261/2/4 269/2/4
f 269/2/4 261/2/4 270/2/4
f 248/2/4 257/2/4 271/2/4
f 182/4/4 248/4/4 271/4/4
f 257/2/4 263/2/4 271/2/4
f 271/2/4 263/2/4 272/2/4
f 263/3/4 264/3/4 273/3/4
f 272/2/4 263/2/4 273/2/4
f 264/2/4 265/2/4 274/2/4
f 273/3/4 264/3/4 274/3/4
f 265/2/4 266/2/4 274/2/4
f 266/2/4 267/2/4 274/2/4
f 267/3/4 268/3/4 275/3/4
f 274/2/4 267/2/4 275/2/4
f 268/2/4 269/2/4 276/2/4
f 275/3/4 268/3/4 276/3/4
f 276/2/4 269/2/4 277/2/4
f 277/2/4 269/2/4 278/2/4
f 274/2/4 275/2/4 279/2/4
f 272/2/4 273/2/4 279/2/4
f 276/2/4 277/2/4 279/2/4
f 275/2/4 276/2/4 279/2/4
f 271/4/4 272/4/4 279/4/4
f 273/2/4 274/2/4 279/2/4
f 279/2/4 277/2/4 280/2/4
f 280/2/4 277/2/4 281/2/4
f 281/2/4 277/2/4 282/2/4
f 279/4/4 280/4/4 283/4/4
f 280/2/4 281/2/4 283/2/4
f 283/2/4 281/2/4 284/2/4
f 284/2/4 281/2/4 285/2/4
f 285/2/4 281/2/4 286/2/4
f 283/4/4 284/4/4 287/4/4
f 284/2/4 285/2/4 287/2/4
f 287/2/4 285/2/4 288/2/4
f 287/4/4 288/4/4 289/4/4
f 288/2/4 285/2/4 289/2/4
f 289/2/4 285/2/4 290/2/4
f 289/4/4 290/4/4 291/4/4
f 290/2/4 285/2/4 291/2/4
f 291/2/4 285/2/4 292/2/4
f 292/2/4 285/2/4 293/2/4
f 293/2/4 285/2/4 294/2/4
f 291/4/4 292/4/4 295/4/4
f 292/2/4 293/2/4 295/2/4
f 293/4/4 294/4/4 296/4/4
f 295/2/4 293/2/4 296/2/4
f 182/4/4 271/4/4 297/4/4
f 271/4/4 279/4/4 297/4/4
f 295/4/4 296/4/4 297/4/4
f 291/4/4 295/4/4 297/4/4
f 279/4/4 283/4/4 297/4/4
f 289/4/4 291/4/4 297/4/4
f 287/4/4 289/4/4 297/4/4
f 283/4/4 287/4/4 297/4/4
f 296/4/4 294/4/4 298/4/4
f 297/4/4 296/4/4 298/4/4
f 301/4/5 300/4/5 299/4/5
f 302/4/5 300/4/5 301/4/5
f 303/4/6 304/4/6 311/4/6
f 311/4/6 304/4/6 312/4/6
f 305/1/6 306/1/6 313/1/6
f 306/4/6 307/4/6 314/4/6
f 313/1/6 306/1/6 314/1/6
f 314/4/6 307/4/6 315/4/6
f 308/2/6 309/2/6 316/2/6
f 309/4/6 310/4/6 317/4/6
f 316/2/6 309/2/6 317/2/6
f 317/4/6 310/4/6 318/4/6
f 319/1/6 320/1/6 323/1/6
f 323/1/6 320/1/6 324/1/6
f 321/2/6 322/2/6 325/2/6
f 325/2/6 322/2/6 326/2/6
f 327/1/6 328/1/6 333/1/6
f 333/1/6 328/1/6 334/1/6
f 329/1/6 330/1/6 335/1/6
f 335/1/6 330/1/6 336/1/6
f 331/2/6 332/2/6 337/2/6
f 337/2/6 332/2/6 338/2/6
f 339/1/6 340/1/6 343/1/6
f 343/1/6 340/1/6 344/1/6
f 341/2/6 342/2/6 345/2/6
f 345/2/6 342/2/6 346/2/6
f 347/2/6 348/2/6 349/2/6
f 349/2/6 348/2/6 350/2/6
f 351/2/6 352/2/6 353/2/6
f 353/2/6 352/2/6 354/2/6
f 355/2/6 356/2/6 357/2/6
f 357/2/6 356/2/6 358/2/6
f 359/2/6 360/2/6 361/2/6
f 361/2/6 360/2/6 362/2/6
f 363/2/6 364/2/6 365/2/6
f 365/2/6 364/2/6 366/2/6
