# MagicaVoxel @ Ephtracy

# group
o 

# material
mtllib stege2_parts1.mtl
usemtl palette

# normals
vn -1 0 0
vn 1 0 0
vn 0 0 1
vn 0 0 -1
vn 0 -1 0
vn 0 1 0

# texcoords
vt 0.404297 0.5
vt 0.591797 0.5
vt 0.888672 0.5
vt 0.958984 0.5
vt 0.986328 0.5

# verts
v 0 2 0
v 0 2 -0.1
v 0 4.6 0
v 0 4.6 -0.1
v 1.1 2 0
v 1.1 2 -0.1
v 1.1 2.1 0
v 1.1 2.1 -0.1
v 1.2 2.1 0
v 1.2 2.1 -0.1
v 1.2 2.2 0
v 1.2 2.2 -0.1
v 1.3 2.2 0
v 1.3 2.2 -0.1
v 1.3 2.3 0
v 1.3 2.3 -0.1
v 1.4 2.3 0
v 1.4 2.3 -0.1
v 1.4 2.4 0
v 1.4 2.4 -0.1
v 1.5 2.4 0
v 1.5 2.4 -0.1
v 1.5 2.5 0
v 1.5 2.5 -0.1
v 1.6 2.5 0
v 1.6 2.5 -0.1
v 1.6 2.6 0
v 1.6 2.6 -0.1
v 1.7 2.6 0
v 1.7 2.6 -0.1
v 1.7 2.7 0
v 1.7 2.7 -0.1
v 1.8 2.7 0
v 1.8 2.7 -0.1
v 1.8 2.8 0
v 1.8 2.8 -0.1
v 1.9 2.8 0
v 1.9 2.8 -0.1
v 1.9 2.9 0
v 1.9 2.9 -0.1
v 2 2.9 0
v 2 2.9 -0.1
v 2 3 0
v 2 3 -0.1
v 2.1 3 0
v 2.1 3 -0.1
v 2.1 3.1 0
v 2.1 3.1 -0.1
v 2.2 3.1 0
v 2.2 3.1 -0.1
v 2.2 3.2 0
v 2.2 3.2 -0.1
v 2.3 3.2 0
v 2.3 3.2 -0.1
v 2.3 3.3 0
v 2.3 3.3 -0.1
v 2.4 3.3 0
v 2.4 3.3 -0.1
v 2.4 3.4 0
v 2.4 3.4 -0.1
v 2.5 3.4 0
v 2.5 3.4 -0.1
v 2.5 3.5 0
v 2.5 3.5 -0.1
v 2.6 3.5 0
v 2.6 3.5 -0.1
v 2.6 3.6 0
v 2.6 3.6 -0.1
v 2.7 3.6 0
v 2.7 3.6 -0.1
v 2.7 3.7 0
v 2.7 3.7 -0.1
v 2.8 3.7 0
v 2.8 3.7 -0.1
v 2.8 3.8 0
v 2.8 3.8 -0.1
v 2.9 3.8 0
v 2.9 3.8 -0.1
v 2.9 3.9 0
v 2.9 3.9 -0.1
v 3 3.9 0
v 3 3.9 -0.1
v 3 4 0
v 3 4 -0.1
v 3.1 4 0
v 3.1 4 -0.1
v 3.1 4.1 0
v 3.1 4.1 -0.1
v 3.2 4.1 0
v 3.2 4.1 -0.1
v 3.2 4.2 0
v 3.2 4.2 -0.1
v 3.3 4.2 0
v 3.3 4.2 -0.1
v 3.3 4.3 0
v 3.3 4.3 -0.1
v 3.4 4.3 0
v 3.4 4.3 -0.1
v 3.4 4.4 0
v 3.4 4.4 -0.1
v 3.5 4.4 0
v 3.5 4.4 -0.1
v 3.5 4.5 0
v 3.5 4.5 -0.1
v 3.7 4.5 0
v 3.7 4.5 -0.1
v 3.7 4.6 0
v 3.7 4.6 -0.1
v 0 2 0
v 0 4.6 0
v 0.1 2.9 0
v 0.1 3.4 0
v 0.2 2.8 0
v 0.2 2.9 0
v 0.2 3.4 0
v 0.2 3.5 0
v 0.2 4.1 0
v 0.2 4.2 0
v 0.3 2.7 0
v 0.3 2.8 0
v 0.3 3.5 0
v 0.3 3.6 0
v 0.4 4 0
v 0.4 4.1 0
v 0.4 4.2 0
v 0.4 4.3 0
v 0.5 3.4 0
v 0.5 3.5 0
v 0.5 4.2 0
v 0.5 4.3 0
v 0.6 3.3 0
v 0.6 3.4 0
v 0.6 3.5 0
v 0.7 2.7 0
v 0.7 2.8 0
v 0.7 3.2 0
v 0.7 3.3 0
v 0.7 3.5 0
v 0.7 3.6 0
v 0.7 4 0
v 0.7 4.1 0
v 0.7 4.2 0
v 0.7 4.3 0
v 0.8 2.8 0
v 0.8 2.9 0
v 0.8 3.2 0
v 0.8 3.4 0
v 0.8 3.5 0
v 0.9 2.9 0
v 0.9 3.4 0
v 0.9 4.1 0
v 0.9 4.2 0
v 1.1 2 0
v 1.1 2.1 0
v 1.2 2.1 0
v 1.2 2.2 0
v 1.3 2.2 0
v 1.3 2.3 0
v 1.3 3.8 0
v 1.3 4.2 0
v 1.4 2.3 0
v 1.4 2.4 0
v 1.4 3.7 0
v 1.4 3.8 0
v 1.4 4.2 0
v 1.4 4.3 0
v 1.5 2.4 0
v 1.5 2.5 0
v 1.5 4.1 0
v 1.5 4.2 0
v 1.6 2.5 0
v 1.6 2.6 0
v 1.6 3.8 0
v 1.6 4.1 0
v 1.6 4.2 0
v 1.7 2.6 0
v 1.7 2.7 0
v 1.7 3.7 0
v 1.7 3.8 0
v 1.7 4.1 0
v 1.7 4.2 0
v 1.7 4.3 0
v 1.8 2.7 0
v 1.8 2.8 0
v 1.8 3.8 0
v 1.8 4.2 0
v 1.9 2.8 0
v 1.9 2.9 0
v 2 2.9 0
v 2 3 0
v 2.1 3 0
v 2.1 3.1 0
v 2.2 3.1 0
v 2.2 3.2 0
v 2.3 3.2 0
v 2.3 3.3 0
v 2.4 3.3 0
v 2.4 3.4 0
v 2.5 3.4 0
v 2.5 3.5 0
v 2.6 3.5 0
v 2.6 3.6 0
v 2.7 3.6 0
v 2.7 3.7 0
v 2.8 3.7 0
v 2.8 3.8 0
v 2.9 3.8 0
v 2.9 3.9 0
v 3 3.9 0
v 3 4 0
v 3.1 4 0
v 3.1 4.1 0
v 3.2 4.1 0
v 3.2 4.2 0
v 3.3 4.2 0
v 3.3 4.3 0
v 3.4 4.3 0
v 3.4 4.4 0
v 3.5 4.4 0
v 3.5 4.5 0
v 3.7 4.5 0
v 3.7 4.6 0
v 0 2 -0.1
v 0 4.6 -0.1
v 0.1 2.9 -0.1
v 0.1 3.4 -0.1
v 0.2 2.8 -0.1
v 0.2 2.9 -0.1
v 0.2 3.4 -0.1
v 0.2 3.5 -0.1
v 0.2 4.1 -0.1
v 0.2 4.2 -0.1
v 0.3 2.7 -0.1
v 0.3 2.8 -0.1
v 0.3 3.5 -0.1
v 0.3 3.6 -0.1
v 0.4 4 -0.1
v 0.4 4.1 -0.1
v 0.4 4.2 -0.1
v 0.4 4.3 -0.1
v 0.5 3.4 -0.1
v 0.5 3.5 -0.1
v 0.5 4.2 -0.1
v 0.5 4.3 -0.1
v 0.6 3.3 -0.1
v 0.6 3.4 -0.1
v 0.6 3.5 -0.1
v 0.7 2.7 -0.1
v 0.7 2.8 -0.1
v 0.7 3.2 -0.1
v 0.7 3.3 -0.1
v 0.7 3.5 -0.1
v 0.7 3.6 -0.1
v 0.7 4 -0.1
v 0.7 4.1 -0.1
v 0.7 4.2 -0.1
v 0.7 4.3 -0.1
v 0.8 2.8 -0.1
v 0.8 2.9 -0.1
v 0.8 3.2 -0.1
v 0.8 3.4 -0.1
v 0.8 3.5 -0.1
v 0.9 2.9 -0.1
v 0.9 3.4 -0.1
v 0.9 4.1 -0.1
v 0.9 4.2 -0.1
v 1.1 2 -0.1
v 1.1 2.1 -0.1
v 1.2 2.1 -0.1
v 1.2 2.2 -0.1
v 1.3 2.2 -0.1
v 1.3 2.3 -0.1
v 1.3 3.8 -0.1
v 1.3 4.2 -0.1
v 1.4 2.3 -0.1
v 1.4 2.4 -0.1
v 1.4 3.7 -0.1
v 1.4 3.8 -0.1
v 1.4 4.2 -0.1
v 1.4 4.3 -0.1
v 1.5 2.4 -0.1
v 1.5 2.5 -0.1
v 1.5 4.1 -0.1
v 1.5 4.2 -0.1
v 1.6 2.5 -0.1
v 1.6 2.6 -0.1
v 1.6 3.8 -0.1
v 1.6 4.1 -0.1
v 1.6 4.2 -0.1
v 1.7 2.6 -0.1
v 1.7 2.7 -0.1
v 1.7 3.7 -0.1
v 1.7 3.8 -0.1
v 1.7 4.1 -0.1
v 1.7 4.2 -0.1
v 1.7 4.3 -0.1
v 1.8 2.7 -0.1
v 1.8 2.8 -0.1
v 1.8 3.8 -0.1
v 1.8 4.2 -0.1
v 1.9 2.8 -0.1
v 1.9 2.9 -0.1
v 2 2.9 -0.1
v 2 3 -0.1
v 2.1 3 -0.1
v 2.1 3.1 -0.1
v 2.2 3.1 -0.1
v 2.2 3.2 -0.1
v 2.3 3.2 -0.1
v 2.3 3.3 -0.1
v 2.4 3.3 -0.1
v 2.4 3.4 -0.1
v 2.5 3.4 -0.1
v 2.5 3.5 -0.1
v 2.6 3.5 -0.1
v 2.6 3.6 -0.1
v 2.7 3.6 -0.1
v 2.7 3.7 -0.1
v 2.8 3.7 -0.1
v 2.8 3.8 -0.1
v 2.9 3.8 -0.1
v 2.9 3.9 -0.1
v 3 3.9 -0.1
v 3 4 -0.1
v 3.1 4 -0.1
v 3.1 4.1 -0.1
v 3.2 4.1 -0.1
v 3.2 4.2 -0.1
v 3.3 4.2 -0.1
v 3.3 4.3 -0.1
v 3.4 4.3 -0.1
v 3.4 4.4 -0.1
v 3.5 4.4 -0.1
v 3.5 4.5 -0.1
v 3.7 4.5 -0.1
v 3.7 4.6 -0.1
v 0 2 0
v 1.1 2 0
v 0 2 -0.1
v 1.1 2 -0.1
v 1.1 2.1 0
v 1.2 2.1 0
v 1.1 2.1 -0.1
v 1.2 2.1 -0.1
v 1.2 2.2 0
v 1.3 2.2 0
v 1.2 2.2 -0.1
v 1.3 2.2 -0.1
v 1.3 2.3 0
v 1.4 2.3 0
v 1.3 2.3 -0.1
v 1.4 2.3 -0.1
v 1.4 2.4 0
v 1.5 2.4 0
v 1.4 2.4 -0.1
v 1.5 2.4 -0.1
v 1.5 2.5 0
v 1.6 2.5 0
v 1.5 2.5 -0.1
v 1.6 2.5 -0.1
v 1.6 2.6 0
v 1.7 2.6 0
v 1.6 2.6 -0.1
v 1.7 2.6 -0.1
v 1.7 2.7 0
v 1.8 2.7 0
v 1.7 2.7 -0.1
v 1.8 2.7 -0.1
v 1.8 2.8 0
v 1.9 2.8 0
v 1.8 2.8 -0.1
v 1.9 2.8 -0.1
v 1.9 2.9 0
v 2 2.9 0
v 1.9 2.9 -0.1
v 2 2.9 -0.1
v 2 3 0
v 2.1 3 0
v 2 3 -0.1
v 2.1 3 -0.1
v 2.1 3.1 0
v 2.2 3.1 0
v 2.1 3.1 -0.1
v 2.2 3.1 -0.1
v 2.2 3.2 0
v 2.3 3.2 0
v 2.2 3.2 -0.1
v 2.3 3.2 -0.1
v 2.3 3.3 0
v 2.4 3.3 0
v 2.3 3.3 -0.1
v 2.4 3.3 -0.1
v 2.4 3.4 0
v 2.5 3.4 0
v 2.4 3.4 -0.1
v 2.5 3.4 -0.1
v 2.5 3.5 0
v 2.6 3.5 0
v 2.5 3.5 -0.1
v 2.6 3.5 -0.1
v 2.6 3.6 0
v 2.7 3.6 0
v 2.6 3.6 -0.1
v 2.7 3.6 -0.1
v 2.7 3.7 0
v 2.8 3.7 0
v 2.7 3.7 -0.1
v 2.8 3.7 -0.1
v 2.8 3.8 0
v 2.9 3.8 0
v 2.8 3.8 -0.1
v 2.9 3.8 -0.1
v 2.9 3.9 0
v 3 3.9 0
v 2.9 3.9 -0.1
v 3 3.9 -0.1
v 3 4 0
v 3.1 4 0
v 3 4 -0.1
v 3.1 4 -0.1
v 3.1 4.1 0
v 3.2 4.1 0
v 3.1 4.1 -0.1
v 3.2 4.1 -0.1
v 3.2 4.2 0
v 3.3 4.2 0
v 3.2 4.2 -0.1
v 3.3 4.2 -0.1
v 3.3 4.3 0
v 3.4 4.3 0
v 3.3 4.3 -0.1
v 3.4 4.3 -0.1
v 3.4 4.4 0
v 3.5 4.4 0
v 3.4 4.4 -0.1
v 3.5 4.4 -0.1
v 3.5 4.5 0
v 3.7 4.5 0
v 3.5 4.5 -0.1
v 3.7 4.5 -0.1
v 0 4.6 0
v 3.7 4.6 0
v 0 4.6 -0.1
v 3.7 4.6 -0.1

# faces
f 3/5/1 2/5/1 1/5/1
f 4/5/1 2/5/1 3/5/1
f 5/5/2 6/5/2 7/5/2
f 7/5/2 6/5/2 8/5/2
f 9/5/2 10/5/2 11/5/2
f 11/5/2 10/5/2 12/5/2
f 13/5/2 14/5/2 15/5/2
f 15/5/2 14/5/2 16/5/2
f 17/5/2 18/5/2 19/5/2
f 19/5/2 18/5/2 20/5/2
f 21/5/2 22/5/2 23/5/2
f 23/5/2 22/5/2 24/5/2
f 25/5/2 26/5/2 27/5/2
f 27/5/2 26/5/2 28/5/2
f 29/5/2 30/5/2 31/5/2
f 31/5/2 30/5/2 32/5/2
f 33/5/2 34/5/2 35/5/2
f 35/5/2 34/5/2 36/5/2
f 37/5/2 38/5/2 39/5/2
f 39/5/2 38/5/2 40/5/2
f 41/5/2 42/5/2 43/5/2
f 43/5/2 42/5/2 44/5/2
f 45/5/2 46/5/2 47/5/2
f 47/5/2 46/5/2 48/5/2
f 49/5/2 50/5/2 51/5/2
f 51/5/2 50/5/2 52/5/2
f 53/5/2 54/5/2 55/5/2
f 55/5/2 54/5/2 56/5/2
f 57/5/2 58/5/2 59/5/2
f 59/5/2 58/5/2 60/5/2
f 61/5/2 62/5/2 63/5/2
f 63/5/2 62/5/2 64/5/2
f 65/5/2 66/5/2 67/5/2
f 67/5/2 66/5/2 68/5/2
f 69/5/2 70/5/2 71/5/2
f 71/5/2 70/5/2 72/5/2
f 73/5/2 74/5/2 75/5/2
f 75/5/2 74/5/2 76/5/2
f 77/5/2 78/5/2 79/5/2
f 79/5/2 78/5/2 80/5/2
f 81/5/2 82/5/2 83/5/2
f 83/5/2 82/5/2 84/5/2
f 85/5/2 86/5/2 87/5/2
f 87/5/2 86/5/2 88/5/2
f 89/5/2 90/5/2 91/5/2
f 91/5/2 90/5/2 92/5/2
f 93/5/2 94/5/2 95/5/2
f 95/5/2 94/5/2 96/5/2
f 97/5/2 98/5/2 99/5/2
f 99/5/2 98/5/2 100/5/2
f 101/5/2 102/5/2 103/5/2
f 103/5/2 102/5/2 104/5/2
f 105/5/2 106/5/2 107/5/2
f 107/5/2 106/5/2 108/5/2
f 111/5/3 110/5/3 109/5/3
f 112/5/3 110/5/3 111/5/3
f 113/5/3 111/5/3 109/5/3
f 114/2/3 112/2/3 111/2/3
f 114/5/3 111/5/3 113/5/3
f 115/5/3 110/5/3 112/5/3
f 115/2/3 112/2/3 114/2/3
f 116/5/3 110/5/3 115/5/3
f 117/5/3 110/5/3 116/5/3
f 118/5/3 110/5/3 117/5/3
f 119/5/3 113/5/3 109/5/3
f 120/2/3 114/2/3 113/2/3
f 120/5/3 113/5/3 119/5/3
f 120/2/3 115/2/3 114/2/3
f 120/2/3 116/2/3 115/2/3
f 121/5/3 117/5/3 116/5/3
f 121/2/3 116/2/3 120/2/3
f 122/5/3 117/5/3 121/5/3
f 123/5/3 117/5/3 122/5/3
f 124/1/3 118/1/3 117/1/3
f 124/5/3 117/5/3 123/5/3
f 125/5/3 110/5/3 118/5/3
f 125/1/3 118/1/3 124/1/3
f 126/5/3 110/5/3 125/5/3
f 127/2/3 120/2/3 119/2/3
f 127/2/3 121/2/3 120/2/3
f 127/2/3 122/2/3 121/2/3
f 128/2/3 122/2/3 127/2/3
f 129/1/3 124/1/3 123/1/3
f 129/1/3 126/1/3 125/1/3
f 129/1/3 125/1/3 124/1/3
f 130/5/3 110/5/3 126/5/3
f 130/1/3 126/1/3 129/1/3
f 131/2/3 127/2/3 119/2/3
f 132/4/3 128/4/3 127/4/3
f 132/2/3 127/2/3 131/2/3
f 133/2/3 122/2/3 128/2/3
f 133/4/3 128/4/3 132/4/3
f 134/5/3 119/5/3 109/5/3
f 134/2/3 131/2/3 119/2/3
f 135/2/3 131/2/3 134/2/3
f 136/2/3 131/2/3 135/2/3
f 137/4/3 132/4/3 131/4/3
f 137/2/3 131/2/3 136/2/3
f 138/2/3 122/2/3 133/2/3
f 138/2/3 133/2/3 132/2/3
f 139/5/3 123/5/3 122/5/3
f 139/2/3 122/2/3 138/2/3
f 140/1/3 129/1/3 123/1/3
f 140/5/3 123/5/3 139/5/3
f 141/1/3 129/1/3 140/1/3
f 142/4/3 130/4/3 129/4/3
f 142/1/3 129/1/3 141/1/3
f 143/5/3 110/5/3 130/5/3
f 143/4/3 130/4/3 142/4/3
f 144/2/3 136/2/3 135/2/3
f 144/5/3 135/5/3 134/5/3
f 145/2/3 136/2/3 144/2/3
f 146/4/3 137/4/3 136/4/3
f 146/2/3 136/2/3 145/2/3
f 147/4/3 132/4/3 137/4/3
f 147/4/3 137/4/3 146/4/3
f 147/2/3 138/2/3 132/2/3
f 148/5/3 139/5/3 138/5/3
f 148/2/3 138/2/3 147/2/3
f 148/5/3 141/5/3 140/5/3
f 148/5/3 140/5/3 139/5/3
f 149/2/3 146/2/3 145/2/3
f 149/2/3 147/2/3 146/2/3
f 149/5/3 145/5/3 144/5/3
f 150/5/3 148/5/3 147/5/3
f 150/2/3 147/2/3 149/2/3
f 151/5/3 141/5/3 148/5/3
f 151/5/3 148/5/3 150/5/3
f 151/1/3 142/1/3 141/1/3
f 152/5/3 143/5/3 142/5/3
f 152/1/3 142/1/3 151/1/3
f 153/5/3 150/5/3 149/5/3
f 153/5/3 144/5/3 134/5/3
f 153/5/3 152/5/3 151/5/3
f 153/5/3 151/5/3 150/5/3
f 153/5/3 134/5/3 109/5/3
f 153/5/3 149/5/3 144/5/3
f 154/5/3 152/5/3 153/5/3
f 155/5/3 152/5/3 154/5/3
f 156/5/3 152/5/3 155/5/3
f 157/5/3 152/5/3 156/5/3
f 158/5/3 152/5/3 157/5/3
f 159/5/3 152/5/3 158/5/3
f 160/5/3 143/5/3 152/5/3
f 160/5/3 152/5/3 159/5/3
f 161/5/3 159/5/3 158/5/3
f 162/5/3 159/5/3 161/5/3
f 163/5/3 159/5/3 162/5/3
f 164/3/3 160/3/3 159/3/3
f 164/5/3 159/5/3 163/5/3
f 165/5/3 143/5/3 160/5/3
f 165/3/3 160/3/3 164/3/3
f 166/5/3 110/5/3 143/5/3
f 166/5/3 143/5/3 165/5/3
f 167/5/3 163/5/3 162/5/3
f 168/5/3 163/5/3 167/5/3
f 169/3/3 164/3/3 163/3/3
f 169/3/3 165/3/3 164/3/3
f 169/3/3 166/3/3 165/3/3
f 170/3/3 166/3/3 169/3/3
f 171/5/3 163/5/3 168/5/3
f 172/5/3 163/5/3 171/5/3
f 173/3/3 169/3/3 163/3/3
f 174/4/3 170/4/3 169/4/3
f 174/3/3 169/3/3 173/3/3
f 175/3/3 166/3/3 170/3/3
f 175/4/3 170/4/3 174/4/3
f 176/5/3 163/5/3 172/5/3
f 177/5/3 163/5/3 176/5/3
f 178/3/3 173/3/3 163/3/3
f 178/5/3 163/5/3 177/5/3
f 179/4/3 174/4/3 173/4/3
f 179/3/3 173/3/3 178/3/3
f 180/3/3 175/3/3 174/3/3
f 180/4/3 174/4/3 179/4/3
f 181/3/3 166/3/3 175/3/3
f 181/3/3 175/3/3 180/3/3
f 182/5/3 110/5/3 166/5/3
f 182/3/3 166/3/3 181/3/3
f 183/5/3 178/5/3 177/5/3
f 183/5/3 179/5/3 178/5/3
f 184/5/3 179/5/3 183/5/3
f 185/3/3 181/3/3 180/3/3
f 185/5/3 179/5/3 184/5/3
f 185/3/3 180/3/3 179/3/3
f 186/5/3 182/5/3 181/5/3
f 186/3/3 181/3/3 185/3/3
f 187/5/3 185/5/3 184/5/3
f 187/5/3 186/5/3 185/5/3
f 188/5/3 186/5/3 187/5/3
f 189/5/3 186/5/3 188/5/3
f 190/5/3 186/5/3 189/5/3
f 191/5/3 186/5/3 190/5/3
f 192/5/3 186/5/3 191/5/3
f 193/5/3 186/5/3 192/5/3
f 194/5/3 186/5/3 193/5/3
f 195/5/3 186/5/3 194/5/3
f 196/5/3 186/5/3 195/5/3
f 197/5/3 186/5/3 196/5/3
f 198/5/3 186/5/3 197/5/3
f 199/5/3 186/5/3 198/5/3
f 200/5/3 186/5/3 199/5/3
f 201/5/3 186/5/3 200/5/3
f 202/5/3 186/5/3 201/5/3
f 203/5/3 186/5/3 202/5/3
f 204/5/3 186/5/3 203/5/3
f 205/5/3 186/5/3 204/5/3
f 206/5/3 186/5/3 205/5/3
f 207/5/3 186/5/3 206/5/3
f 208/5/3 186/5/3 207/5/3
f 209/5/3 186/5/3 208/5/3
f 210/5/3 186/5/3 209/5/3
f 211/5/3 186/5/3 210/5/3
f 212/5/3 186/5/3 211/5/3
f 213/5/3 186/5/3 212/5/3
f 214/5/3 182/5/3 186/5/3
f 214/5/3 186/5/3 213/5/3
f 215/5/3 182/5/3 214/5/3
f 216/5/3 110/5/3 182/5/3
f 216/5/3 182/5/3 215/5/3
f 217/5/3 110/5/3 216/5/3
f 218/5/3 110/5/3 217/5/3
f 219/5/3 110/5/3 218/5/3
f 220/5/3 110/5/3 219/5/3
f 221/5/3 110/5/3 220/5/3
f 222/5/3 110/5/3 221/5/3
f 223/5/4 224/5/4 225/5/4
f 225/5/4 224/5/4 226/5/4
f 223/5/4 225/5/4 227/5/4
f 225/2/4 226/2/4 228/2/4
f 227/5/4 225/5/4 228/5/4
f 226/5/4 224/5/4 229/5/4
f 228/2/4 226/2/4 229/2/4
f 229/5/4 224/5/4 230/5/4
f 230/5/4 224/5/4 231/5/4
f 231/5/4 224/5/4 232/5/4
f 223/5/4 227/5/4 233/5/4
f 227/2/4 228/2/4 234/2/4
f 233/5/4 227/5/4 234/5/4
f 228/2/4 229/2/4 234/2/4
f 229/2/4 230/2/4 234/2/4
f 230/5/4 231/5/4 235/5/4
f 234/2/4 230/2/4 235/2/4
f 235/5/4 231/5/4 236/5/4
f 236/5/4 231/5/4 237/5/4
f 231/1/4 232/1/4 238/1/4
f 237/5/4 231/5/4 238/5/4
f 232/5/4 224/5/4 239/5/4
f 238/1/4 232/1/4 239/1/4
f 239/5/4 224/5/4 240/5/4
f 233/2/4 234/2/4 241/2/4
f 234/2/4 235/2/4 241/2/4
f 235/2/4 236/2/4 241/2/4
f 241/2/4 236/2/4 242/2/4
f 237/1/4 238/1/4 243/1/4
f 239/1/4 240/1/4 243/1/4
f 238/1/4 239/1/4 243/1/4
f 240/5/4 224/5/4 244/5/4
f 243/1/4 240/1/4 244/1/4
f 233/2/4 241/2/4 245/2/4
f 241/4/4 242/4/4 246/4/4
f 245/2/4 241/2/4 246/2/4
f 242/2/4 236/2/4 247/2/4
f 246/4/4 242/4/4 247/4/4
f 223/5/4 233/5/4 248/5/4
f 233/2/4 245/2/4 248/2/4
f 248/2/4 245/2/4 249/2/4
f 249/2/4 245/2/4 250/2/4
f 245/4/4 246/4/4 251/4/4
f 250/2/4 245/2/4 251/2/4
f 247/2/4 236/2/4 252/2/4
f 246/2/4 247/2/4 252/2/4
f 236/5/4 237/5/4 253/5/4
f 252/2/4 236/2/4 253/2/4
f 237/1/4 243/1/4 254/1/4
f 253/5/4 237/5/4 254/5/4
f 254/1/4 243/1/4 255/1/4
f 243/4/4 244/4/4 256/4/4
f 255/1/4 243/1/4 256/1/4
f 244/5/4 224/5/4 257/5/4
f 256/4/4 244/4/4 257/4/4
f 249/2/4 250/2/4 258/2/4
f 248/5/4 249/5/4 258/5/4
f 258/2/4 250/2/4 259/2/4
f 250/4/4 251/4/4 260/4/4
f 259/2/4 250/2/4 260/2/4
f 251/4/4 246/4/4 261/4/4
f 260/4/4 251/4/4 261/4/4
f 246/2/4 252/2/4 261/2/4
f 252/5/4 253/5/4 262/5/4
f 261/2/4 252/2/4 262/2/4
f 254/5/4 255/5/4 262/5/4
f 253/5/4 254/5/4 262/5/4
f 259/2/4 260/2/4 263/2/4
f 260/2/4 261/2/4 263/2/4
f 258/5/4 259/5/4 263/5/4
f 261/5/4 262/5/4 264/5/4
f 263/2/4 261/2/4 264/2/4
f 262/5/4 255/5/4 265/5/4
f 264/5/4 262/5/4 265/5/4
f 255/1/4 256/1/4 265/1/4
f 256/5/4 257/5/4 266/5/4
f 265/1/4 256/1/4 266/1/4
f 263/5/4 264/5/4 267/5/4
f 248/5/4 258/5/4 267/5/4
f 265/5/4 266/5/4 267/5/4
f 264/5/4 265/5/4 267/5/4
f 223/5/4 248/5/4 267/5/4
f 258/5/4 263/5/4 267/5/4
f 267/5/4 266/5/4 268/5/4
f 268/5/4 266/5/4 269/5/4
f 269/5/4 266/5/4 270/5/4
f 270/5/4 266/5/4 271/5/4
f 271/5/4 266/5/4 272/5/4
f 272/5/4 266/5/4 273/5/4
f 266/5/4 257/5/4 274/5/4
f 273/5/4 266/5/4 274/5/4
f 272/5/4 273/5/4 275/5/4
f 275/5/4 273/5/4 276/5/4
f 276/5/4 273/5/4 277/5/4
f 273/3/4 274/3/4 278/3/4
f 277/5/4 273/5/4 278/5/4
f 274/5/4 257/5/4 279/5/4
f 278/3/4 274/3/4 279/3/4
f 257/5/4 224/5/4 280/5/4
f 279/5/4 257/5/4 280/5/4
f 276/5/4 277/5/4 281/5/4
f 281/5/4 277/5/4 282/5/4
f 277/3/4 278/3/4 283/3/4
f 278/3/4 279/3/4 283/3/4
f 279/3/4 280/3/4 283/3/4
f 283/3/4 280/3/4 284/3/4
f 282/5/4 277/5/4 285/5/4
f 285/5/4 277/5/4 286/5/4
f 277/3/4 283/3/4 287/3/4
f 283/4/4 284/4/4 288/4/4
f 287/3/4 283/3/4 288/3/4
f 284/3/4 280/3/4 289/3/4
f 288/4/4 284/4/4 289/4/4
f 286/5/4 277/5/4 290/5/4
f 290/5/4 277/5/4 291/5/4
f 277/3/4 287/3/4 292/3/4
f 291/5/4 277/5/4 292/5/4
f 287/4/4 288/4/4 293/4/4
f 292/3/4 287/3/4 293/3/4
f 288/3/4 289/3/4 294/3/4
f 293/4/4 288/4/4 294/4/4
f 289/3/4 280/3/4 295/3/4
f 294/3/4 289/3/4 295/3/4
f 280/5/4 224/5/4 296/5/4
f 295/3/4 280/3/4 296/3/4
f 291/5/4 292/5/4 297/5/4
f 292/5/4 293/5/4 297/5/4
f 297/5/4 293/5/4 298/5/4
f 294/3/4 295/3/4 299/3/4
f 298/5/4 293/5/4 299/5/4
f 293/3/4 294/3/4 299/3/4
f 295/5/4 296/5/4 300/5/4
f 299/3/4 295/3/4 300/3/4
f 298/5/4 299/5/4 301/5/4
f 299/5/4 300/5/4 301/5/4
f 301/5/4 300/5/4 302/5/4
f 302/5/4 300/5/4 303/5/4
f 303/5/4 300/5/4 304/5/4
f 304/5/4 300/5/4 305/5/4
f 305/5/4 300/5/4 306/5/4
f 306/5/4 300/5/4 307/5/4
f 307/5/4 300/5/4 308/5/4
f 308/5/4 300/5/4 309/5/4
f 309/5/4 300/5/4 310/5/4
f 310/5/4 300/5/4 311/5/4
f 311/5/4 300/5/4 312/5/4
f 312/5/4 300/5/4 313/5/4
f 313/5/4 300/5/4 314/5/4
f 314/5/4 300/5/4 315/5/4
f 315/5/4 300/5/4 316/5/4
f 316/5/4 300/5/4 317/5/4
f 317/5/4 300/5/4 318/5/4
f 318/5/4 300/5/4 319/5/4
f 319/5/4 300/5/4 320/5/4
f 320/5/4 300/5/4 321/5/4
f 321/5/4 300/5/4 322/5/4
f 322/5/4 300/5/4 323/5/4
f 323/5/4 300/5/4 324/5/4
f 324/5/4 300/5/4 325/5/4
f 325/5/4 300/5/4 326/5/4
f 326/5/4 300/5/4 327/5/4
f 300/5/4 296/5/4 328/5/4
f 327/5/4 300/5/4 328/5/4
f 328/5/4 296/5/4 329/5/4
f 296/5/4 224/5/4 330/5/4
f 329/5/4 296/5/4 330/5/4
f 330/5/4 224/5/4 331/5/4
f 331/5/4 224/5/4 332/5/4
f 332/5/4 224/5/4 333/5/4
f 333/5/4 224/5/4 334/5/4
f 334/5/4 224/5/4 335/5/4
f 335/5/4 224/5/4 336/5/4
f 339/5/5 338/5/5 337/5/5
f 340/5/5 338/5/5 339/5/5
f 343/5/5 342/5/5 341/5/5
f 344/5/5 342/5/5 343/5/5
f 347/5/5 346/5/5 345/5/5
f 348/5/5 346/5/5 347/5/5
f 351/5/5 350/5/5 349/5/5
f 352/5/5 350/5/5 351/5/5
f 355/5/5 354/5/5 353/5/5
f 356/5/5 354/5/5 355/5/5
f 359/5/5 358/5/5 357/5/5
f 360/5/5 358/5/5 359/5/5
f 363/5/5 362/5/5 361/5/5
f 364/5/5 362/5/5 363/5/5
f 367/5/5 366/5/5 365/5/5
f 368/5/5 366/5/5 367/5/5
f 371/5/5 370/5/5 369/5/5
f 372/5/5 370/5/5 371/5/5
f 375/5/5 374/5/5 373/5/5
f 376/5/5 374/5/5 375/5/5
f 379/5/5 378/5/5 377/5/5
f 380/5/5 378/5/5 379/5/5
f 383/5/5 382/5/5 381/5/5
f 384/5/5 382/5/5 383/5/5
f 387/5/5 386/5/5 385/5/5
f 388/5/5 386/5/5 387/5/5
f 391/5/5 390/5/5 389/5/5
f 392/5/5 390/5/5 391/5/5
f 395/5/5 394/5/5 393/5/5
f 396/5/5 394/5/5 395/5/5
f 399/5/5 398/5/5 397/5/5
f 400/5/5 398/5/5 399/5/5
f 403/5/5 402/5/5 401/5/5
f 404/5/5 402/5/5 403/5/5
f 407/5/5 406/5/5 405/5/5
f 408/5/5 406/5/5 407/5/5
f 411/5/5 410/5/5 409/5/5
f 412/5/5 410/5/5 411/5/5
f 415/5/5 414/5/5 413/5/5
f 416/5/5 414/5/5 415/5/5
f 419/5/5 418/5/5 417/5/5
f 420/5/5 418/5/5 419/5/5
f 423/5/5 422/5/5 421/5/5
f 424/5/5 422/5/5 423/5/5
f 427/5/5 426/5/5 425/5/5
f 428/5/5 426/5/5 427/5/5
f 431/5/5 430/5/5 429/5/5
f 432/5/5 430/5/5 431/5/5
f 435/5/5 434/5/5 433/5/5
f 436/5/5 434/5/5 435/5/5
f 439/5/5 438/5/5 437/5/5
f 440/5/5 438/5/5 439/5/5
f 441/5/6 442/5/6 443/5/6
f 443/5/6 442/5/6 444/5/6
